<svg id="Capa_1" enable-background="new 0 0 512 512" height="512" viewBox="0 0 512 512" width="512" xmlns="http://www.w3.org/2000/svg"><g id="_x30_2_setting"><path d="m493.267 128.687h-22.569c-1.972-5.879-4.357-11.631-7.131-17.193l15.965-15.964c3.539-3.538 5.487-8.243 5.487-13.247s-1.949-9.708-5.487-13.247l-33.915-33.916c-7.305-7.303-19.189-7.303-26.494 0l-15.965 15.965c-5.562-2.774-11.314-5.159-17.193-7.13v-22.569c0-10.33-8.404-18.733-18.733-18.733h-47.964c-10.33 0-18.733 8.404-18.733 18.733v22.569c-5.879 1.971-11.631 4.356-17.193 7.13l-15.965-15.965c-7.305-7.303-19.189-7.303-26.494 0l-33.915 33.916c-3.539 3.539-5.487 8.243-5.487 13.247s1.949 9.709 5.487 13.247l15.965 15.965c-2.773 5.562-5.159 11.313-7.131 17.193h-22.569c-10.33 0-18.733 8.404-18.733 18.734v31.439h-147c-15.164 0-27.5 12.336-27.5 27.5v124.115c0 4.142 3.358 7.5 7.5 7.5s7.5-3.358 7.5-7.5v-36.127h325.771v38.305.01 149.185c0 6.893-5.607 12.5-12.5 12.5h-33.572c-4.142 0-7.5 3.358-7.5 7.5s3.358 7.5 7.5 7.5h33.572c15.164 0 27.5-12.336 27.5-27.5v-141.696h11.461c10.33 0 18.733-8.404 18.733-18.734v-22.569c5.88-1.971 11.631-4.356 17.193-7.13l15.965 15.965c7.305 7.305 19.19 7.305 26.494 0l33.915-33.915c3.539-3.539 5.487-8.243 5.487-13.247s-1.949-9.708-5.487-13.247l-15.965-15.965c2.773-5.561 5.159-11.313 7.131-17.193h22.569c10.33 0 18.733-8.404 18.733-18.734v-47.963c0-10.33-8.404-18.734-18.733-18.734zm-210.892 38.716c1.949-30.476 26.401-54.928 56.877-56.876 17.529-1.124 34.703 5.353 47.111 17.762 12.409 12.409 18.883 29.58 17.762 47.111-1.757 27.49-21.975 50.184-48.354 55.704v-24.744c0-15.164-12.336-27.5-27.5-27.5h-45.552c-.468-3.792-.589-7.626-.344-11.457zm-267.375 111.944v-72.987c0-6.893 5.607-12.5 12.5-12.5h300.771c6.893 0 12.5 5.607 12.5 12.5v33.345.01 39.632zm482-83.963c0 2.059-1.675 3.734-3.733 3.734h-28.085c-3.342 0-6.281 2.211-7.207 5.422-2.453 8.507-5.877 16.764-10.178 24.541-1.618 2.926-1.104 6.569 1.26 8.933l19.868 19.868c1.457 1.457 1.459 3.821 0 5.28l-33.915 33.916c-1.456 1.455-3.825 1.456-5.281 0l-19.868-19.868c-2.364-2.365-6.008-2.877-8.933-1.26-7.777 4.301-16.034 7.725-24.541 10.177-3.211.926-5.422 3.865-5.422 7.207v28.085c0 2.059-1.675 3.734-3.733 3.734h-11.461c0-9.105 0-68.955 0-78.784 34.363-5.716 61.066-34.691 63.324-70.011 1.396-21.833-6.669-43.219-22.125-58.675s-36.84-23.518-58.675-22.125c-37.985 2.429-68.461 32.904-70.89 70.889-.265 4.146-.192 8.296.215 12.413h-78.12v-31.438c0-2.059 1.675-3.734 3.733-3.734h28.085c3.342 0 6.281-2.211 7.207-5.422 2.453-8.506 5.877-16.763 10.178-24.541 1.618-2.926 1.104-6.569-1.26-8.933l-19.868-19.869c-1.457-1.456-1.459-3.82 0-5.28l33.915-33.915c1.455-1.457 3.824-1.456 5.281 0l19.868 19.868c2.365 2.364 6.007 2.877 8.933 1.26 7.779-4.301 16.036-7.726 24.541-10.177 3.211-.926 5.422-3.865 5.422-7.207v-28.086c0-2.059 1.675-3.733 3.733-3.733h47.964c2.059 0 3.733 1.675 3.733 3.733v28.085c0 3.342 2.211 6.281 5.422 7.207 8.505 2.452 16.762 5.876 24.541 10.177 2.926 1.617 6.569 1.104 8.933-1.26l19.868-19.868c1.455-1.457 3.824-1.456 5.281 0l33.915 33.916c1.457 1.457 1.459 3.821 0 5.28l-19.868 19.868c-2.364 2.364-2.878 6.007-1.26 8.933 4.301 7.778 7.725 16.035 10.178 24.541.926 3.211 3.865 5.422 7.207 5.422h28.085c2.059 0 3.733 1.675 3.733 3.734z"/><path d="m259.699 494.347h-232.199c-6.893 0-12.5-5.607-12.5-12.5v-116.372c0-4.142-3.358-7.5-7.5-7.5s-7.5 3.358-7.5 7.5v116.372c0 15.164 12.336 27.5 27.5 27.5h232.199c4.142 0 7.5-3.358 7.5-7.5s-3.358-7.5-7.5-7.5z"/><path d="m70.38 377.615h215.01c12.958 0 23.5-10.542 23.5-23.5s-10.542-23.5-23.5-23.5h-215.01c-12.958 0-23.5 10.542-23.5 23.5s10.542 23.5 23.5 23.5zm0-32h215.01c4.687 0 8.5 3.813 8.5 8.5s-3.813 8.5-8.5 8.5h-215.01c-4.687 0-8.5-3.813-8.5-8.5s3.813-8.5 8.5-8.5z"/><path d="m308.89 434.58c0-12.958-10.542-23.5-23.5-23.5h-215.01c-12.958 0-23.5 10.542-23.5 23.5s10.542 23.5 23.5 23.5h215.01c12.958 0 23.5-10.542 23.5-23.5zm-23.5 8.5h-215.01c-4.687 0-8.5-3.813-8.5-8.5s3.813-8.5 8.5-8.5h215.01c4.687 0 8.5 3.813 8.5 8.5s-3.813 8.5-8.5 8.5z"/><path d="m305.602 213.41h-30.072c-6.893 0-12.5 5.607-12.5 12.5v21.386c0 6.893 5.607 12.5 12.5 12.5h30.072c6.893 0 12.5-5.607 12.5-12.5v-21.386c0-6.892-5.608-12.5-12.5-12.5zm-2.5 31.386h-25.072v-16.386h25.072z"/><path d="m227.879 213.41h-30.073c-6.893 0-12.5 5.607-12.5 12.5v21.386c0 6.893 5.607 12.5 12.5 12.5h30.073c6.893 0 12.5-5.607 12.5-12.5v-21.386c0-6.892-5.608-12.5-12.5-12.5zm-2.5 31.386h-25.073v-16.386h25.073z"/><path d="m150.156 213.41h-30.073c-6.893 0-12.5 5.607-12.5 12.5v21.386c0 6.893 5.607 12.5 12.5 12.5h30.073c6.893 0 12.5-5.607 12.5-12.5v-21.386c0-6.892-5.608-12.5-12.5-12.5zm-2.5 31.386h-25.073v-16.386h25.073z"/></g></svg>