<svg id="Capa_1" enable-background="new 0 0 512.013 512.013" height="512" viewBox="0 0 512.013 512.013" width="512" xmlns="http://www.w3.org/2000/svg"><g id="_x30_3_printer"><path d="m88.011 249.693c0-14.615-11.891-26.505-26.506-26.505s-26.505 11.89-26.505 26.505 11.89 26.506 26.505 26.506 26.506-11.891 26.506-26.506zm-38.011 0c0-6.344 5.161-11.505 11.505-11.505s11.506 5.161 11.506 11.505-5.162 11.506-11.506 11.506-11.505-5.162-11.505-11.506z"/><path d="m163.5 406.74h185c12.958 0 23.5-10.542 23.5-23.5s-10.542-23.5-23.5-23.5h-185c-12.958 0-23.5 10.542-23.5 23.5s10.542 23.5 23.5 23.5zm0-32h185c4.687 0 8.5 3.813 8.5 8.5s-3.813 8.5-8.5 8.5h-185c-4.687 0-8.5-3.813-8.5-8.5s3.813-8.5 8.5-8.5z"/><path d="m163.5 474.773h185c12.958 0 23.5-10.542 23.5-23.5s-10.542-23.5-23.5-23.5h-185c-12.958 0-23.5 10.542-23.5 23.5s10.542 23.5 23.5 23.5zm0-32h185c4.687 0 8.5 3.813 8.5 8.5s-3.813 8.5-8.5 8.5h-185c-4.687 0-8.5-3.813-8.5-8.5s3.813-8.5 8.5-8.5z"/><path d="m484.5 191.022h-26.335v-61.167c0-12.407-10.094-22.5-22.5-22.5h-24.665v-87.848c0-10.752-8.748-19.5-19.5-19.5h-271c-10.752 0-19.5 8.748-19.5 19.5v87.849h-24.666c-12.407 0-22.5 10.093-22.5 22.5v61.167h-26.334c-15.164 0-27.5 12.336-27.5 27.5v75.571c0 4.142 3.358 7.5 7.5 7.5s7.5-3.358 7.5-7.5v-75.571c0-6.893 5.607-12.5 12.5-12.5h457c6.893 0 12.5 5.607 12.5 12.5 0 195.628.043 185.318-.077 186.396-.001.006-.002.013-.002.02-.707 6.319-6.047 11.085-12.421 11.085h-32v-101.65c0-15.164-12.337-27.5-27.5-27.5h-338c-15.164 0-27.5 12.336-27.5 27.5v101.65h-32c-6.893 0-12.5-5.607-12.5-12.5v-74.429c0-4.142-3.358-7.5-7.5-7.5s-7.5 3.358-7.5 7.5v74.429c0 15.164 12.336 27.5 27.5 27.5h73.5v61.484c0 10.752 8.748 19.5 19.5 19.5h106c4.142 0 7.5-3.358 7.5-7.5s-3.358-7.5-7.5-7.5h-106c-2.481 0-4.5-2.019-4.5-4.5 0-6.722 0-148.046 0-154.969h280v154.969c0 2.481-2.019 4.5-4.5 4.5h-130c-4.143 0-7.5 3.358-7.5 7.5s3.357 7.5 7.5 7.5h130c10.752 0 19.5-8.748 19.5-19.5v-61.484h73.5c14.011 0 25.752-10.479 27.323-24.383.002-.01.003-.02.004-.03.257-2.289.173 9.79.173-188.087 0-15.165-12.336-27.502-27.5-27.502zm-415.666-61.166c0-4.136 3.364-7.5 7.5-7.5h24.666v68.667h-32.166zm47.166-110.349c0-2.481 2.019-4.5 4.5-4.5h271c2.481 0 4.5 2.019 4.5 4.5v171.516h-280c0-7.497 0-163.99 0-171.516zm295 171.515v-68.667h24.665c4.136 0 7.5 3.364 7.5 7.5v61.167zm0 225v-85.984c0-4.142-3.357-7.5-7.5-7.5-16.048 0-287.352 0-295 0-4.142 0-7.5 3.358-7.5 7.5v85.984h-26.5v-101.65c0-6.893 5.607-12.5 12.5-12.5h338c6.893 0 12.5 5.607 12.5 12.5v101.65z"/></g></svg>