<svg id="Capa_1" enable-background="new 0 0 512 512" height="512" viewBox="0 0 512 512" width="512" xmlns="http://www.w3.org/2000/svg"><g><path d="m440.415 408.615h-9.43l-18.158-188.169c-2.426-25.141-8.805-46.55-13.729-60.083-17.267-47.439-46.811-77.871-85.321-94.155-.005-.002-.01-.004-.014-.006-5.646-2.387-11.395-4.409-17.228-6.07v-19.596c0-22.352-18.183-40.536-40.535-40.536s-40.535 18.184-40.535 40.536v19.604c-13.163 3.738-25.807 9.297-37.567 16.576-23.48 14.534-42.401 35.281-54.717 59.997-12.887 25.862-20.916 53.552-23.865 82.3-.423 4.121 2.575 7.803 6.695 8.226 4.13.424 7.803-2.576 8.227-6.696 2.764-26.946 10.29-52.899 22.369-77.141 32.258-64.74 108.026-90.136 171.306-63.389.004.001.006.002.01.004 56.048 23.694 84.058 80.558 89.976 141.868l18.019 186.729c-23.338 0-305.174 0-319.833 0l14.774-153.104c.398-4.123-2.621-7.788-6.744-8.186-4.126-.393-7.788 2.622-8.186 6.745l-14.914 154.546h-9.43c-15.132 0-27.442 12.311-27.442 27.442s12.31 27.443 27.442 27.443h141.683v5.768c0 23.562 19.17 42.732 42.732 42.732s42.732-19.17 42.732-42.732v-5.768h67.773c4.143 0 7.5-3.358 7.5-7.5s-3.357-7.5-7.5-7.5c-3.82 0-290.99 0-294.921 0-6.86 0-12.442-5.582-12.442-12.442s5.582-12.442 12.442-12.442h368.83c6.86 0 12.442 5.582 12.442 12.442s-5.582 12.442-12.442 12.442h-38.909c-4.143 0-7.5 3.358-7.5 7.5s3.357 7.5 7.5 7.5h38.909c15.132 0 27.442-12.311 27.442-27.442s-12.309-27.443-27.441-27.443zm-158.88-351.915c-5.17-.901-10.395-1.519-15.663-1.866-12.055-.809-24.139-.088-35.407 1.877v-16.175c0-14.081 11.455-25.536 25.535-25.536s25.535 11.455 25.535 25.536zm2.197 406.8v5.768c0 15.292-12.44 27.732-27.732 27.732s-27.732-12.441-27.732-27.732v-5.768z"/></g></svg>