<svg id="Capa_1" enable-background="new 0 0 512 512" height="512" viewBox="0 0 512 512" width="512" xmlns="http://www.w3.org/2000/svg"><g id="_x30_6_chat_bubble"><path d="m301.863 20.231c-73.253 0-137.741 32.968-175.352 82.943l257.932 271.801c75.001-28.215 127.557-93.688 127.557-169.961 0-102.053-94.082-184.783-210.137-184.783z" fill="#8d9ca8"/><path d="m419.711 272.57c0-101.916-93.956-184.536-209.856-184.536s-209.855 82.619-209.855 184.536c0 81.783 60.507 151.129 144.299 175.34l-12.598 38.606c-1.016 3.115 1.934 6.066 5.049 5.049l119.49-38.991c93.579-18.568 163.471-92.105 163.471-180.004z" fill="#d8ecfe"/><path d="m301.863 20.231c-73.253 0-137.741 32.968-175.352 82.943 137.946-52.554 293.2 36.46 293.2 169.396 0 37.89-12.996 73.105-35.268 102.405 75.001-28.215 127.557-93.688 127.557-169.961 0-102.053-94.082-184.783-210.137-184.783z" fill="#8d9ca8"/><g fill="#7a8c98"><circle cx="209.856" cy="273.782" r="25.949"/><circle cx="104.348" cy="273.782" r="25.949"/><circle cx="315.363" cy="273.782" r="25.949"/></g><path d="m266.39 94.816c69.983 29.917 118.224 93.029 118.224 166.054 0 87.899-69.892 161.436-163.471 180.004l-83.431 27.225-6.01 18.417c-1.016 3.115 1.934 6.066 5.049 5.049l119.49-38.991c93.579-18.567 163.471-92.104 163.471-180.004-.001-84.692-64.885-156.05-153.322-177.754z" fill="#c4e2ff"/></g></svg>