<svg id="Capa_1" enable-background="new 0 0 512 512" height="512" viewBox="0 0 512 512" width="512" xmlns="http://www.w3.org/2000/svg"><g><path d="m366 46.445h-220.5c-12.958 0-23.5 10.542-23.5 23.5s10.542 23.5 23.5 23.5h220.5c12.958 0 23.5-10.542 23.5-23.5s-10.542-23.5-23.5-23.5zm0 32h-220.5c-4.687 0-8.5-3.813-8.5-8.5s3.813-8.5 8.5-8.5h220.5c4.687 0 8.5 3.813 8.5 8.5s-3.813 8.5-8.5 8.5z"/><path d="m366 122.981h-220.5c-12.958 0-23.5 10.542-23.5 23.5s10.542 23.5 23.5 23.5h220.5c12.958 0 23.5-10.542 23.5-23.5s-10.542-23.5-23.5-23.5zm0 32h-220.5c-4.687 0-8.5-3.813-8.5-8.5s3.813-8.5 8.5-8.5h220.5c4.687 0 8.5 3.813 8.5 8.5s-3.813 8.5-8.5 8.5z"/><path d="m366 199.516h-220.5c-12.958 0-23.5 10.542-23.5 23.5s10.542 23.5 23.5 23.5h220.5c12.958 0 23.5-10.542 23.5-23.5s-10.542-23.5-23.5-23.5zm0 32h-220.5c-4.687 0-8.5-3.813-8.5-8.5s3.813-8.5 8.5-8.5h220.5c4.687 0 8.5 3.813 8.5 8.5s-3.813 8.5-8.5 8.5z"/><path d="m487.911 213.914c-.032-2.662-1.518-5.05-3.592-6.313-16.502-10.052-31.661-19.29-45.633-27.807v-51.192c0-4.142-3.358-7.5-7.5-7.5s-7.5 3.358-7.5 7.5v55.403 55.704c-161.876 98.386-151.481 92.112-152.982 92.89-9.76 5.048-20.968 4.613-29.892-.015-1.499-.779-150.519-91.598-152.499-92.803v-55.709-157.539c0-6.36 5.174-11.533 11.533-11.533h312.308c6.359 0 11.533 5.173 11.533 11.533v67.078c0 4.142 3.358 7.5 7.5 7.5s7.5-3.358 7.5-7.5v-67.078c0-14.631-11.903-26.533-26.533-26.533h-312.308c-14.63 0-26.533 11.902-26.533 26.533v153.323c-.563.342-45.42 27.604-45.963 27.977-1.976 1.355-3.268 3.637-3.268 6.171v.002 109.294c0 4.142 3.358 7.5 7.5 7.5s7.5-3.358 7.5-7.5c0-10.637 0-85.775 0-95.943 6.981 4.252 145.214 88.456 153.436 93.464-18.086 19.363-41.521 44.526-152.667 163.804-.498-1.622-.769-3.342-.769-5.125 0-7.141 0-124.781 0-128.105 0-4.142-3.358-7.5-7.5-7.5s-7.5 3.358-7.5 7.5v128.172.061c.033 8.586 3.42 16.392 8.907 22.19 4.927 5.682 13.866 10.182 23.594 10.182h398.835c9.686 0 18.657-4.476 23.599-10.189 5.511-5.826 8.901-13.678 8.901-22.311 0-7.214 0-260.51 0-265.494-.001-.031-.006-.061-.007-.092zm-414.598 16.73-27.303-16.631c9.558-5.81 18.652-11.339 27.303-16.601zm365.374-33.283c8.65 5.272 17.744 10.813 27.303 16.638l-27.303 16.594zm16.73 299.639h-398.834c-2.312 0-4.477-.442-6.56-1.287 119.446-128.187 137.634-147.718 155.578-166.923 24.673 15.029 26.253 16.047 28.304 17.11.001 0 .001.001.002.001 13.729 7.138 29.953 7.146 43.691.022 1.998-1.034.501-.173 28.667-17.292 5.996 6.409 144.264 154.795 155.713 167.082-2.168.88-4.411 1.287-6.561 1.287zm17.5-17.5c0 1.783-.271 3.503-.769 5.125-14.43-15.485-145.025-155.635-152.79-163.952 2.139-1.3 151.002-91.777 153.56-93.331-.001 5.484-.001 246.692-.001 252.158z"/></g></svg>