<svg id="Capa_1" enable-background="new 0 0 512 512" height="512" viewBox="0 0 512 512" width="512" xmlns="http://www.w3.org/2000/svg"><g id="_x30_9_save"><path d="m300.852 35.309c-7.444 0-13.5 6.056-13.5 13.5v75.197c0 7.444 6.056 13.5 13.5 13.5h46.131c7.444 0 13.5-6.056 13.5-13.5v-75.197c0-7.444-6.056-13.5-13.5-13.5zm44.63 87.197h-43.131v-72.197h43.131z"/><path d="m414.382 497h-377.817c-11.891 0-21.565-9.674-21.565-21.565v-223.09c0-4.143-3.357-7.5-7.5-7.5s-7.5 3.357-7.5 7.5v223.09c0 20.009 16.155 36.314 36.106 36.563.069.002.139.003.208.003h378.067c4.143 0 7.5-3.357 7.5-7.5s-3.357-7.501-7.499-7.501z"/><path d="m506.058 78.369-72.427-72.427c-3.833-3.832-8.928-5.942-14.347-5.942-10.286 0-372.373 0-382.719 0-20.094 0-36.455 16.295-36.564 36.364-.001.031-.001.061-.001.091v180.792c0 4.143 3.357 7.5 7.5 7.5s7.5-3.357 7.5-7.5v-180.682c0-11.891 9.674-21.565 21.565-21.565h76.488v136.363c0 11.828 9.623 21.451 21.451 21.451h242.99c11.828 0 21.451-9.623 21.451-21.451v-136.363h20.338c1.412 0 2.74.55 3.739 1.55l72.427 72.427c1 .999 1.55 2.327 1.55 3.739v382.719c0 11.892-9.674 21.565-21.565 21.565h-25.913c-4.143 0-7.5 3.357-7.5 7.5s3.357 7.5 7.5 7.5h25.913c20.163 0 36.566-16.403 36.566-36.565v-382.719c0-5.419-2.11-10.514-5.942-14.347zm-122.112 72.994c0 3.558-2.894 6.451-6.451 6.451h-242.99c-3.558 0-6.451-2.894-6.451-6.451v-136.363h255.893v136.363z"/><path d="m156 358.056h200c12.958 0 23.5-10.542 23.5-23.5s-10.542-23.5-23.5-23.5h-200c-12.958 0-23.5 10.542-23.5 23.5s10.542 23.5 23.5 23.5zm0-32h200c4.687 0 8.5 3.813 8.5 8.5s-3.813 8.5-8.5 8.5h-200c-4.687 0-8.5-3.813-8.5-8.5s3.813-8.5 8.5-8.5z"/><path d="m156 426.087h200c12.958 0 23.5-10.542 23.5-23.5s-10.542-23.5-23.5-23.5h-200c-12.958 0-23.5 10.542-23.5 23.5s10.542 23.5 23.5 23.5zm0-32h200c4.687 0 8.5 3.813 8.5 8.5s-3.813 8.5-8.5 8.5h-200c-4.687 0-8.5-3.813-8.5-8.5s3.813-8.5 8.5-8.5z"/><path d="m401 220.209h-290c-15.163 0-27.5 12.337-27.5 27.5v187.101c0 15.163 12.337 27.5 27.5 27.5h290c15.163 0 27.5-12.337 27.5-27.5 0-4.938 0-182.683 0-187.101 0-15.163-12.337-27.5-27.5-27.5zm-302.5 27.5c0-6.893 5.607-12.5 12.5-12.5h290c6.893 0 12.5 5.607 12.5 12.5v27.124h-315zm315 187.101c0 6.893-5.607 12.5-12.5 12.5h-290c-6.893 0-12.5-5.607-12.5-12.5v-144.977h315z"/></g></svg>