<svg id="Capa_1" enable-background="new 0 0 512 512" height="512" viewBox="0 0 512 512" width="512" xmlns="http://www.w3.org/2000/svg"><g id="_x31_0_video_camera"><path d="m490.962 162.255-136.408 53.245v81l136.408 53.245c10.096 3.991 21.038-3.45 21.038-14.306 0-2.181 0-156.698 0-158.879 0-10.855-10.942-18.296-21.038-14.305z" fill="#596c76"/><path d="m490.962 321.399-136.408-53.245v28.346l136.408 53.245c10.096 3.991 21.038-3.45 21.038-14.306 0-.58 0-11.942 0-28.346 0 10.856-10.942 18.296-21.038 14.306z" fill="#465a61"/><path d="m352.138 420.082c16.991 0 30.765-13.774 30.765-30.765v-266.634c0-16.991-13.774-30.765-30.765-30.765h-321.373c-16.991 0-30.765 13.774-30.765 30.765 0 7.522 0 273.109 0 266.634 0 16.991 13.774 30.765 30.765 30.765 8.05 0 329.654 0 321.373 0z" fill="#8d9ca8"/><circle cx="191.351" cy="256" fill="#d8ecfe" r="104.689"/><path d="m145.85 209.579v92.842c0 10.157 10.913 16.576 19.79 11.642l83.511-46.421c9.131-5.075 9.131-18.208 0-23.283l-83.511-46.421c-8.877-4.936-19.79 1.484-19.79 11.641z" fill="#fe646f"/><path d="m352.138 91.918h-35.042c16.991 0 30.765 13.774 30.765 30.765v266.634c0 16.991-13.774 30.765-30.765 30.765h.149 34.893c16.991 0 30.765-13.774 30.765-30.765v-266.634c0-16.991-13.774-30.765-30.765-30.765z" fill="#7a8c98"/></g></svg>