<svg id="Capa_1" enable-background="new 0 0 512.012 512.012" height="512" viewBox="0 0 512.012 512.012" width="512" xmlns="http://www.w3.org/2000/svg"><g><g><path d="m434.503 310.877c-38.4-84.82-36.539-79.507-36.539-83.732 0-7.763 6.309-14.078 14.063-14.078 1.014 0 .392-.037 13.244 1.303-9.745-46.739-38.293-87.539-79.418-112.989-3.522-2.18-4.61-6.802-2.431-10.324s6.802-4.611 10.324-2.431c47.673 29.503 79.778 78.023 88.082 133.12.733 4.857-3.332 9.089-8.193 8.577l-20.082-2.093 33.968 75.032 48.708-66.416-22.039-2.297c-3.528-.368-6.317-3.157-6.683-6.686-11.363-109.591-103.084-192.233-213.352-192.233-77.299.255-144.452 39.819-182.837 102.222-3.755 6.103-1.507 14.257 5.145 17.5 5.63 2.746 12.549.852 15.998-4.765 33.345-54.321 92.334-90.053 161.691-90.255 23.032 0 45.56 4.105 66.959 12.202 3.874 1.466 5.826 5.794 4.36 9.668s-5.795 5.827-9.668 4.361c-19.697-7.452-40.439-11.231-61.651-11.231-62.665.198-117.558 32.032-148.908 83.103-7.587 12.357-22.919 16.464-35.355 10.399-14.837-7.234-19.631-25.374-11.347-38.842 40.052-65.11 111.931-109.104 195.613-109.362 115.541 0 212.739 86.275 227.561 199.622l17.658 1.84c7.2.75 12.63 6.781 12.63 14.028 0 6.298 1.885 2.008-53.317 77.278-6.384 8.703-19.756 7.263-24.184-2.521z"/></g><g><path d="m253.02 491.347c-10.769-.189-21.584-1.135-32.147-2.813-4.091-.65-6.88-4.493-6.231-8.583.65-4.091 4.496-6.884 8.583-6.231 9.874 1.568 19.986 2.453 30.057 2.629 74.495 1.317 143.428-35.52 183.864-97.913 3.941-6.08 1.754-14.265-4.73-17.617-5.651-2.923-12.588-1.051-16.105 4.386-35.636 55.096-96.611 87.56-162.596 86.444-91.288-1.592-168.603-68.049-183.839-158.019-.804-4.747 3.013-8.983 7.754-8.744l21.138 1.014-38.108-73.017-44.922 69.034 21.456 1.029c3.63.174 6.613 2.926 7.079 6.531 10.524 81.498 67.885 150.708 146.132 176.321 3.937 1.289 6.083 5.524 4.795 9.461s-5.524 6.082-9.461 4.795c-81.711-26.746-142.133-97.939-155.449-182.422l-16.868-.81c-10.899-.522-17.033-12.673-11.129-21.745l46.651-71.691c2.611-4.009 7.021-6.401 11.797-6.401 5.269 0 10.055 2.9 12.49 7.567l39.574 75.826c5.022 9.626-2.279 21.115-13.16 20.582l-13.169-.632c17.565 78.146 86.571 134.913 167.499 136.325 60.759 1.059 116.927-28.861 149.74-79.593 7.787-12.039 23.195-15.973 35.59-9.564 14.489 7.492 19.113 25.698 10.429 39.099-43.132 66.552-116.799 106.134-196.714 104.752z"/></g></g></svg>