<svg id="Capa_1" enable-background="new 0 0 512.002 512.002" height="512" viewBox="0 0 512.002 512.002" width="512" xmlns="http://www.w3.org/2000/svg"><g><g id="_x31_6_wifi"><path d="m180.817 350.236c9.231 7.478 21.769 6.969 30.707-.913 12.205-10.763 27.66-17.228 44.498-17.307s32.352 6.24 44.657 16.888c9.012 7.798 21.554 8.19 30.715.625 13.074-10.796 13.56-32.461.768-43.685-20.996-18.423-47.57-29.392-76.398-29.256-28.827.135-55.298 11.353-76.122 29.973-12.687 11.344-11.999 33.003 1.175 43.675z" fill="#f79595"/><path d="m98.842 283.572.018.015c10.27 8.32 24.412 6.679 33.198-3.489 31.193-36.1 75.096-58.71 123.759-58.938 48.663-.229 92.775 21.968 124.303 57.773 8.88 10.085 23.037 11.594 33.229 3.177l.018-.015c12.108-9.998 13.493-29.483 2.96-41.482-40.729-46.401-97.801-75.178-160.769-74.882-62.967.296-119.768 29.607-160.064 76.389-10.418 12.097-8.852 31.568 3.348 41.452z" fill="#fd8087"/><path d="m17.78 217.65.025.021c10.465 8.478 25.089 6.779 33.611-4.016 49.714-62.973 122.745-102.969 204.194-103.351s154.849 38.926 205.148 101.429c8.622 10.714 23.262 12.276 33.647 3.7l.025-.021c11.721-9.679 13.514-28.408 3.78-40.498-59.554-73.974-146.444-120.492-242.858-120.039s-182.867 47.785-241.729 122.314c-9.621 12.18-7.654 30.892 4.157 40.461z" fill="#fe646f"/><ellipse cx="256.001" cy="425.741" fill="#f9b1b1" rx="31.263" ry="31.389"/><g><path d="m498.21 174.912c-59.554-73.972-146.444-120.49-242.858-120.037-4.296.02-8.571.138-12.826.342 90.19 4.314 170.998 49.714 227.339 119.696 9.926 12.329 7.904 31.671-4.646 41.18 8.648 6.594 20.43 6.571 29.187-.66l.025-.021c11.721-9.68 13.513-28.41 3.779-40.5z" fill="#fd4755"/></g><g><path d="m416.328 240.613c-40.729-46.401-97.801-75.178-160.769-74.882-4.449.021-8.864.203-13.248.509 56.957 3.968 108.223 31.711 145.67 74.373 10.738 12.234 9.108 32.299-3.755 42.107 8.742 6.519 20.387 6.603 29.123-.61l.018-.015c12.109-9.999 13.493-29.483 2.961-41.482z" fill="#fe646f"/></g><g><path d="m332.162 305.844c-20.996-18.423-47.57-29.392-76.398-29.256-4.621.022-9.181.332-13.667.908 23.137 2.965 44.339 13.099 61.718 28.348 12.986 11.395 12.353 33.711-1.58 44.298 8.859 6.571 20.513 6.526 29.158-.613 13.075-10.796 13.561-32.461.769-43.685z" fill="#fd8087"/></g><path d="m256.001 394.352c-5.101 0-9.915 1.241-14.173 3.425 10.132 5.198 17.09 15.777 17.09 27.964s-6.958 22.766-17.09 27.964c4.258 2.185 9.073 3.425 14.173 3.425 17.238 0 31.263-14.082 31.263-31.389s-14.025-31.389-31.263-31.389z" fill="#f79595"/></g><g><g><path d="m176.096 356.063c-16.97-13.748-17.4-40.835-1.453-55.094 22.837-20.421 51.634-31.744 81.085-31.882l.562-.001c29.244 0 57.946 11.052 80.817 31.12 7.547 6.622 11.875 16.48 11.875 27.047 0 11.107-4.67 21.334-12.814 28.059-12.299 10.157-28.935 9.182-40.397-.736-6.75-5.841-14.326-10.063-22.515-12.549-3.963-1.203-6.201-5.392-4.998-9.355 1.204-3.963 5.393-6.2 9.355-4.998 10.211 3.1 19.623 8.335 27.972 15.56 6.173 5.34 14.627 5.802 21.032.513 9.63-7.953 9.822-24.169.597-32.265-20.426-17.922-44.951-27.395-70.924-27.395l-.485.001c-26.164.123-50.77 9.828-71.164 28.064-9.298 8.313-8.622 24.546.897 32.258 6.41 5.193 14.859 4.727 21.025-.711 9.462-8.344 20.712-14.268 32.535-17.13 4.027-.978 8.08 1.499 9.054 5.525s-1.499 8.08-5.525 9.054c-9.462 2.291-18.503 7.063-26.144 13.801-11.486 10.13-28.113 11.06-40.387 1.114z"/></g><g><path d="m94.121 289.4c-15.453-12.52-17.5-36.858-4.308-52.174 42.074-48.848 100.978-78.691 165.711-78.995 65.151-.295 124.191 29.302 166.44 77.435 13.347 15.207 11.497 39.563-3.822 52.213-13.257 10.947-32.016 9.226-43.651-3.989-31.378-35.634-73.234-55.232-117.921-55.232-.241 0-.477 0-.718.002-44.958.211-86.908 20.22-118.12 56.342-11.509 13.319-30.249 15.224-43.594 4.413m162.395-116.187c-.316 0-.623.001-.938.002-58.832.276-113.671 26.48-154.416 73.784-3.717 4.315-5.539 10.245-4.999 16.267.521 5.812 3.212 11.083 7.384 14.463.001 0 .001.001.002.002l.018.015c7.015 5.683 16.604 4.604 22.799-2.567 34.087-39.45 80.042-61.303 129.399-61.535.262-.001.531-.002.792-.002 49.061 0 94.904 21.399 129.175 60.319 6.262 7.113 15.862 8.101 22.825 2.351 8.845-7.303 9.875-21.928 2.117-30.766-40.962-46.667-95.683-72.333-154.158-72.333z"/></g><g><path d="m13.084 223.498c-15.441-12.509-17.205-35.944-5.347-50.958 60.679-76.829 149.28-124.704 247.58-125.166l1.43-.003c47.593 0 93.566 10.975 136.643 32.618 3.701 1.86 5.194 6.368 3.334 10.069s-6.367 5.195-10.069 3.334c-40.968-20.584-84.676-31.021-129.909-31.021l-1.363.003c-90.274.424-176.249 43.967-235.875 119.462-7.137 9.036-5.542 23.071 2.993 29.985 7.4 5.996 17.223 4.54 23.028-2.815 52.984-67.116 129.543-105.826 210.045-106.204l1.213-.002c80.034 0 156.508 37.99 209.813 104.229 5.892 7.322 15.741 8.637 23.029 2.619 8.55-7.06 9.921-21.111 2.739-30.033-22.038-27.373-47.647-50.657-76.117-69.205-3.47-2.261-4.451-6.908-2.19-10.378 2.262-3.47 6.907-4.451 10.378-2.19 29.796 19.412 56.581 43.76 79.612 72.367 12.086 15.011 10.332 38.452-4.846 50.984-13.91 11.485-33.264 8.942-44.291-4.76-50.442-62.683-122.657-98.633-198.126-98.633l-1.141.002c-75.912.357-148.205 36.987-198.344 100.499-10.996 13.93-30.358 16.427-44.219 5.197z"/></g><g><path d="m256.001 464.631c-21.374 0-38.763-17.446-38.763-38.89s17.389-38.89 38.763-38.89 38.763 17.446 38.763 38.89-17.389 38.89-38.763 38.89zm0-62.779c-13.103 0-23.763 10.717-23.763 23.89s10.66 23.89 23.763 23.89 23.763-10.717 23.763-23.89-10.66-23.89-23.763-23.89z"/></g></g></g></svg>