<svg id="Capa_1" enable-background="new 0 0 512 512" height="512" viewBox="0 0 512 512" width="512" xmlns="http://www.w3.org/2000/svg"><g id="_x31_9_recycle_bin"><path d="m91.309 83c0 21.849-1.85-28.827 16.813 416.473.294 7.007 5.736 12.527 12.35 12.527h271.056c6.614 0 12.056-5.521 12.35-12.527 18.693-446.02 16.812-394.606 16.812-416.473z" fill="#7a8c98"/><path d="m291.006 0h-70.012c-10.546 0-19.095 8.549-19.095 19.096v31.158 10.496h108.203v-10.496-31.158c0-10.547-8.55-19.096-19.096-19.096z" fill="#7a8c98"/><path d="m291.006 0h-39.685c10.546 0 19.095 8.549 19.095 19.096v41.654h39.685c0-13.957 0-9.149 0-41.654.001-10.547-8.549-19.096-19.095-19.096z" fill="#596c76"/><g fill="#465a61"><path d="m256 478.444c-9.103 0-16.483-7.38-16.483-16.483v-312.144c0-9.103 7.38-16.483 16.483-16.483 9.103 0 16.483 7.38 16.483 16.483v312.145c0 9.103-7.38 16.482-16.483 16.482z"/><path d="m174.234 478.444c-9.103 0-16.483-7.38-16.483-16.483v-312.144c0-9.103 7.38-16.483 16.483-16.483 9.103 0 16.483 7.38 16.483 16.483v312.145c0 9.103-7.379 16.482-16.483 16.482z"/><path d="m337.766 478.444c-9.103 0-16.483-7.38-16.483-16.483v-312.144c0-9.103 7.38-16.483 16.483-16.483 9.103 0 16.483 7.38 16.483 16.483v312.145c-.001 9.103-7.38 16.482-16.483 16.482z"/></g><path d="m420.69 74.287h-33.011c-2.671 63.82-1.658 39.62-17.817 425.185-.294 7.007-5.736 12.527-12.35 12.527h34.016c6.614 0 12.056-5.521 12.35-12.527 19.17-457.399 16.812-389.224 16.812-425.185z" fill="#596c76"/><path d="m439.681 92.058 1.465-34.958c.156-3.731-2.654-6.846-6.175-6.846h-357.942c-3.521 0-6.331 3.115-6.175 6.846l1.465 34.958c.147 3.503 2.868 6.264 6.175 6.264h355.011c3.308-.001 6.029-2.761 6.176-6.264z" fill="#9facba"/><path d="m434.971 50.254h-39.685c3.521 0 6.331 3.115 6.175 6.846l-1.465 34.958c-.147 3.503-2.868 6.264-6.175 6.264h39.685c3.307 0 6.028-2.76 6.175-6.264l1.465-34.958c.156-3.731-2.654-6.846-6.175-6.846z" fill="#8d9ca8"/></g></svg>