<svg id="Capa_1" enable-background="new 0 0 512 512" height="512" viewBox="0 0 512 512" width="512" xmlns="http://www.w3.org/2000/svg"><g><g><path d="m436.495 470.622h-327.113c-8.85 0-16.024-7.174-16.024-16.024v-431.074c0-8.85 7.174-16.024 16.024-16.024h327.113c8.85 0 16.024 7.174 16.024 16.024v431.074c0 8.85-7.174 16.024-16.024 16.024z" fill="#26a6fe"/><path d="m325.938 43.368-1.99-1.99h-248.444c-8.85 0-16.024 7.174-16.024 16.024v431.074c0 8.85 7.174 16.024 16.024 16.024h327.113c8.85 0 16.024-7.174 16.024-16.024v-352.406z" fill="#d8ecfe"/><g fill="#ffd15b"><path d="m178.557 227.965h31.021v115.888c0 3.134 2.541 5.675 5.675 5.675h50.126c3.134 0 5.675-2.541 5.675-5.675v-115.888h31.021c4.49 0 7.201-4.967 4.773-8.743l-61.759-96.07c-2.234-3.475-7.313-3.475-9.547 0l-61.759 96.07c-2.427 3.776.285 8.743 4.774 8.743z"/><path d="m350.367 295.145h-18.297c-5.523 0-10 4.477-10 10v67.529c0 2.7-2.189 4.889-4.889 4.889h-153.73c-2.7 0-4.889-2.189-4.889-4.889v-67.529c0-5.523-4.477-10-10-10h-18.297c-5.523 0-10 4.477-10 10v95.714c0 8.284 6.716 15 15 15h210.101c8.284 0 15-6.716 15-15v-95.714c.001-5.523-4.476-10-9.999-10z"/></g><g fill="#c4e2ff"><path d="m380.118 97.548v38.522 73.359 279.048c0 8.85-7.174 16.024-16.024 16.024h38.522c8.85 0 16.024-7.174 16.024-16.024v-352.407z"/><path d="m323.949 41.378v78.668c0 8.85 7.174 16.024 16.024 16.024h78.668l-1.99-1.99z"/></g></g><g><path d="m215.253 357.028h50.126c7.265 0 13.175-5.91 13.175-13.175v-108.388h23.521c4.822 0 9.253-2.629 11.563-6.862s2.126-9.381-.481-13.437l-61.759-96.07c-2.436-3.789-6.578-6.051-11.083-6.051-4.504 0-8.646 2.262-11.082 6.05l-61.759 96.07c-2.608 4.056-2.792 9.205-.481 13.438 2.311 4.232 6.741 6.861 11.563 6.861h23.521v108.388c.002 7.266 5.912 13.176 13.176 13.176zm-33.352-136.563 58.416-90.869 58.416 90.869h-27.678c-4.143 0-7.5 3.358-7.5 7.5v114.063h-46.476v-114.063c0-4.142-3.358-7.5-7.5-7.5z"/><path d="m148.563 287.645h-18.297c-9.649 0-17.5 7.851-17.5 17.5v95.714c0 12.407 10.093 22.5 22.5 22.5h210.101c12.406 0 22.5-10.093 22.5-22.5v-95.714c0-9.649-7.851-17.5-17.5-17.5h-18.297c-9.649 0-17.5 7.851-17.5 17.5v64.918h-148.507v-64.918c0-9.649-7.851-17.5-17.5-17.5zm168.618 97.418c6.831 0 12.389-5.558 12.389-12.389v-67.529c0-1.378 1.121-2.5 2.5-2.5h18.297c1.379 0 2.5 1.122 2.5 2.5v95.714c0 4.136-3.364 7.5-7.5 7.5h-210.101c-4.136 0-7.5-3.364-7.5-7.5v-95.714c0-1.378 1.122-2.5 2.5-2.5h18.297c1.378 0 2.5 1.122 2.5 2.5v67.529c0 6.832 5.558 12.389 12.389 12.389z"/><path d="m452.519 69.336c4.143 0 7.5-3.358 7.5-7.5v-38.313c0-12.97-10.552-23.523-23.524-23.523h-327.112c-12.972 0-23.524 10.553-23.524 23.523v10.355h-10.355c-12.971 0-23.523 10.553-23.523 23.523v313.563c0 4.142 3.358 7.5 7.5 7.5s7.5-3.358 7.5-7.5v-313.562c0-4.7 3.824-8.523 8.523-8.523h240.945v71.168c0 12.971 10.553 23.523 23.523 23.523h71.168v344.907c0 4.7-3.823 8.523-8.523 8.523h-327.113c-4.7 0-8.523-3.824-8.523-8.523v-82.512c0-4.142-3.358-7.5-7.5-7.5s-7.5 3.358-7.5 7.5v82.512c0 12.971 10.553 23.523 23.523 23.523h327.113c12.971 0 23.523-10.553 23.523-23.523v-10.355h10.354c12.972 0 23.524-10.553 23.524-23.523v-357.763c0-4.142-3.357-7.5-7.5-7.5s-7.5 3.358-7.5 7.5v357.762c0 4.7-3.824 8.523-8.524 8.523h-10.354c0-.571.006-326.735-.012-327.305-.069-1.984-.906-3.772-2.184-5.05l-94.691-94.691c-1.296-1.296-3.092-2.12-5.058-2.185-.082-.003-.163-.012-.245-.012-5.712 0-218.503 0-223.09 0v-10.355c0-4.7 3.824-8.523 8.524-8.523h327.112c4.7 0 8.524 3.824 8.524 8.523v38.313c-.001 4.143 3.357 7.5 7.499 7.5zm-51.985 59.234h-60.562c-4.7 0-8.523-3.824-8.523-8.523v-60.562z"/></g></g></svg>