<svg id="Capa_1" enable-background="new 0 0 512 512" height="512" viewBox="0 0 512 512" width="512" xmlns="http://www.w3.org/2000/svg"><g><path d="m441.943 477.099h-336.985c-9.117 0-16.507-7.391-16.507-16.507v-444.085c-.001-9.116 7.39-16.507 16.507-16.507h336.986c9.117 0 16.507 7.391 16.507 16.507v444.085c-.001 9.117-7.391 16.507-16.508 16.507z" fill="#26a6fe"/><path d="m328.05 36.95-2.05-2.05h-255.943c-9.117 0-16.507 7.391-16.507 16.507v444.085c0 9.117 7.391 16.507 16.507 16.507h336.986c9.117 0 16.507-7.391 16.507-16.507v-363.042z" fill="#d8ecfe"/><g fill="#ffd15b"><path d="m176.22 227.119h31.958v119.386c0 3.229 2.617 5.846 5.846 5.846h51.639c3.229 0 5.846-2.617 5.846-5.846v-119.386h31.958c4.625 0 7.419-5.117 4.917-9.007l-63.623-98.969c-2.301-3.58-7.534-3.58-9.835 0l-63.623 98.969c-2.501 3.89.292 9.007 4.917 9.007z"/><path d="m358.48 296.326h-29.38c-2.782 0-5.037 2.255-5.037 5.036v74.832c0 2.782-2.255 5.036-5.036 5.036h-158.368c-2.782 0-5.036-2.255-5.036-5.036v-74.832c0-2.782-2.255-5.036-5.036-5.036h-29.379c-2.782 0-5.036 2.255-5.036 5.036v106.73c0 6.954 5.637 12.591 12.591 12.591h222.165c6.954 0 12.591-5.637 12.591-12.591v-106.73c-.002-2.781-2.257-5.036-5.039-5.036z"/></g><g fill="#c4e2ff"><path d="m383.865 92.765v39.685 75.573 287.47c0 9.117-7.391 16.507-16.507 16.507h39.685c9.117 0 16.507-7.391 16.507-16.507v-363.043z"/><path d="m326 34.901v81.042c0 9.117 7.391 16.507 16.507 16.507h81.042l-2.05-2.05z"/></g></g></svg>