<svg id="Capa_1" enable-background="new 0 0 512 512" height="512" viewBox="0 0 512 512" width="512" xmlns="http://www.w3.org/2000/svg"><g><path d="m362.718 470.47h-335.397c-6.794 0-12.321-5.527-12.321-12.321v-404.297c0-6.794 5.527-12.321 12.321-12.321h21.395c4.143 0 7.5-3.358 7.5-7.5s-3.357-7.5-7.5-7.5h-21.395c-15.065-.001-27.321 12.256-27.321 27.321v404.297c0 15.065 12.256 27.321 27.321 27.321h335.396c4.143 0 7.5-3.358 7.5-7.5s-3.357-7.5-7.499-7.5z"/><path d="m484.679 107.08h-6.979v-25.17c0-15.065-12.256-27.321-27.321-27.321h-241.504l-10.877-16.059c-5.09-7.514-13.546-12-22.621-12h-91.661c-4.143 0-7.5 3.358-7.5 7.5s3.357 7.5 7.5 7.5h91.661c4.093 0 7.906 2.023 10.201 5.412 4.994 7.374 42.768 63.145 48.66 71.844 1.396 2.06 3.722 3.294 6.21 3.294h244.23c6.794 0 12.321 5.527 12.321 12.321v323.748c0 6.794-5.527 12.321-12.321 12.321h-86.961c-4.143 0-7.5 3.358-7.5 7.5s3.357 7.5 7.5 7.5h86.961c15.065 0 27.321-12.256 27.321-27.321v-323.748c.001-15.065-12.255-27.321-27.32-27.321zm-240.252 0-25.393-37.491h231.345c6.794 0 12.321 5.527 12.321 12.321v25.17z"/></g></svg>