<svg id="Capa_1" enable-background="new 0 0 512 512" height="512" viewBox="0 0 512 512" width="512" xmlns="http://www.w3.org/2000/svg"><g id="_x32_6_calendar"><path d="m480.579 512h-449.158c-12.517 0-22.664-10.147-22.664-22.664v-305.105h494.487v305.105c-.001 12.517-10.148 22.664-22.665 22.664z" fill="#d8ecfe"/><g fill="#7a8c98"><path d="m217.169 282.484h-39.147c-4.552 0-8.241-3.69-8.241-8.241v-39.147c0-4.552 3.69-8.241 8.241-8.241h39.147c4.552 0 8.241 3.69 8.241 8.241v39.147c.001 4.551-3.689 8.241-8.241 8.241z"/><path d="m333.977 282.484h-39.147c-4.552 0-8.241-3.69-8.241-8.241v-39.147c0-4.552 3.69-8.241 8.241-8.241h39.147c4.552 0 8.241 3.69 8.241 8.241v39.147c.001 4.551-3.689 8.241-8.241 8.241z"/><path d="m450.785 282.484h-39.147c-4.552 0-8.241-3.69-8.241-8.241v-39.147c0-4.552 3.69-8.241 8.241-8.241h39.147c4.552 0 8.241 3.69 8.241 8.241v39.147c.001 4.551-3.689 8.241-8.241 8.241z"/><path d="m217.169 375.93h-39.147c-4.552 0-8.241-3.69-8.241-8.241v-39.147c0-4.552 3.69-8.241 8.241-8.241h39.147c4.552 0 8.241 3.69 8.241 8.241v39.147c.001 4.551-3.689 8.241-8.241 8.241z"/><path d="m333.977 375.93h-39.147c-4.552 0-8.241-3.69-8.241-8.241v-39.147c0-4.552 3.69-8.241 8.241-8.241h39.147c4.552 0 8.241 3.69 8.241 8.241v39.147c.001 4.551-3.689 8.241-8.241 8.241z"/><path d="m450.785 375.93h-39.147c-4.552 0-8.241-3.69-8.241-8.241v-39.147c0-4.552 3.69-8.241 8.241-8.241h39.147c4.552 0 8.241 3.69 8.241 8.241v39.147c.001 4.551-3.689 8.241-8.241 8.241z"/><path d="m100.362 375.93h-39.147c-4.552 0-8.241-3.69-8.241-8.241v-39.147c0-4.552 3.69-8.241 8.241-8.241h39.147c4.552 0 8.241 3.69 8.241 8.241v39.147c0 4.551-3.69 8.241-8.241 8.241z"/><path d="m217.169 469.377h-39.147c-4.552 0-8.241-3.69-8.241-8.241v-39.147c0-4.552 3.69-8.241 8.241-8.241h39.147c4.552 0 8.241 3.69 8.241 8.241v39.147c.001 4.551-3.689 8.241-8.241 8.241z"/><path d="m333.977 469.377h-39.147c-4.552 0-8.241-3.69-8.241-8.241v-39.147c0-4.552 3.69-8.241 8.241-8.241h39.147c4.552 0 8.241 3.69 8.241 8.241v39.147c.001 4.551-3.689 8.241-8.241 8.241z"/><path d="m100.362 469.377h-39.147c-4.552 0-8.241-3.69-8.241-8.241v-39.147c0-4.552 3.69-8.241 8.241-8.241h39.147c4.552 0 8.241 3.69 8.241 8.241v39.147c0 4.551-3.69 8.241-8.241 8.241z"/></g><path d="m459.027 184.231v305.105c0 12.517-10.147 22.664-22.664 22.664h44.217c12.517 0 22.664-10.147 22.664-22.664v-305.105z" fill="#c4e2ff"/><path d="m503.243 184.231h-494.486v-102.032c0-12.517 10.147-22.664 22.664-22.664h449.159c12.517 0 22.664 10.147 22.664 22.664v102.032z" fill="#fe646f"/><path d="m480.579 59.535h-44.217c12.517 0 22.664 10.147 22.664 22.664v102.032h44.217v-102.032c0-12.517-10.147-22.664-22.664-22.664z" fill="#fd4755"/><g fill="#f9b1b1"><path d="m198.622 119.07c-13.152 0-23.814-10.662-23.814-23.814v-71.442c0-13.152 10.661-23.814 23.813-23.814 13.152 0 23.814 10.662 23.814 23.814v71.442c0 13.152-10.661 23.814-23.813 23.814z"/><path d="m83.865 119.07c-13.152 0-23.814-10.662-23.814-23.814v-71.442c0-13.152 10.661-23.814 23.813-23.814 13.152 0 23.814 10.662 23.814 23.814v71.442c0 13.152-10.661 23.814-23.813 23.814z"/><path d="m313.379 119.07c-13.152 0-23.814-10.662-23.814-23.814v-71.442c0-13.152 10.661-23.814 23.813-23.814 13.152 0 23.814 10.662 23.814 23.814v71.442c0 13.152-10.661 23.814-23.813 23.814z"/><path d="m428.136 119.07c-13.152 0-23.814-10.662-23.814-23.814v-71.442c0-13.152 10.661-23.814 23.813-23.814 13.152 0 23.814 10.662 23.814 23.814v71.442c0 13.152-10.661 23.814-23.813 23.814z"/></g></g></svg>