<svg id="Capa_1" enable-background="new 0 0 512 512" height="512" viewBox="0 0 512 512" width="512" xmlns="http://www.w3.org/2000/svg"><g><path d="m415.237 2.05-2.05-2.05h-255.943c-9.117 0-16.507 7.391-16.507 16.507v444.085c0 9.117 7.391 16.507 16.507 16.507h336.986c9.117 0 16.507-7.391 16.507-16.507v-363.042z" fill="#60b7ff"/><path d="m291.048 111.543-17.335-76.642h-255.943c-9.117 0-16.507 7.391-16.507 16.507v444.085c0 9.116 7.39 16.507 16.507 16.507h336.986c9.117 0 16.507-7.391 16.507-16.507v-363.043z" fill="#d8ecfe"/><path d="m471.052 57.865v39.685 98.45 264.592c0 9.117-7.391 16.507-16.507 16.507h39.685c9.117 0 16.507-7.391 16.507-16.507v-363.042z" fill="#26a6fe"/><path d="m413.187 0v81.042c0 9.117 7.391 16.507 16.507 16.507h81.042l-2.05-2.05z" fill="#0593fc"/><path d="m331.578 92.765v39.685 86.693 276.349c0 9.117-7.39 16.507-16.507 16.507h39.685c9.117 0 16.507-7.391 16.507-16.507v-363.042z" fill="#c4e2ff"/><path d="m273.713 34.901v81.042c0 9.117 7.391 16.507 16.507 16.507h81.042l-2.05-2.05z" fill="#c4e2ff"/><path d="m469.176 282.082-89.656-57.636c-3.524-2.266-8.159.265-8.159 4.455v28.951h-99.648c-2.925 0-5.296 2.371-5.296 5.296v46.78c0 2.925 2.371 5.296 5.296 5.296h99.648v28.951c0 4.19 4.635 6.72 8.159 4.455l89.656-57.636c3.243-2.087 3.243-6.827 0-8.912z" fill="#fe646f"/></g></svg>