<svg id="Capa_1" enable-background="new 0 0 512 512" height="512" viewBox="0 0 512 512" width="512" xmlns="http://www.w3.org/2000/svg"><g><path d="m508.578 96.888c-4.166-4.166-90.546-90.545-94.692-94.691-.005-.005-.012-.01-.018-.015-1.284-1.277-3.038-2.104-5.045-2.169-.081-.004-.16-.013-.241-.013h-72.187c-4.143 0-7.5 3.357-7.5 7.5s3.357 7.5 7.5 7.5h64.687v71.168c0 12.971 10.553 23.523 23.523 23.523h71.169v344.906c0 4.7-3.824 8.524-8.524 8.524h-111.865c0-12.647 0-97.505 0-109.11 1.579-.301 3.196-.963 4.481-1.789l21.326-13.709c.007-.004.015-.009.021-.014l65.681-42.224c7.743-4.977 7.736-16.296.001-21.267l-87.035-55.952c-1.234-.792-2.932-1.496-4.476-1.79v-81.196c0-.083-.01-.166-.012-.249-.064-1.966-.871-3.741-2.184-5.055-4.147-4.147-90.527-90.528-94.691-94.692-.003-.003-.007-.005-.01-.008-1.329-1.324-3.135-2.114-5.053-2.176-.081-.003-.16-.012-.241-.012h-121.579v-10.355c0-4.7 3.824-8.523 8.524-8.523h141.258c4.143 0 7.5-3.357 7.5-7.5s-3.357-7.5-7.5-7.5h-141.259c-12.971 0-23.524 10.553-23.524 23.523v10.354h-111.864c-12.971 0-23.523 10.553-23.523 23.524v263.844c0 4.143 3.358 7.5 7.5 7.5s7.5-3.357 7.5-7.5v-263.843c0-4.7 3.824-8.524 8.523-8.524h119.364 121.581v71.169c0 12.971 10.553 23.523 23.523 23.523h71.168v106.727h-89.223c-6.97 0-12.641 5.671-12.641 12.641v45.409c0 6.97 5.671 12.641 12.641 12.641h89.223v38.016 129.474c0 4.7-3.823 8.523-8.523 8.523h-327.113c-4.7 0-8.523-3.823-8.523-8.523v-132.23c0-4.143-3.358-7.5-7.5-7.5s-7.5 3.357-7.5 7.5v132.23c0 12.969 10.553 23.522 23.523 23.522h327.113c12.971 0 23.523-10.553 23.523-23.523v-10.354h111.865c12.972 0 23.524-10.553 23.524-23.524v-352.408c0-1.907-.757-3.863-2.196-5.303zm-83.973-2.197c-4.7 0-8.523-3.823-8.523-8.523v-60.562l69.085 69.085zm-135.387 33.879c-4.7 0-8.523-3.823-8.523-8.523v-60.562l69.085 69.085zm78.673 177.417h-.006-94.363v-40.69h94.363.006c4.143 0 7.5-3.357 7.5-7.5v-23.78l80.307 51.626-80.307 51.625v-23.78c0-4.143-3.357-7.501-7.5-7.501z"/></g></svg>