<svg id="Capa_1" enable-background="new 0 0 512 512" height="512" viewBox="0 0 512 512" width="512" xmlns="http://www.w3.org/2000/svg"><g id="_x33_0_link"><path d="m329.13 16.547-156.909 156.909c-22.062 22.062-22.062 57.961 0 80.024l7.061 7.061 25.105-25.105-7.061-7.061c-8.219-8.219-8.219-21.593 0-29.813l156.909-156.91c8.219-8.219 21.593-8.219 29.813 0l39.227 39.227c8.219 8.219 8.219 21.593 0 29.813l-156.909 156.909c-8.219 8.219-21.593 8.219-29.813 0l-7.061-7.061-25.105 25.105 7.061 7.061c22.062 22.062 57.961 22.062 80.024 0l156.909-156.909c22.062-22.062 22.062-57.961 0-80.024l-39.227-39.227c-22.063-22.062-57.962-22.062-80.024.001z" fill="#7a8c98"/><path d="m307.613 276.565 7.061 7.061c8.219 8.219 8.219 21.593 0 29.813l-156.909 156.909c-8.219 8.219-21.593 8.219-29.813 0l-39.227-39.227c-8.219-8.219-8.219-21.593 0-29.813l156.909-156.909c8.219-8.219 21.593-8.219 29.813 0l7.061 7.061 25.105-25.105-7.061-7.061c-22.062-22.062-57.961-22.062-80.024 0l-156.909 156.908c-22.062 22.062-22.062 57.961 0 80.024l39.227 39.227c22.062 22.062 57.961 22.062 80.024 0l156.909-156.909c22.062-22.062 22.062-57.961 0-80.024l-7.061-7.061z" fill="#d8ecfe"/><g><path d="m236.553 267.601-7.061-7.061-25.105 25.105c7.673 7.673 12.6 13.387 23.028 18.27l31.535-31.535c-7.521 2.849-16.351 1.267-22.397-4.779z" fill="#596c76"/></g><path d="m307.469 276.709.144-.144 7.061 7.061c8.122 8.122 8.203 21.268.274 29.509l36.837-36.837c-2.752-6.461-6.744-12.515-12.006-17.777l-7.061-7.061z" fill="#c4e2ff"/></g></svg>