<svg id="Capa_1" enable-background="new 0 0 512 512" height="512" viewBox="0 0 512 512" width="512" xmlns="http://www.w3.org/2000/svg"><g id="_x33_1_clock"><circle cx="256" cy="256" fill="#0182fc" r="256"/><circle cx="256" cy="256" fill="#d8ecfe" r="211.738"/><g fill="#60b7ff"><ellipse cx="256" cy="92.128" rx="17.5" ry="17.502"/><circle cx="256" cy="419.874" r="17.5"/><circle cx="419.873" cy="256.001" r="17.5"/><circle cx="92.127" cy="256.001" r="17.5"/></g><path d="m333.193 239.577h-77.208c-9.015 0-16.399 6.866-16.811 15.633-.213 4.54 1.392 8.847 4.521 12.126 3.13 3.28 7.35 5.087 11.883 5.087h77.615c9.055 0 16.422-7.367 16.422-16.423s-7.367-16.423-16.422-16.423z" fill="#7a8c98"/><path d="m272 256c0 5.959-3.151 11.432-8.666 14.518-2.351 1.315-5.039 1.905-7.733 1.905h-.024c-.262 0-.526-.007-.791-.019-8.766-.413-15.631-7.797-15.631-16.812v-96.17c0-9.07 7.353-16.422 16.422-16.422 9.07 0 16.422 7.353 16.422 16.422v96.578z" fill="#596c76"/><path d="m256 0c-7.458 0-14.835.338-22.131.963 131.021 11.221 233.869 121.11 233.869 255.037s-102.848 243.816-233.869 255.037c7.296.625 14.673.963 22.131.963 141.385 0 256-114.615 256-256s-114.615-256-256-256z" fill="#0172fb"/></g></svg>