<svg id="Capa_1" enable-background="new 0 0 512.003 512.003" height="512" viewBox="0 0 512.003 512.003" width="512" xmlns="http://www.w3.org/2000/svg"><g><path d="m75.636 428.741c-14.062 0-25.502 11.44-25.502 25.503 0 14.062 11.44 25.501 25.502 25.501s25.502-11.439 25.502-25.501c0-14.063-11.44-25.503-25.502-25.503zm0 36.004c-5.791 0-10.502-4.711-10.502-10.501 0-5.791 4.711-10.503 10.502-10.503s10.502 4.712 10.502 10.503c0 5.79-4.711 10.501-10.502 10.501z"/><path d="m222.814 428.741c-14.063 0-25.503 11.44-25.503 25.503 0 14.062 11.44 25.501 25.503 25.501 14.062 0 25.502-11.439 25.502-25.501 0-14.063-11.44-25.503-25.502-25.503zm0 36.004c-5.792 0-10.503-4.711-10.503-10.501 0-5.791 4.711-10.503 10.503-10.503 5.791 0 10.502 4.712 10.502 10.503 0 5.79-4.711 10.501-10.502 10.501z"/><path d="m483.955 25.929h-63.099c-12.868 0-23.733 8.714-27.022 20.549h-13.017c-14.538 0-26.896 10.396-29.386 24.717l-8.251 47.452h-39.706v-30.763c0-4.143-3.358-7.5-7.5-7.5s-7.5 3.357-7.5 7.5v30.763h-53.438v-37.799c0-12.406-10.093-22.5-22.5-22.5h-73.657v-31.5c0-4.136 3.364-7.5 7.5-7.5h134.595c4.136 0 7.5 3.364 7.5 7.5v26.036c0 4.143 3.358 7.5 7.5 7.5s7.5-3.357 7.5-7.5v-26.036c0-12.406-10.093-22.5-22.5-22.5h-134.595c-12.407 0-22.5 10.094-22.5 22.5v31.5h-48.371c-12.407 0-22.5 10.094-22.5 22.5v37.799h-33.882c-11.368 0-20.282 9.909-19.003 21.246.786 7.034 7.289 65.196 8.778 78.511.46 4.117 4.165 7.089 8.287 6.62 4.116-.46 7.08-4.17 6.62-8.286l-1.381-12.354h43.861v52.604h-37.98l-.611-5.466c-.46-4.117-4.173-7.084-8.287-6.62-4.116.46-7.08 4.17-6.62 8.286 1.674 14.968 6.42 57.418 8.11 72.539 1.083 9.69 9.253 16.997 19.003 16.997h264.628l-4.102 29.773h-264.662c-11.947 0-21.667 9.72-21.667 21.667s9.72 21.668 21.667 21.668h2.813c-10.072 9.72-16.355 23.342-16.355 38.411 0 29.451 23.96 53.412 53.412 53.412s53.412-23.961 53.412-53.412c0-15.07-6.283-28.691-16.355-38.411h73.064c-10.072 9.72-16.355 23.342-16.355 38.411 0 29.451 23.96 53.412 53.412 53.412s53.412-23.961 53.412-53.412c0-15.07-6.283-28.691-16.355-38.411h32.733c9.69 0 17.995-7.239 19.317-16.839l2.476-17.973c0-.001 0-.002 0-.003 7.969-57.835-.747-4.971 51.813-307.252 1.238-7.12 7.381-12.287 14.608-12.287h13.017c3.289 11.834 14.154 20.548 27.022 20.548h63.099c15.466 0 28.048-12.583 28.048-28.049s-12.584-28.048-28.05-28.048zm-417.668 301.794h-26.384c-2.102 0-3.863-1.575-4.096-3.663l-5.822-52.073h36.303v55.736zm47.761 126.52c0 21.181-17.231 38.412-38.412 38.412-21.18 0-38.412-17.231-38.412-38.412 0-21.18 17.231-38.411 38.412-38.411 21.181-.001 38.412 17.231 38.412 38.411zm147.177 0c0 21.181-17.231 38.412-38.412 38.412-21.18 0-38.412-17.231-38.412-38.412 0-21.18 17.231-38.411 38.412-38.411 21.181-.001 38.412 17.231 38.412 38.411zm35.836-57.297c-.306 2.215-2.222 3.886-4.458 3.886h-256.836c-3.676 0-6.667-2.991-6.667-6.668 0-3.676 2.991-6.667 6.667-6.667h262.595c-.47 3.416-1.053 7.646-1.301 9.449zm-230.774-207.563h-45.538l-5.721-51.166c-.018-.154-.026-.312-.026-.468 0-2.262 1.85-4.103 4.124-4.103h47.162v55.737zm1.721-108.535c0-4.136 3.364-7.5 7.5-7.5h55.872 81.157c4.136 0 7.5 3.364 7.5 7.5v37.799h-152.029zm65.897 246.875h-52.618v-55.736h52.618zm0-70.736h-52.618v-52.604h52.618zm0-67.604h-52.618v-55.736h52.618zm67.618 138.34h-52.618v-55.736h52.618zm0-70.736h-52.618v-52.604h52.618zm0-67.604h-52.618v-55.736h52.618zm67.617 138.34h-52.618v-55.736h52.618zm0-70.736h-52.618v-52.604h52.618zm0-67.604h-52.618v-55.736h52.618zm37.672 138.34h-22.672v-55.736h32.227zm12.127-70.736h-34.799v-52.604h43.816zm11.589-67.604h-46.388v-55.736h55.943zm153.427-122.357h-63.099c-7.195 0-13.048-5.854-13.048-13.049 0-7.194 5.854-13.048 13.048-13.048h63.099c7.195 0 13.048 5.854 13.048 13.049 0 7.194-5.853 13.048-13.048 13.048z"/></g></svg>