<svg id="Capa_1" enable-background="new 0 0 512 512" height="512" viewBox="0 0 512 512" width="512" xmlns="http://www.w3.org/2000/svg"><g><path d="m285.149 8.218h-136.595c-8.407 0-15.223 6.816-15.223 15.223v151.37h167.041c0-12.564 0-144.893 0-151.37 0-8.408-6.815-15.223-15.223-15.223z" fill="#0182fc"/><path d="m285.149 8.218h-40.275c8.407 0 15.223 6.816 15.223 15.223v151.37h40.275c0-12.564 0-144.893 0-151.37 0-8.408-6.815-15.223-15.223-15.223z" fill="#0172fb"/><path d="m215.694 63.021h-139.065c-8.407 0-15.223 6.816-15.223 15.223v118.418h169.511c0-52.468 0-65.283 0-118.418 0-8.408-6.816-15.223-15.223-15.223z" fill="#fe646f"/><path d="m215.694 63.021h-40.275c8.407 0 15.223 6.816 15.223 15.223v118.418h40.275c0-52.468 0-65.283 0-118.418 0-8.408-6.816-15.223-15.223-15.223z" fill="#fd4755"/><path d="m7.688 137.321 21.086 188.594c.667 5.97 5.715 10.484 11.722 10.484h277.294l36.376-212.184h-334.757c-7.033.001-12.503 6.116-11.721 13.106z" fill="#d8ecfe"/><path d="m313.89 124.216-36.376 212.183h40.275l36.376-212.183z" fill="#c4e2ff"/><path d="m319.182 381.838 6.126-44.26 46.342-266.523c1.256-7.226 7.491-12.47 14.825-12.47h19.78c4.204 0 7.611-3.407 7.611-7.611s-3.408-7.611-7.611-7.611h-19.78c-14.754 0-27.296 10.55-29.823 25.084l-8.373 48.157h-328.871c-10.702 0-19.408 8.697-19.408 19.387 0 .728.042 1.464.122 2.175l6.553 58.61c0 .005.001.009.002.014l2.354 21.054c.467 4.178 4.226 7.194 8.41 6.719 4.177-.467 7.185-4.232 6.719-8.409l-1.402-12.538h44.512v53.384h-38.544l-.62-5.547c-.467-4.178-4.235-7.189-8.41-6.719-4.177.467-7.185 4.232-6.719 8.409l1.368 12.24c0 .005.001.011.002.016l6.861 61.362c1.1 9.834 9.391 17.25 19.286 17.25h268.561l-7.05 51.166c-.574 4.165 2.337 8.005 6.501 8.579zm-251.912-53.05h-26.776c-2.133 0-3.92-1.599-4.157-3.718l-5.909-52.847h36.842zm0-140.396h-46.215l-5.806-51.926c-.018-.157-.027-.316-.027-.475 0-2.295 1.877-4.164 4.185-4.164h47.863zm68.623 140.396h-53.4v-56.565h53.4zm0-71.788h-53.4v-53.385h53.4zm0-68.608h-53.4v-56.565h53.4zm68.623 140.396h-53.4v-56.565h53.4zm0-71.788h-53.4v-53.385h53.4zm0-68.608h-53.4v-56.565h53.4zm68.622 140.396h-53.4v-56.565h53.4zm0-71.788h-53.4v-53.385h53.4zm0-68.608h-53.4v-56.565h53.4zm38.232 140.396h-23.008v-56.565h32.706zm12.307-71.788h-35.315v-53.385h44.468zm11.762-68.608h-47.078v-56.565h56.775z" fill="#b6c4cf"/><circle cx="76.76" cy="457.188" fill="#465a61" r="46.594"/><path d="m76.759 475.457c-10.074 0-18.27-8.195-18.27-18.269s8.196-18.27 18.27-18.27 18.27 8.196 18.27 18.27-8.196 18.269-18.27 18.269z" fill="#60b7ff"/><circle cx="226.124" cy="457.188" fill="#465a61" r="46.594"/><path d="m226.124 475.457c-10.074 0-18.27-8.195-18.27-18.269s8.196-18.27 18.27-18.27 18.27 8.196 18.27 18.27-8.196 18.269-18.27 18.269z" fill="#60b7ff"/><path d="m309.015 400.078 2.513-18.24h-275.23c-7.941 0-14.378 6.437-14.378 14.378 0 7.941 6.437 14.378 14.378 14.378h260.653c6.083 0 11.234-4.49 12.064-10.516z" fill="#60b7ff"/><path d="m278.907 381.838-2.513 18.24c-.83 6.027-5.981 10.516-12.064 10.516h40.275c6.084 0 11.234-4.489 12.064-10.516l2.513-18.24z" fill="#26a6fe"/><path d="m491.147 71.827h-64.037c-11.517 0-20.853-9.336-20.853-20.853 0-11.517 9.336-20.853 20.853-20.853h64.037c11.517 0 20.853 9.336 20.853 20.853 0 11.517-9.336 20.853-20.853 20.853z" fill="#fe646f"/><path d="m491.147 71.827h-64.037c-11.517 0-20.853-9.336-20.853-20.853 0-11.517 9.336-20.853 20.853-20.853h64.037c11.517 0 20.853 9.336 20.853 20.853 0 11.517-9.336 20.853-20.853 20.853z" fill="#60b7ff"/><path d="m491.147 30.12h-40.275c11.517 0 20.853 9.336 20.853 20.853 0 11.517-9.336 20.853-20.853 20.853h40.275c11.517 0 20.853-9.336 20.853-20.853 0-11.517-9.336-20.853-20.853-20.853z" fill="#26a6fe"/></g></svg>