<svg id="Capa_1" enable-background="new 0 0 512 512" height="512" viewBox="0 0 512 512" width="512" xmlns="http://www.w3.org/2000/svg"><g><path d="m474.5 12.807h-92.781c-4.143 0-7.5 3.357-7.5 7.5s3.357 7.5 7.5 7.5h92.781c12.406 0 22.5 10.094 22.5 22.5v74.538h-482v-74.538c0-12.406 10.094-22.5 22.5-22.5h309.219c4.143 0 7.5-3.357 7.5-7.5s-3.357-7.5-7.5-7.5h-309.219c-20.678 0-37.5 16.822-37.5 37.5v82.038 150.634c0 4.143 3.357 7.5 7.5 7.5s7.5-3.357 7.5-7.5v-143.134h482v321.849c0 12.406-10.094 22.5-22.5 22.5h-437c-12.406 0-22.5-10.094-22.5-22.5v-143.715c0-4.143-3.357-7.5-7.5-7.5s-7.5 3.357-7.5 7.5v143.715c0 20.678 16.822 37.5 37.5 37.5h437c20.678 0 37.5-16.822 37.5-37.5v-329.349-82.038c0-20.678-16.822-37.5-37.5-37.5z"/><path d="m59.733 76.325c0 17.893 14.557 32.449 32.448 32.449 17.893 0 32.449-14.557 32.449-32.449s-14.557-32.448-32.449-32.448c-17.891 0-32.448 14.557-32.448 32.448zm49.898 0c0 9.621-7.828 17.449-17.449 17.449s-17.448-7.828-17.448-17.449 7.827-17.448 17.448-17.448 17.449 7.827 17.449 17.448z"/><path d="m150.536 76.325c0 17.893 14.557 32.449 32.449 32.449s32.448-14.557 32.448-32.449-14.557-32.448-32.449-32.448c-17.891 0-32.448 14.557-32.448 32.448zm49.898 0c0 9.621-7.827 17.449-17.448 17.449h-.001c-9.621 0-17.448-7.828-17.448-17.449s7.828-17.448 17.449-17.448 17.448 7.827 17.448 17.448z"/><path d="m255.295 57.634v37.384c0 8.418 6.849 15.266 15.266 15.266h180.551c8.417 0 15.266-6.848 15.266-15.266v-37.384c0-8.418-6.849-15.266-15.266-15.266h-180.551c-8.417 0-15.266 6.848-15.266 15.266zm196.082 0v37.384c0 .146-.119.266-.266.266h-180.55c-.146 0-.266-.119-.266-.266v-37.384c0-.146.119-.266.266-.266h180.551c.146 0 .265.119.265.266z"/><path d="m92.182 166.193c-12.563 0-22.784 10.222-22.784 22.785v10.404c-13.107.743-23.544 11.639-23.544 24.929s10.437 24.186 23.544 24.929v185.82c0 12.563 10.221 22.784 22.784 22.784s22.785-10.221 22.785-22.784v-185.82c13.107-.744 23.543-11.64 23.543-24.929s-10.436-24.185-23.543-24.929v-10.404c0-12.563-10.222-22.785-22.785-22.785zm-7.785 22.786c0-4.293 3.492-7.785 7.784-7.785 4.293 0 7.785 3.492 7.785 7.785v10.36h-15.569zm15.57 246.081c0 4.292-3.492 7.784-7.785 7.784-4.292 0-7.784-3.492-7.784-7.784v-185.776h15.569zm23.543-210.748c0 5.499-4.474 9.973-9.973 9.973-9.431 0-33.295 0-42.711 0-5.499 0-9.973-4.474-9.973-9.973s4.474-9.973 9.973-9.973h36.641 6.07c5.499 0 9.973 4.474 9.973 9.973z"/><path d="m201.395 166.193c-12.563 0-22.785 10.222-22.785 22.785v98.505c-12.805 1.056-22.904 11.808-22.904 24.88s10.1 23.824 22.904 24.88v97.816c0 12.563 10.222 22.784 22.785 22.784s22.784-10.221 22.784-22.784v-97.744c13.405-.42 24.183-11.448 24.183-24.953s-10.778-24.533-24.183-24.953v-98.432c0-12.562-10.221-22.784-22.784-22.784zm-7.786 22.786c0-4.293 3.492-7.785 7.785-7.785 4.292 0 7.784 3.492 7.784 7.785v98.412h-15.569zm15.57 246.081c0 4.292-3.492 7.784-7.784 7.784-4.293 0-7.785-3.492-7.785-7.784v-97.724h15.569zm24.182-122.697c0 5.499-4.474 9.973-9.973 9.973-8.673 0-34.088 0-42.711 0-5.499 0-9.973-4.474-9.973-9.973s4.474-9.973 9.973-9.973h42.711c5.5.001 9.973 4.474 9.973 9.973z"/><path d="m310.605 166.193c-12.563 0-22.784 10.222-22.784 22.785v169.653c-13.107.744-23.543 11.64-23.543 24.929s10.436 24.185 23.543 24.929v26.57c0 12.563 10.221 22.784 22.784 22.784s22.785-10.221 22.785-22.784v-26.57c13.107-.743 23.544-11.639 23.544-24.929s-10.437-24.186-23.544-24.929v-169.652c.001-12.564-10.221-22.786-22.785-22.786zm-7.784 22.786c0-4.293 3.492-7.785 7.784-7.785 4.293 0 7.785 3.492 7.785 7.785v169.609h-15.569zm15.57 246.081c0 4.292-3.492 7.784-7.785 7.784-4.292 0-7.784-3.492-7.784-7.784v-26.526h15.569zm23.544-51.499c0 5.499-4.474 9.973-9.973 9.973-9.431 0-33.294 0-42.711 0-5.499 0-9.973-4.474-9.973-9.973s4.474-9.973 9.973-9.973h42.711c5.499 0 9.973 4.474 9.973 9.973z"/><path d="m419.818 166.193c-12.563 0-22.785 10.222-22.785 22.785v43.08c-13.107.744-23.543 11.64-23.543 24.929s10.436 24.185 23.543 24.929v153.144c0 12.563 10.222 22.784 22.785 22.784s22.784-10.221 22.784-22.784v-153.144c13.107-.743 23.544-11.639 23.544-24.929s-10.437-24.186-23.544-24.929v-43.08c.001-12.563-10.22-22.785-22.784-22.785zm-7.785 22.786c0-4.293 3.492-7.785 7.785-7.785 4.292 0 7.784 3.492 7.784 7.785v43.035h-15.569zm15.57 246.081c0 4.292-3.492 7.784-7.784 7.784-4.293 0-7.785-3.492-7.785-7.784v-153.1h15.569zm23.543-178.073c0 5.499-4.474 9.973-9.973 9.973-3.65 0-36.945 0-42.711 0-5.499 0-9.973-4.474-9.973-9.973s4.474-9.973 9.973-9.973h42.711c5.5.001 9.973 4.474 9.973 9.973z"/></g></svg>