<svg id="Capa_1" enable-background="new 0 0 512 512" height="512" viewBox="0 0 512 512" width="512" xmlns="http://www.w3.org/2000/svg"><g id="_x33_4_sound_level"><path d="m0 467.901v-360.659h512v360.659c0 17.069-13.837 30.905-30.905 30.905h-450.19c-17.068.001-30.905-13.836-30.905-30.905z" fill="#b6c4cf"/><g fill="#d8ecfe"><path d="m296.508 440.464v-253.509c0-8.696 7.05-15.746 15.746-15.746 8.696 0 15.746 7.05 15.746 15.746v253.509c0 8.696-7.05 15.746-15.746 15.746-8.696 0-15.746-7.05-15.746-15.746z"/><path d="m409.016 440.464v-253.509c0-8.696 7.05-15.746 15.746-15.746 8.696 0 15.746 7.05 15.746 15.746v253.509c0 8.696-7.05 15.746-15.746 15.746-8.696 0-15.746-7.05-15.746-15.746z"/><path d="m184 440.464v-253.509c0-8.696 7.05-15.746 15.746-15.746 8.696 0 15.746 7.05 15.746 15.746v253.509c0 8.696-7.05 15.746-15.746 15.746-8.696 0-15.746-7.05-15.746-15.746z"/><path d="m71.492 440.464v-253.509c0-8.696 7.05-15.746 15.746-15.746 8.696 0 15.746 7.05 15.746 15.746v253.509c0 8.696-7.05 15.746-15.746 15.746-8.696 0-15.746-7.05-15.746-15.746z"/></g><path d="m109.238 241.355h-44c-9.941 0-18-8.059-18-18 0-9.941 8.059-18 18-18h44c9.941 0 18 8.059 18 18 0 9.941-8.059 18-18 18z" fill="#0182fc"/><path d="m222.405 332.064h-44c-9.941 0-18-8.059-18-18 0-9.941 8.059-18 18-18h44c9.941 0 18 8.059 18 18 0 9.941-8.059 18-18 18z" fill="#fe646f"/><path d="m334.254 405.41h-44c-9.941 0-18-8.059-18-18 0-9.941 8.059-18 18-18h44c9.941 0 18 8.059 18 18 0 9.942-8.059 18-18 18z" fill="#0182fc"/><path d="m446.762 275.017h-44c-9.941 0-18-8.059-18-18 0-9.941 8.059-18 18-18h44c9.941 0 18 8.059 18 18 0 9.941-8.059 18-18 18z" fill="#fe646f"/><path d="m465 107.242v360.659c0 17.069-13.837 30.905-30.905 30.905h47c17.069 0 30.905-13.837 30.905-30.905v-360.659z" fill="#9facba"/><path d="m109.238 205.355h-29.202c9.941 0 18 8.059 18 18s-8.059 18-18 18h29.202c9.941 0 18-8.059 18-18s-8.059-18-18-18z" fill="#0172fb"/><path d="m222.405 296.064h-29.202c9.941 0 18 8.059 18 18 0 9.941-8.059 18-18 18h29.202c9.941 0 18-8.059 18-18 0-9.941-8.059-18-18-18z" fill="#fd4755"/><path d="m334.254 369.41h-29.202c9.941 0 18 8.059 18 18 0 9.941-8.059 18-18 18h29.202c9.941 0 18-8.059 18-18 0-9.941-8.059-18-18-18z" fill="#0172fb"/><path d="m446.762 239.017h-29.202c9.941 0 18 8.059 18 18s-8.059 18-18 18h29.202c9.941 0 18-8.059 18-18 0-9.942-8.059-18-18-18z" fill="#fd4755"/><path d="m0 44.099v84.514h512v-84.514c0-17.069-13.837-30.905-30.905-30.905h-450.19c-17.068-.001-30.905 13.836-30.905 30.905z" fill="#596c76"/><path d="m87.238 96.604c-14.195 0-25.702-11.507-25.702-25.701 0-14.195 11.507-25.701 25.701-25.701 14.195 0 25.701 11.507 25.701 25.701.001 14.194-11.506 25.701-25.7 25.701z" fill="#60b7ff"/><path d="m180.781 96.604c-14.195 0-25.702-11.507-25.702-25.701 0-14.195 11.507-25.701 25.701-25.701 14.195 0 25.701 11.507 25.701 25.701.002 14.194-11.505 25.701-25.7 25.701z" fill="#60b7ff"/><path d="m457 98.159h-186c-4.418 0-8-3.582-8-8v-38.512c0-4.418 3.582-8 8-8h186c4.418 0 8 3.582 8 8v38.512c0 4.418-3.582 8-8 8z" fill="#ffd15b"/><path d="m481.095 13.193h-47c17.068 0 30.905 13.837 30.905 30.906v84.514h47v-84.514c0-17.069-13.837-30.906-30.905-30.906z" fill="#465a61"/></g></svg>