<svg id="Capa_1" enable-background="new 0 0 511.938 511.938" height="512" viewBox="0 0 511.938 511.938" width="512" xmlns="http://www.w3.org/2000/svg"><g><g><g><path d="m307.4 79.196c-16.11 0-29.217-13.106-29.217-29.217 0-17.209 14.971-30.78 32.102-29.07 15.032 1.604 26.331 14.099 26.331 29.07 0 16.111-13.106 29.217-29.216 29.217zm-14.216-29.217c0 7.839 6.378 14.217 14.217 14.217s14.216-6.378 14.216-14.217c0-7.284-5.534-13.367-12.873-14.149-8.166-.815-15.56 5.696-15.56 14.149z"/></g></g><g><path d="m475.279 314.148c-17.251 0-30.738-14.843-29.117-31.975.015-.156.034-.311.059-.464 1.744-15.795 15.921-27.368 31.795-25.864 16.035 1.519 27.846 15.804 26.328 31.845-1.444 15.087-13.939 26.458-29.065 26.458zm-14.211-30.235c-.592 8.166 5.836 15.235 14.211 15.235 7.354 0 13.43-5.536 14.132-12.878.737-7.8-5.008-14.753-12.808-15.491-7.813-.743-14.759 5.009-15.497 12.807-.01.109-.023.219-.038.327z"/></g><g><path d="m440.554 214.428c-4.182-15.595 5.053-31.596 20.654-35.778 15.57-4.174 31.618 5.096 35.79 20.656 4.171 15.559-5.095 31.613-20.653 35.789-15.962 4.209-31.707-5.396-35.791-20.667zm24.538-21.29c-7.589 2.035-12.085 9.815-10.05 17.405.001.002.001.004.002.006 1.978 7.402 9.613 12.118 17.441 10.051 7.544-2.025 12.054-9.839 10.024-17.411-2.026-7.562-9.83-12.082-17.417-10.051z"/></g><g><path d="m411.534 153.08c-.001-.001-.001-.002-.002-.002-9.371-13.104-6.343-31.392 6.751-40.767 13.109-9.371 31.393-6.336 40.762 6.762 9.374 13.093 6.347 31.376-6.751 40.755-13.285 9.487-31.471 6.228-40.76-6.748zm12.197-8.73c4.465 6.238 13.29 7.952 19.838 3.277 6.365-4.558 7.839-13.453 3.277-19.824-4.562-6.375-13.456-7.852-19.836-3.292-6.365 4.558-7.839 13.459-3.279 19.839z"/></g><g><path d="m379.108 110.675c-10.801 0-20.675-5.951-25.769-15.532-14.205-26.723 16.975-54.844 42.119-37.908 6.476 4.369 10.859 10.991 12.35 18.65 3.523 18.099-10.391 34.79-28.7 34.79zm-12.523-22.574c2.521 4.742 7.203 7.573 12.523 7.573 13.967 0 19.601-18.152 7.967-26.003-12.132-8.167-27.452 5.336-20.49 18.43z"/></g><g><g><path d="m454.008 389.592c-16.109 0-29.216-13.106-29.216-29.216 0-17.228 14.94-30.765 32.097-29.072 15.048 1.653 26.336 14.148 26.336 29.072 0 16.109-13.107 29.216-29.217 29.216zm-14.216-29.216c0 7.839 6.377 14.216 14.216 14.216s14.217-6.377 14.217-14.216c0-7.38-5.423-13.332-12.896-14.153-8.115-.803-15.537 5.64-15.537 14.153z"/></g></g><g><path d="m262.701 511.938c-4.062 0-7.399-3.243-7.495-7.325-.097-4.141 3.182-7.576 7.323-7.673l.595-.016c59.92-1.674 116.304-25.91 158.764-68.247 5.996-5.977 5.47-15.759-.994-21.074-5.546-4.561-13.794-4.332-19.062.92-39.235 39.13-91.316 60.061-145.321 60.061-115.352 0-208.625-95.416-205.515-211.176.11-4.142 3.567-7.39 7.697-7.297 4.141.11 7.407 3.557 7.297 7.697-2.859 107.154 85.058 195.775 190.521 195.775 50.09 0 98.367-19.416 134.729-55.682 10.842-10.814 27.8-11.242 39.181-1.885 13.313 10.946 14.338 31.038 2.059 43.283-45.181 45.048-105.177 70.838-168.938 72.618l-.663.018c-.06.002-.119.003-.178.003zm-34.911-1.605c-.295 0-.593-.018-.893-.053-188.671-22.358-283.739-241.384-170.946-394.897 23.996-32.659 55.686-59.06 91.93-76.65-4.978-20.408-5.027-19.967-5.027-22.562 0-8.907 7.25-16.153 16.162-16.153 3.65 0-2.875-1.756 94.964 29.907 6.703 2.17 11.207 8.37 11.207 15.43 0 4.264-1.66 8.292-4.676 11.346l-66.439 67.255c-8.88 8.978-24.235 4.793-27.241-7.541l-4.68-19.184c-47.06 26.928-81.264 73.814-92.294 127.168-.838 4.056-4.802 6.66-8.863 5.826-4.057-.839-6.665-4.807-5.826-8.863 6.209-30.033 19.366-58.843 38.047-83.314 18.735-24.541 43.127-44.843 70.538-58.711 4.305-2.18 9.529.226 10.672 4.915l6.979 28.609c.221.906 1.333 1.226 2 .551l66.437-67.252c.624-.632.377-1.686-.479-1.963l-89.945-29.108c-.144-.047-.278-.07-.399-.07-.587 0-1.162.571-1.162 1.153 0 .1.015.211.045.332l6.008 24.633c.854 3.501-.902 7.115-4.184 8.605-36.265 16.476-67.968 42.245-91.684 74.522-106.234 144.588-16.101 350.179 160.622 371.12 4.113.487 7.053 4.218 6.565 8.331-.452 3.813-3.691 6.618-7.438 6.618z"/></g></g></svg>