<svg id="Capa_1" enable-background="new 0 0 511.938 511.938" height="512" viewBox="0 0 511.938 511.938" width="512" xmlns="http://www.w3.org/2000/svg"><g><g id="_x33_5_loading"><g><g><path d="m307.4 71.696c-12.195 0-21.717-9.947-21.717-21.717 0-12.804 11.15-22.877 23.855-21.607 11.289 1.203 19.578 10.525 19.578 21.607.001 11.775-9.516 21.717-21.716 21.717z" fill="#c4e2ff"/></g></g><path d="m453.629 282.88h.011c1.129-11.934 11.727-20.695 23.671-19.567 11.934 1.129 20.697 11.728 19.567 23.672-1.075 11.238-10.533 19.664-21.598 19.664-12.895-.001-22.852-11.069-21.651-23.769z" fill="#26a6fe"/><path d="m447.798 212.485c-3.106-11.586 3.768-23.486 15.353-26.592 11.586-3.105 23.498 3.769 26.603 15.354 3.106 11.586-3.778 23.497-15.353 26.603-1.89.499-3.779.738-5.636.738-9.599 0-18.373-6.395-20.967-16.103z" fill="#60b7ff"/><path d="m417.633 148.715c-6.982-9.762-4.734-23.324 5.017-30.306 9.751-6.971 23.312-4.735 30.295 5.027 6.982 9.75 4.734 23.312-5.017 30.294-3.833 2.737-8.241 4.061-12.617 4.061-6.776.001-13.443-3.159-17.678-9.076z" fill="#8ac9fe"/><path d="m361.126 69.319c6.699-9.946 20.197-12.563 30.143-5.864 9.945 6.71 12.573 20.208 5.863 30.142-4.191 6.222-11.043 9.577-18.024 9.577-17.245.001-27.744-19.386-17.982-33.855z" fill="#b3dafe"/><g><path d="m454.008 382.092c-11.949 0-21.717-9.721-21.717-21.717 0-12.83 11.131-22.87 23.856-21.608 11.484 1.262 19.577 10.669 19.577 21.608.001 11.701-9.489 21.717-21.716 21.717z" fill="#0593fc"/></g><path d="m425.657 401.81c-8.624-7.091-21.215-6.482-29.121 1.402-35.643 35.546-83.642 56.375-134.416 57.793-109.226 3.052-200.569-83.327-203.62-192.553-2.167-77.584 41.223-148.317 108.637-182.424l6.979 28.61c1.611 6.605 9.841 8.882 14.619 4.046l66.44-67.254c4.545-4.601 2.648-12.378-3.505-14.37l-89.946-29.108c-6.468-2.093-12.725 3.719-11.114 10.323l6.01 24.638c-87.355 39.688-144.274 128.737-141.536 226.752 3.728 133.477 114.759 238.486 248.249 234.757 61.895-1.729 120.404-27.112 163.851-70.433 9.1-9.073 8.4-24.017-1.527-32.179z" fill="#0182fc"/><path d="m474.819 263.224c2.101 3.728 3.129 8.112 2.695 12.696-1.062 11.1-10.306 19.442-21.196 19.645 3.698 6.568 10.728 11.084 18.961 11.084 11.065 0 20.523-8.426 21.598-19.664 1.215-12.847-8.99-24.015-22.058-23.761z" fill="#0593fc"/><path d="m489.754 201.247c-2.64-9.851-11.648-16.291-21.408-16.091 8.016 14.272-2.057 32.022-18.507 32.353 3.828 6.828 11.102 11.079 18.925 11.079 1.857 0 3.746-.238 5.636-.738 11.575-3.106 18.46-15.017 15.354-26.603z" fill="#26a6fe"/><path d="m452.945 123.437c-4.329-6.052-11.188-9.205-18.099-9.071 8.071 14.303-2.153 32.031-18.481 32.345 3.998 7.101 11.329 11.08 18.946 11.08 17.515.001 27.951-19.946 17.634-34.354z" fill="#60b7ff"/><path d="m391.27 63.455c-3.863-2.602-8.26-3.782-12.588-3.69 3.889 6.931 3.837 15.737-.912 22.767-4.093 6.077-10.725 9.41-17.536 9.563 3.625 6.434 10.438 11.079 18.875 11.079 6.982 0 13.834-3.355 18.024-9.577 6.709-9.934 4.082-23.432-5.863-30.142z" fill="#8ac9fe"/><path d="m456.148 338.767c-.87-.086-1.732-.115-2.584-.098 1.786 3.173 2.798 6.808 2.798 10.642 0 11.558-9.262 21.466-21.274 21.705 3.733 6.61 10.824 11.076 18.921 11.076 12.227 0 21.717-10.016 21.717-21.717-.001-10.939-8.094-20.346-19.578-21.608z" fill="#0182fc"/><g><path d="m425.657 401.81c-4.313-3.546-9.617-5.166-14.831-4.914 4.975 8.295 3.975 19.312-3.307 26.574-43.447 43.32-101.956 68.704-163.851 70.432-39.572 1.105-77.17-7.347-110.584-23.262 38.013 22.634 82.703 35.109 130.248 33.781 61.895-1.729 120.404-27.112 163.851-70.433 9.101-9.072 8.401-24.016-1.526-32.178z" fill="#0172fb"/></g></g><g><g><g><path d="m307.4 79.196c-16.11 0-29.217-13.106-29.217-29.217 0-17.209 14.971-30.78 32.102-29.07 15.032 1.604 26.331 14.099 26.331 29.07 0 16.111-13.106 29.217-29.216 29.217zm-14.216-29.217c0 7.839 6.378 14.217 14.217 14.217s14.216-6.378 14.216-14.217c0-7.284-5.534-13.367-12.873-14.149-8.166-.815-15.56 5.696-15.56 14.149z"/></g></g><g><path d="m475.279 314.148c-17.251 0-30.738-14.843-29.117-31.975.015-.156.034-.311.059-.464 1.744-15.795 15.921-27.368 31.795-25.864 16.035 1.519 27.846 15.804 26.328 31.845-1.444 15.087-13.939 26.458-29.065 26.458zm-14.211-30.235c-.592 8.166 5.836 15.235 14.211 15.235 7.354 0 13.43-5.536 14.132-12.878.737-7.8-5.008-14.753-12.808-15.491-7.813-.743-14.759 5.009-15.497 12.807-.01.109-.023.219-.038.327z"/></g><g><path d="m440.554 214.428c-4.182-15.595 5.053-31.596 20.654-35.778 15.57-4.174 31.618 5.096 35.79 20.656 4.171 15.559-5.095 31.613-20.653 35.789-15.962 4.209-31.707-5.396-35.791-20.667zm24.538-21.29c-7.589 2.035-12.085 9.815-10.05 17.405.001.002.001.004.002.006 1.978 7.402 9.613 12.118 17.441 10.051 7.544-2.025 12.054-9.839 10.024-17.411-2.026-7.562-9.83-12.082-17.417-10.051z"/></g><g><path d="m411.534 153.08c-.001-.001-.001-.002-.002-.002-9.371-13.104-6.343-31.392 6.751-40.767 13.109-9.371 31.393-6.336 40.762 6.762 9.374 13.093 6.347 31.376-6.751 40.755-13.285 9.487-31.471 6.228-40.76-6.748zm12.197-8.73c4.465 6.238 13.29 7.952 19.838 3.277 6.365-4.558 7.839-13.453 3.277-19.824-4.562-6.375-13.456-7.852-19.836-3.292-6.365 4.558-7.839 13.459-3.279 19.839z"/></g><g><path d="m379.108 110.675c-10.801 0-20.675-5.951-25.769-15.532-14.205-26.723 16.975-54.844 42.119-37.908 6.476 4.369 10.859 10.991 12.35 18.65 3.523 18.099-10.391 34.79-28.7 34.79zm-12.523-22.574c2.521 4.742 7.203 7.573 12.523 7.573 13.967 0 19.601-18.152 7.967-26.003-12.132-8.167-27.452 5.336-20.49 18.43z"/></g><g><g><path d="m454.008 389.592c-16.109 0-29.216-13.106-29.216-29.216 0-17.228 14.94-30.765 32.097-29.072 15.048 1.653 26.336 14.148 26.336 29.072 0 16.109-13.107 29.216-29.217 29.216zm-14.216-29.216c0 7.839 6.377 14.216 14.216 14.216s14.217-6.377 14.217-14.216c0-7.38-5.423-13.332-12.896-14.153-8.115-.803-15.537 5.64-15.537 14.153z"/></g></g><g><path d="m262.701 511.938c-4.062 0-7.399-3.243-7.495-7.325-.097-4.141 3.182-7.576 7.323-7.673l.595-.016c59.92-1.674 116.304-25.91 158.764-68.247 5.996-5.977 5.47-15.759-.994-21.074-5.546-4.561-13.794-4.332-19.062.92-39.235 39.13-91.316 60.061-145.321 60.061-115.352 0-208.625-95.416-205.515-211.176.11-4.142 3.567-7.39 7.697-7.297 4.141.11 7.407 3.557 7.297 7.697-2.859 107.154 85.058 195.775 190.521 195.775 50.09 0 98.367-19.416 134.729-55.682 10.842-10.814 27.8-11.242 39.181-1.885 13.313 10.946 14.338 31.038 2.059 43.283-45.181 45.048-105.177 70.838-168.938 72.618l-.663.018c-.06.002-.119.003-.178.003zm-34.911-1.605c-.295 0-.593-.018-.893-.053-188.671-22.358-283.739-241.384-170.946-394.897 23.996-32.659 55.686-59.06 91.93-76.65-4.978-20.408-5.027-19.967-5.027-22.562 0-8.907 7.25-16.153 16.162-16.153 3.65 0-2.875-1.756 94.964 29.907 6.703 2.17 11.207 8.37 11.207 15.43 0 4.264-1.66 8.292-4.676 11.346l-66.439 67.255c-8.88 8.978-24.235 4.793-27.241-7.541l-4.68-19.184c-47.06 26.928-81.264 73.814-92.294 127.168-.838 4.056-4.802 6.66-8.863 5.826-4.057-.839-6.665-4.807-5.826-8.863 6.209-30.033 19.366-58.843 38.047-83.314 18.735-24.541 43.127-44.843 70.538-58.711 4.305-2.18 9.529.226 10.672 4.915l6.979 28.609c.221.906 1.333 1.226 2 .551l66.437-67.252c.624-.632.377-1.686-.479-1.963l-89.945-29.108c-.144-.047-.278-.07-.399-.07-.587 0-1.162.571-1.162 1.153 0 .1.015.211.045.332l6.008 24.633c.854 3.501-.902 7.115-4.184 8.605-36.265 16.476-67.968 42.245-91.684 74.522-106.234 144.588-16.101 350.179 160.622 371.12 4.113.487 7.053 4.218 6.565 8.331-.452 3.813-3.691 6.618-7.438 6.618z"/></g></g></g></svg>