<svg id="Capa_1" enable-background="new 0 0 512 512" height="512" viewBox="0 0 512 512" width="512" xmlns="http://www.w3.org/2000/svg"><g><g id="_x33_7_menu"><path d="m441.272 504.5h-370.544c-9.745 0-17.645-7.9-17.645-17.645v-461.71c0-9.745 7.9-17.645 17.645-17.645h370.544c9.745 0 17.645 7.9 17.645 17.645v461.71c0 9.745-7.9 17.645-17.645 17.645z" fill="#d8ecfe"/><g fill="#7a8c98"><path d="m381.279 130.997h-189.458c-10.395 0-18.821-8.427-18.821-18.821 0-10.395 8.427-18.821 18.821-18.821h189.458c10.395 0 18.821 8.427 18.821 18.821.001 10.394-8.426 18.821-18.821 18.821z"/><path d="m381.279 231.031h-189.458c-10.395 0-18.821-8.427-18.821-18.821 0-10.395 8.427-18.821 18.821-18.821h189.458c10.395 0 18.821 8.427 18.821 18.821.001 10.395-8.426 18.821-18.821 18.821z"/><path d="m381.279 331.066h-189.458c-10.395 0-18.821-8.427-18.821-18.821 0-10.395 8.427-18.821 18.821-18.821h189.458c10.395 0 18.821 8.427 18.821 18.821.001 10.394-8.426 18.821-18.821 18.821z"/><path d="m381.279 431.1h-189.458c-10.395 0-18.821-8.427-18.821-18.821 0-10.395 8.427-18.821 18.821-18.821h189.458c10.395 0 18.821 8.427 18.821 18.821.001 10.395-8.426 18.821-18.821 18.821z"/><circle cx="130.721" cy="112.175" r="18.821"/><circle cx="130.721" cy="212.21" r="18.821"/><circle cx="130.721" cy="312.244" r="18.821"/><circle cx="130.721" cy="412.279" r="18.821"/></g><path d="m441.272 7.5h-38.522c9.745 0 17.645 7.9 17.645 17.645v461.71c0 9.745-7.9 17.645-17.645 17.645h38.522c9.745 0 17.645-7.9 17.645-17.645v-461.71c0-9.745-7.9-17.645-17.645-17.645z" fill="#c4e2ff"/></g><g><g><path d="m441.272 512h-370.544c-13.865 0-25.145-11.279-25.145-25.145v-68.729c0-4.143 3.358-7.5 7.5-7.5s7.5 3.357 7.5 7.5v68.729c0 5.594 4.551 10.145 10.145 10.145h370.544c5.594 0 10.145-4.551 10.145-10.145v-393.691c0-4.143 3.358-7.5 7.5-7.5s7.5 3.357 7.5 7.5v393.691c0 13.866-11.28 25.145-25.145 25.145zm-388.189-121.373c-4.142 0-7.5-3.357-7.5-7.5v-357.982c0-13.866 11.28-25.145 25.145-25.145h370.544c13.865 0 25.145 11.279 25.145 25.145v33.02c0 4.143-3.358 7.5-7.5 7.5s-7.5-3.357-7.5-7.5v-33.02c0-5.594-4.551-10.145-10.145-10.145h-370.544c-5.594 0-10.145 4.551-10.145 10.145v357.982c0 4.143-3.358 7.5-7.5 7.5z"/></g><g><path d="m381.279 138.497h-189.458c-14.514 0-26.321-11.808-26.321-26.321s11.808-26.321 26.321-26.321h189.458c14.514 0 26.321 11.808 26.321 26.321s-11.807 26.321-26.321 26.321zm-189.458-37.643c-6.243 0-11.321 5.079-11.321 11.321s5.079 11.321 11.321 11.321h189.458c6.243 0 11.321-5.079 11.321-11.321s-5.079-11.321-11.321-11.321z"/></g><g><path d="m381.279 238.531h-189.458c-14.514 0-26.321-11.808-26.321-26.321s11.808-26.321 26.321-26.321h189.458c14.514 0 26.321 11.808 26.321 26.321s-11.807 26.321-26.321 26.321zm-189.458-37.642c-6.243 0-11.321 5.079-11.321 11.321s5.079 11.321 11.321 11.321h189.458c6.243 0 11.321-5.079 11.321-11.321s-5.079-11.321-11.321-11.321z"/></g><g><path d="m381.279 338.565h-189.458c-14.514 0-26.321-11.808-26.321-26.321s11.808-26.321 26.321-26.321h189.458c14.514 0 26.321 11.808 26.321 26.321s-11.807 26.321-26.321 26.321zm-189.458-37.642c-6.243 0-11.321 5.079-11.321 11.321s5.079 11.321 11.321 11.321h189.458c6.243 0 11.321-5.079 11.321-11.321s-5.079-11.321-11.321-11.321z"/></g><g><path d="m381.279 438.601h-189.458c-14.514 0-26.321-11.808-26.321-26.321s11.808-26.321 26.321-26.321h189.458c14.514 0 26.321 11.808 26.321 26.321s-11.807 26.321-26.321 26.321zm-189.458-37.643c-6.243 0-11.321 5.079-11.321 11.321s5.079 11.321 11.321 11.321h189.458c6.243 0 11.321-5.079 11.321-11.321s-5.079-11.321-11.321-11.321z"/></g><g><path d="m130.721 138.497c-14.514 0-26.321-11.808-26.321-26.321s11.808-26.321 26.321-26.321 26.321 11.808 26.321 26.321-11.808 26.321-26.321 26.321zm0-37.643c-6.243 0-11.321 5.079-11.321 11.321s5.079 11.321 11.321 11.321 11.321-5.079 11.321-11.321-5.079-11.321-11.321-11.321z"/></g><g><path d="m130.721 238.531c-14.514 0-26.321-11.808-26.321-26.321s11.808-26.321 26.321-26.321 26.321 11.808 26.321 26.321-11.808 26.321-26.321 26.321zm0-37.642c-6.243 0-11.321 5.079-11.321 11.321s5.079 11.321 11.321 11.321 11.321-5.079 11.321-11.321-5.079-11.321-11.321-11.321z"/></g><g><path d="m130.721 338.565c-14.514 0-26.321-11.808-26.321-26.321s11.808-26.321 26.321-26.321 26.321 11.808 26.321 26.321-11.808 26.321-26.321 26.321zm0-37.642c-6.243 0-11.321 5.079-11.321 11.321s5.079 11.321 11.321 11.321 11.321-5.079 11.321-11.321-5.079-11.321-11.321-11.321z"/></g><g><path d="m130.721 438.601c-14.514 0-26.321-11.808-26.321-26.321s11.808-26.321 26.321-26.321 26.321 11.808 26.321 26.321-11.808 26.321-26.321 26.321zm0-37.643c-6.243 0-11.321 5.079-11.321 11.321s5.079 11.321 11.321 11.321 11.321-5.079 11.321-11.321-5.079-11.321-11.321-11.321z"/></g></g></g></svg>