<svg id="Capa_1" enable-background="new 0 0 512 512" height="512" viewBox="0 0 512 512" width="512" xmlns="http://www.w3.org/2000/svg"><g><path d="m458.917 85.664c-4.142 0-7.5 3.357-7.5 7.5v393.691c0 5.594-4.551 10.145-10.145 10.145h-370.544c-5.594 0-10.145-4.551-10.145-10.145v-68.729c0-4.143-3.358-7.5-7.5-7.5s-7.5 3.357-7.5 7.5v68.729c0 13.865 11.28 25.145 25.145 25.145h370.544c13.865 0 25.145-11.279 25.145-25.145v-393.691c0-4.143-3.358-7.5-7.5-7.5z"/><path d="m441.272 0h-370.544c-13.865 0-25.145 11.279-25.145 25.145v357.982c0 4.143 3.358 7.5 7.5 7.5s7.5-3.357 7.5-7.5v-357.982c0-5.594 4.551-10.145 10.145-10.145h370.544c5.594 0 10.145 4.551 10.145 10.145v33.02c0 4.143 3.358 7.5 7.5 7.5s7.5-3.357 7.5-7.5v-33.02c0-13.866-11.28-25.145-25.145-25.145z"/><path d="m194.656 138.497h189.458c14.514 0 26.321-11.808 26.321-26.321s-11.808-26.321-26.321-26.321h-189.458c-14.514 0-26.321 11.808-26.321 26.321s11.807 26.321 26.321 26.321zm0-37.643h189.458c6.243 0 11.321 5.079 11.321 11.321s-5.079 11.321-11.321 11.321h-189.458c-6.243 0-11.321-5.079-11.321-11.321s5.078-11.321 11.321-11.321z"/><path d="m194.656 238.531h189.458c14.514 0 26.321-11.808 26.321-26.321s-11.808-26.321-26.321-26.321h-189.458c-14.514 0-26.321 11.808-26.321 26.321s11.807 26.321 26.321 26.321zm0-37.642h189.458c6.243 0 11.321 5.079 11.321 11.321s-5.079 11.321-11.321 11.321h-189.458c-6.243 0-11.321-5.079-11.321-11.321s5.078-11.321 11.321-11.321z"/><path d="m194.656 338.565h189.458c14.514 0 26.321-11.808 26.321-26.321s-11.808-26.321-26.321-26.321h-189.458c-14.514 0-26.321 11.808-26.321 26.321s11.807 26.321 26.321 26.321zm0-37.642h189.458c6.243 0 11.321 5.079 11.321 11.321s-5.079 11.321-11.321 11.321h-189.458c-6.243 0-11.321-5.079-11.321-11.321s5.078-11.321 11.321-11.321z"/><path d="m194.656 438.601h189.458c14.514 0 26.321-11.808 26.321-26.321s-11.808-26.321-26.321-26.321h-189.458c-14.514 0-26.321 11.808-26.321 26.321s11.807 26.321 26.321 26.321zm0-37.643h189.458c6.243 0 11.321 5.079 11.321 11.321s-5.079 11.321-11.321 11.321h-189.458c-6.243 0-11.321-5.079-11.321-11.321s5.078-11.321 11.321-11.321z"/><path d="m127.886 138.497c14.514 0 26.321-11.808 26.321-26.321s-11.807-26.322-26.321-26.322-26.321 11.808-26.321 26.321 11.808 26.322 26.321 26.322zm0-37.643c6.243 0 11.321 5.079 11.321 11.321s-5.079 11.321-11.321 11.321-11.321-5.079-11.321-11.321 5.079-11.321 11.321-11.321z"/><path d="m127.886 238.531c14.514 0 26.321-11.808 26.321-26.321s-11.808-26.321-26.321-26.321-26.321 11.808-26.321 26.321 11.808 26.321 26.321 26.321zm0-37.642c6.243 0 11.321 5.079 11.321 11.321s-5.079 11.321-11.321 11.321-11.321-5.079-11.321-11.321 5.079-11.321 11.321-11.321z"/><path d="m127.886 338.565c14.514 0 26.321-11.808 26.321-26.321s-11.808-26.321-26.321-26.321-26.321 11.808-26.321 26.321 11.808 26.321 26.321 26.321zm0-37.642c6.243 0 11.321 5.079 11.321 11.321s-5.079 11.321-11.321 11.321-11.321-5.079-11.321-11.321 5.079-11.321 11.321-11.321z"/><path d="m127.886 438.601c14.514 0 26.321-11.808 26.321-26.321s-11.808-26.321-26.321-26.321-26.321 11.808-26.321 26.321 11.808 26.321 26.321 26.321zm0-37.643c6.243 0 11.321 5.079 11.321 11.321s-5.079 11.321-11.321 11.321-11.321-5.079-11.321-11.321 5.079-11.321 11.321-11.321z"/></g></svg>