<svg id="Capa_1" enable-background="new 0 0 512 512" height="512" viewBox="0 0 512 512" width="512" xmlns="http://www.w3.org/2000/svg"><g id="_x33_7_menu"><path d="m446.864 512h-381.728c-10.039 0-18.178-8.138-18.178-18.178v-475.644c.001-10.04 8.139-18.178 18.178-18.178h381.728c10.039 0 18.178 8.138 18.178 18.178v475.645c-.001 10.039-8.139 18.177-18.178 18.177z" fill="#d8ecfe"/><g fill="#7a8c98"><path d="m385.06 127.224h-195.176c-10.708 0-19.389-8.681-19.389-19.389 0-10.708 8.681-19.389 19.389-19.389h195.176c10.708 0 19.389 8.681 19.389 19.389.001 10.708-8.68 19.389-19.389 19.389z"/><path d="m385.06 230.278h-195.176c-10.708 0-19.389-8.681-19.389-19.389 0-10.708 8.681-19.389 19.389-19.389h195.176c10.708 0 19.389 8.681 19.389 19.389.001 10.708-8.68 19.389-19.389 19.389z"/><path d="m385.06 333.331h-195.176c-10.708 0-19.389-8.681-19.389-19.389 0-10.708 8.681-19.389 19.389-19.389h195.176c10.708 0 19.389 8.681 19.389 19.389.001 10.708-8.68 19.389-19.389 19.389z"/><path d="m385.06 436.385h-195.176c-10.708 0-19.389-8.681-19.389-19.389 0-10.708 8.681-19.389 19.389-19.389h195.176c10.708 0 19.389 8.681 19.389 19.389.001 10.708-8.68 19.389-19.389 19.389z"/><circle cx="126.94" cy="107.835" r="19.389"/><circle cx="126.94" cy="210.888" r="19.389"/><circle cx="126.94" cy="313.942" r="19.389"/><circle cx="126.94" cy="416.996" r="19.389"/></g><path d="m446.864 0h-39.685c10.039 0 18.177 8.138 18.177 18.177v475.645c0 10.039-8.138 18.177-18.177 18.177h39.685c10.039 0 18.177-8.138 18.177-18.177v-475.645c0-10.039-8.138-18.177-18.177-18.177z" fill="#c4e2ff"/></g></svg>