<svg id="Capa_1" enable-background="new 0 0 509.799 509.799" height="512" viewBox="0 0 509.799 509.799" width="512" xmlns="http://www.w3.org/2000/svg"><g><path d="m285.31 50.989c-3.887 0-7.657 1.193-10.9 3.451l-138.404 96.312h-98.929c-20.444 0-37.077 16.633-37.077 37.077v68.899c0 4.143 3.358 7.5 7.5 7.5s7.5-3.357 7.5-7.5v-68.899c0-12.174 9.904-22.077 22.077-22.077h93.78v178.295h-93.78c-12.173 0-22.077-9.903-22.077-22.077v-30.241c0-4.143-3.358-7.5-7.5-7.5s-7.5 3.357-7.5 7.5v30.241c0 20.444 16.633 37.077 37.077 37.077h98.928l138.404 96.312c3.246 2.259 7.015 3.452 10.9 3.452 10.582 0 19.19-8.601 19.19-19.173v-223.974c0-4.143-3.358-7.5-7.5-7.5s-7.5 3.357-7.5 7.5v223.974c0 2.878-2.45 4.173-4.19 4.173-.819 0-1.604-.257-2.333-.765l-137.119-95.417v-185.459l137.12-95.418c.728-.506 1.512-.763 2.332-.763 1.74 0 4.19 1.294 4.19 4.172v110.503c0 4.143 3.358 7.5 7.5 7.5s7.5-3.357 7.5-7.5v-110.503c.001-10.571-8.608-19.172-19.189-19.172z"/><path d="m369.098 302.259c11.638-13.264 18.048-29.927 18.048-46.919l-.001-.326c-.08-17.111-6.647-33.83-18.49-47.073-9.234-10.33-26.651-10.097-35.581.927-6.583 8.128-5.922 19.151.708 26.669 5.003 5.673 7.665 12.482 7.7 19.719v.108c0 7.158-2.599 13.944-7.514 19.625-6.59 7.614-7.087 18.644-.458 26.675 8.988 10.884 26.405 11.063 35.588.595zm-24.02-10.146c-1.844-2.233-1.695-5.081.233-7.31 7.204-8.325 11.172-18.78 11.172-29.44v-.207c-.051-10.735-4.117-21.227-11.449-29.542-1.957-2.219-2.117-5.066-.302-7.306 2.989-3.691 9.541-3.953 12.743-.371 9.535 10.663 14.608 23.508 14.672 37.187v.216c0 13.544-4.953 26.347-14.324 37.026-3.172 3.615-9.725 3.405-12.745-.253z"/><path d="m448.472 255.467-.001-.566c-.169-35.968-16.102-69.421-44.864-94.195-4.222-3.637-9.708-5.64-15.448-5.64-7.197 0-13.814 3.062-18.166 8.403-.016.02-.032.039-.048.059-7.25 8.946-5.709 21.362 2.854 28.762 19.239 16.625 29.896 38.937 30.009 62.815l.001.386c0 23.744-10.447 46.021-29.417 62.725-8.451 7.44-9.939 19.843-2.615 28.749.013.016.025.031.038.047 8.31 10.063 23.949 11.038 33.679 2.499 28.36-24.895 43.978-58.293 43.978-94.044zm-53.872 82.768c-3.489 3.061-9.384 2.624-12.199-.752-.009-.012-.019-.023-.028-.034-2.107-2.551-1.562-5.782.932-7.977 22.251-19.593 34.505-45.867 34.505-73.982l-.001-.447c-.133-28.286-12.634-54.604-35.201-74.104-2.492-2.152-3.096-5.359-1.031-7.939.011-.013.022-.026.033-.04 1.468-1.813 3.917-2.895 6.551-2.895 2.148 0 4.157.712 5.658 2.005 25.422 21.898 39.505 51.34 39.653 82.889l.001.508c-.001 31.37-13.806 60.765-38.873 82.768z"/><path d="m509.797 254.785c-.251-53.508-25.954-104.381-70.516-139.575-9.816-7.752-24.855-6.416-32.86 3.465 0 0-.012.014-.012.015-7.37 9.1-5.791 21.94 3.403 29.2 34.33 27.102 54.129 66.142 54.322 107.108l.001.617c0 40.731-19.432 79.729-53.314 106.994-9.201 7.406-10.491 20.314-3.189 29.156.024.03.049.061.073.09 8.131 9.846 23.194 10.965 32.89 3.157 43.98-35.408 69.204-86.225 69.204-139.421zm-78.609 128.544c-3.567 2.871-9.26 2.192-11.855-.949-.024-.029-.048-.06-.073-.089-2.076-2.515-1.717-5.837.965-7.996 37.438-30.127 58.91-73.384 58.91-118.68l-.001-.687c-.214-45.561-22.093-88.866-60.026-118.812-2.79-2.203-3.015-5.55-1.074-7.947l.011-.014c.011-.014.021-.026.032-.04 2.708-3.342 8.391-3.913 11.907-1.135 40.96 32.35 64.583 78.957 64.813 127.882l.002.729c0 48.633-23.185 95.192-63.611 127.738z"/></g></svg>