<svg id="Capa_1" enable-background="new 0 0 512 512" height="512" viewBox="0 0 512 512" width="512" xmlns="http://www.w3.org/2000/svg"><g id="_x34_3_search"><path d="m146.03 264.907h52.162v149.964h-52.162z" fill="#8d9ca8" transform="matrix(.707 .707 -.707 .707 290.748 -22.15)"/><path d="m12.986 499.014c-17.315-17.315-17.315-45.388 0-62.703l118.645-118.645c6.451-6.451 16.909-6.451 23.36 0l39.343 39.343c6.451 6.451 6.451 16.909 0 23.36l-118.644 118.645c-17.315 17.315-45.389 17.315-62.704 0z" fill="#fe646f"/><circle cx="333.761" cy="178.239" fill="#9facba" r="178.239"/><circle cx="333.761" cy="178.239" fill="#d8ecfe" r="127.646"/><path d="m459.795 52.205c-4.17-4.17-8.499-8.083-12.96-11.753 57.597 70.016 53.684 173.671-11.753 239.108s-169.091 69.35-239.108 11.753c3.67 4.462 7.583 8.79 11.753 12.96 69.607 69.607 182.461 69.607 252.068 0s69.607-182.462 0-252.068z" fill="#8d9ca8"/><path d="m194.334 357.009-24.713-24.713c6.451 6.451 6.451 16.909 0 23.36l-118.644 118.645c-12.927 12.927-31.848 16.198-47.814 9.823 2.164 5.42 5.435 10.501 9.824 14.889 17.315 17.315 45.388 17.315 62.703 0l118.645-118.645c6.45-6.45 6.45-16.908-.001-23.359z" fill="#fd4755"/><path d="m424.021 87.979c-3.388-3.388-6.924-6.536-10.581-9.463 40.068 50.072 36.919 123.556-9.463 169.938-46.381 46.381-119.866 49.53-169.938 9.463 2.926 3.657 6.075 7.194 9.463 10.581 49.769 49.769 130.75 49.769 180.519 0s49.769-130.75 0-180.519z" fill="#c4e2ff"/></g></svg>