<svg id="Capa_1" enable-background="new 0 0 512.042 512.042" height="512" viewBox="0 0 512.042 512.042" width="512" xmlns="http://www.w3.org/2000/svg"><g><path d="m190.838 359.375c3.335 3.334 3.335 8.734 0 12.068l-115.169 115.17c-6.712 6.712-15.637 10.408-25.13 10.408s-18.417-3.696-25.13-10.408c-6.712-6.714-10.409-15.639-10.409-25.131 0-9.493 3.697-18.417 10.41-25.13l37.038-37.038c2.929-2.93 2.929-7.678 0-10.607-2.929-2.928-7.678-2.928-10.606 0l-37.038 37.038c-9.547 9.546-14.804 22.238-14.804 35.737s5.257 26.19 14.803 35.737c9.546 9.545 22.237 14.802 35.736 14.802 13.5 0 26.192-5.257 35.736-14.802l115.169-115.169c4.445-4.445 6.893-10.355 6.893-16.642 0-4.3-1.146-8.422-3.293-12.022l24.099-24.099c69.693 48.165 166.886 41.996 229.983-21.105 70.551-70.547 70.555-184.735.001-255.289-34.014-34.018-79.66-52.872-127.645-52.872-10.965.001-21.984 1.004-32.753 2.98-4.074.748-6.771 4.657-6.022 8.731s4.653 6.77 8.731 6.022c9.877-1.813 19.986-2.733 30.045-2.734 43.784 0 85.652 17.089 117.038 48.479 64.685 64.683 64.696 169.385 0 234.075-59.101 59.103-151.064 63.869-215.418 16.11-.092-.075-.178-.156-.274-.228-13.076-9.731-24.701-21.413-34.265-34.266-.072-.097-.154-.184-.231-.277-63.511-85.58-30.279-210.871 71.01-251.835 3.84-1.554 5.693-5.925 4.141-9.766-1.553-3.838-5.921-5.693-9.766-4.141-108.549 43.911-145.427 176.459-80.984 269.706l-24.1 24.1c-3.599-2.146-7.722-3.292-12.021-3.292-6.286 0-12.196 2.448-16.641 6.893l-53.382 53.381c-2.929 2.93-2.929 7.678 0 10.607 2.929 2.928 7.678 2.928 10.606 0l53.382-53.382c3.335-3.336 8.734-3.336 12.069 0zm4.11-17.104-25.197-25.197 22.1-22.1c7.292 8.866 15.706 17.39 25.197 25.198z"/><path d="m238.565 273.457c51.281 51.281 134.555 51.283 185.838 0 51.234-51.235 51.234-134.602 0-185.838-51.236-51.234-134.604-51.234-185.838 0-51.283 51.282-51.283 134.554 0 185.838zm92.919-209.271c29.809 0 59.618 11.347 82.312 34.04 45.387 45.387 45.387 119.237 0 164.623-45.419 45.421-119.203 45.421-164.624 0-21.949-21.948-34.037-51.181-34.037-82.312 0-64.787 52.358-116.351 116.349-116.351z"/></g></svg>