<svg id="Capa_1" enable-background="new 0 0 511.911 511.911" height="512" viewBox="0 0 511.911 511.911" width="512" xmlns="http://www.w3.org/2000/svg" xmlns:xlink="http://www.w3.org/1999/xlink"><linearGradient id="SVGID_1_" gradientTransform="matrix(.707 .707 -.707 .707 202.527 -128.943)" gradientUnits="userSpaceOnUse" x1="309.944" x2="309.944" y1="470.142" y2="-31.373"><stop offset="0" stop-color="#fd5900"/><stop offset="1" stop-color="#ffde00"/></linearGradient><linearGradient id="SVGID_2_" gradientTransform="matrix(.707 .707 -.707 .707 202.527 -128.943)" gradientUnits="userSpaceOnUse" x1="309.944" x2="309.944" y1="178.627" y2="-121.373"><stop offset="0" stop-color="#ffedad"/><stop offset="1" stop-color="#ffffe5"/></linearGradient><g id="Tag_2_"><path d="m447.109 254.09c.765-1.845 1.16-3.801 1.158-5.767v-169.68c0-8.286-6.712-14.998-14.998-14.998h-169.68c-1.965-.003-3.922.392-5.767 1.158-1.832.76-3.485 1.854-4.866 3.234l-248.559 248.558c-5.863 5.863-5.863 15.351 0 21.213l169.706 169.706c5.863 5.863 15.351 5.863 21.213 0l248.558-248.558c1.38-1.381 2.475-3.034 3.235-4.866z" fill="url(#SVGID_1_)"/><path d="m367.674 165.45 139.84-139.84c5.863-5.863 5.863-15.351 0-21.213-5.863-5.863-15.351-5.863-21.213 0l-139.84 139.84c-16.713-7.926-37.269-5.157-51.079 8.653-17.546 17.546-17.546 46.093 0 63.64 17.546 17.546 46.093 17.546 63.64 0 13.809-13.811 16.579-34.368 8.652-51.08z" fill="url(#SVGID_2_)"/></g></svg>