<?xml version="1.0" encoding="UTF-8" standalone="no"?>
<!-- Generator: Adobe Illustrator 16.0.0, SVG Export Plug-In . SVG Version: 6.00 Build 0)  -->

<svg
   xmlns:dc="http://purl.org/dc/elements/1.1/"
   xmlns:cc="http://creativecommons.org/ns#"
   xmlns:rdf="http://www.w3.org/1999/02/22-rdf-syntax-ns#"
   xmlns:svg="http://www.w3.org/2000/svg"
   xmlns="http://www.w3.org/2000/svg"
   xmlns:sodipodi="http://sodipodi.sourceforge.net/DTD/sodipodi-0.dtd"
   xmlns:inkscape="http://www.inkscape.org/namespaces/inkscape"
   version="1.1"
   id="Capa_1"
   x="0px"
   y="0px"
   width="310.42px"
   height="310.42px"
   viewBox="0 0 310.42 310.42"
   style="enable-background:new 0 0 310.42 310.42;"
   xml:space="preserve"
   sodipodi:docname="magnifier-white.svg"
   inkscape:version="0.92.0 r15299"><metadata
     id="metadata47"><rdf:RDF><cc:Work
         rdf:about=""><dc:format>image/svg+xml</dc:format><dc:type
           rdf:resource="http://purl.org/dc/dcmitype/StillImage" /><dc:title></dc:title></cc:Work></rdf:RDF></metadata><defs
     id="defs45" /><sodipodi:namedview
     pagecolor="#ffffff"
     bordercolor="#666666"
     borderopacity="1"
     objecttolerance="10"
     gridtolerance="10"
     guidetolerance="10"
     inkscape:pageopacity="0"
     inkscape:pageshadow="2"
     inkscape:window-width="640"
     inkscape:window-height="480"
     id="namedview43"
     showgrid="false"
     inkscape:zoom="0.76026026"
     inkscape:cx="132.19157"
     inkscape:cy="155.21001"
     inkscape:window-x="324"
     inkscape:window-y="159"
     inkscape:window-maximized="0"
     inkscape:current-layer="Capa_1" /><g
     id="g10"
     style="fill:#ececec"><g
       id="g8"
       style="fill:#ececec"><path
         d="M273.587,214.965c49.11-49.111,49.109-129.021,0-178.132c-49.111-49.111-129.02-49.111-178.13,0    C53.793,78.497,47.483,140.462,76.51,188.85c0,0,2.085,3.498-0.731,6.312c-16.065,16.064-64.263,64.263-64.263,64.263    c-12.791,12.79-15.836,30.675-4.493,42.02l1.953,1.951c11.343,11.345,29.229,8.301,42.019-4.49c0,0,48.096-48.097,64.128-64.128    c2.951-2.951,6.448-0.866,6.448-0.866C169.958,262.938,231.923,256.629,273.587,214.965z M118.711,191.71    c-36.288-36.288-36.287-95.332,0.001-131.62c36.288-36.287,95.332-36.288,131.619,0c36.288,36.287,36.288,95.332,0,131.62    C214.043,227.996,155,227.996,118.711,191.71z"
         id="path2"
         style="fill:#ececec" /><g
         id="g6"
         style="fill:#ececec"><path
           d="M126.75,118.424c-1.689,0-3.406-0.332-5.061-1.031c-6.611-2.798-9.704-10.426-6.906-17.038     c17.586-41.559,65.703-61.062,107.261-43.476c6.611,2.798,9.704,10.426,6.906,17.038c-2.799,6.612-10.425,9.703-17.039,6.906     c-28.354-11.998-61.186,1.309-73.183,29.663C136.629,115.445,131.815,118.424,126.75,118.424z"
           id="path4"
           style="fill:#ececec" /></g></g></g><g
     id="g12" /><g
     id="g14" /><g
     id="g16" /><g
     id="g18" /><g
     id="g20" /><g
     id="g22" /><g
     id="g24" /><g
     id="g26" /><g
     id="g28" /><g
     id="g30" /><g
     id="g32" /><g
     id="g34" /><g
     id="g36" /><g
     id="g38" /><g
     id="g40" /></svg>