<svg id="Capa_1" enable-background="new 0 0 512 512" height="512" viewBox="0 0 512 512" width="512" xmlns="http://www.w3.org/2000/svg"><g id="_x30_1_browser"><path d="m481.095 23.179h-450.19c-17.068 0-30.905 13.837-30.905 30.905v106.249h512c0-14.125 0-90.542 0-106.249 0-17.068-13.837-30.905-30.905-30.905z" fill="#60b7ff"/><path d="m481.095 23.179h-40.883c17.069 0 30.905 13.837 30.905 30.905v106.249h40.883c0-14.125 0-90.542 0-106.249 0-17.068-13.837-30.905-30.905-30.905z" fill="#26a6fe"/><path d="m30.905 488.821c-17.068 0-30.905-13.837-30.905-30.906 0-11.344 0-300.265 0-313.175h512v313.175c0 17.069-13.837 30.905-30.905 30.905-3.657.001-440.248.001-450.19.001z" fill="#d8ecfe"/><path d="m471.117 144.74v313.175c0 17.069-13.837 30.905-30.905 30.905h40.883c17.069 0 30.905-13.837 30.905-30.905v-313.175z" fill="#c4e2ff"/><path d="m418.949 450.361h-325.898c-5.405 0-9.787-4.382-9.787-9.787v-28.382c0-5.405 4.382-9.787 9.787-9.787h325.898c5.405 0 9.787 4.382 9.787 9.787v28.382c0 5.406-4.382 9.787-9.787 9.787z" fill="#60b7ff"/><circle cx="256" cy="275.195" fill="#3c87d0" r="91.995"/><path d="m338.402 331.294c10.923-15.994 17.32-35.313 17.32-56.099 0-20.787-6.397-40.107-17.321-56.101-.15-.268-.313-.533-.498-.787-.106-.145-.222-.279-.336-.415-18.064-25.637-47.891-42.419-81.567-42.419-33.677 0-63.505 16.783-81.569 42.422-.113.135-.228.267-.333.411-.185.254-.347.517-.497.785-10.925 15.994-17.322 35.315-17.322 56.103 0 20.787 6.397 40.107 17.321 56.101.15.269.313.533.499.788.094.128.2.241.299.362 18.061 25.666 47.904 42.47 81.602 42.47 33.675 0 63.501-16.781 81.566-42.417.114-.136.23-.27.337-.416.186-.254.348-.519.499-.788zm-9.155-14.513c-6.403-3.702-13.764-6.871-21.81-9.437 3.701-20.635 3.705-43.641 0-64.297 8.046-2.566 15.407-5.735 21.81-9.437 14.705 25.798 14.701 57.381 0 83.171zm-73.247 42.683c-16.764 0-28.288-24.559-33.024-41.011 10.305-2.106 21.501-3.235 33.024-3.235s22.719 1.129 33.024 3.235c-4.677 16.248-16.191 41.011-33.024 41.011zm0-59.699c-12.627 0-24.973 1.277-36.43 3.659-3.098-18.173-3.118-38.171 0-56.459 11.458 2.382 23.804 3.659 36.43 3.659s24.973-1.277 36.43-3.659c3.098 18.173 3.118 38.171 0 56.459-11.457-2.382-23.803-3.659-36.43-3.659zm0-108.839c16.764 0 28.288 24.559 33.024 41.011-10.305 2.107-21.501 3.235-33.024 3.235s-22.719-1.129-33.024-3.235c4.677-16.248 16.191-41.011 33.024-41.011zm64.375 29.973c-4.868 2.719-10.392 5.093-16.414 7.087-3.235-11.307-7.615-21.261-12.876-29.379 11.338 5.215 21.327 12.866 29.29 22.292zm-99.46-22.292c-5.26 8.118-9.64 18.072-12.876 29.379-6.022-1.993-11.547-4.368-16.414-7.087 7.963-9.426 17.952-17.077 29.29-22.292zm-38.162 35.002c6.403 3.702 13.764 6.871 21.809 9.437-3.701 20.635-3.705 43.641 0 64.297-8.046 2.566-15.407 5.735-21.809 9.437-14.705-25.798-14.701-57.381 0-83.171zm8.873 95.882c4.868-2.719 10.392-5.093 16.414-7.087 3.235 11.307 7.615 21.261 12.875 29.379-11.338-5.215-21.327-12.866-29.289-22.292zm99.459 22.292c5.26-8.118 9.64-18.072 12.875-29.379 6.022 1.993 11.547 4.368 16.414 7.087-7.962 9.426-17.951 17.077-29.289 22.292z" fill="#8ac9fe"/><g fill="#b3dafe"><path d="m261.11 105.593h-49.011c-2.755 0-4.989-2.234-4.989-4.989v-34.263c0-2.755 2.234-4.989 4.989-4.989h49.011c2.755 0 4.989 2.234 4.989 4.989v34.264c-.001 2.755-2.234 4.988-4.989 4.988z"/><path d="m363.619 105.593h-49.011c-2.755 0-4.989-2.234-4.989-4.989v-34.263c0-2.755 2.234-4.989 4.989-4.989h49.011c2.755 0 4.989 2.234 4.989 4.989v34.264c0 2.755-2.234 4.988-4.989 4.988z"/><path d="m466.128 105.593h-49.011c-2.755 0-4.989-2.234-4.989-4.989v-34.263c0-2.755 2.234-4.989 4.989-4.989h49.011c2.755 0 4.989 2.234 4.989 4.989v34.264c0 2.755-2.233 4.988-4.989 4.988z"/></g></g></svg>