<svg id="Capa_1" enable-background="new 0 0 512 512" height="512" viewBox="0 0 512 512" width="512" xmlns="http://www.w3.org/2000/svg"><g><g><g id="_x30_1_browser"><path d="m474.5 30h-437c-16.569 0-30 13.431-30 30v103.136h497c0-13.711 0-87.889 0-103.136 0-16.569-13.431-30-30-30z" fill="#60b7ff"/><path d="m474.5 30h-39.685c16.569 0 30 13.431 30 30v103.136h39.685c0-13.711 0-87.889 0-103.136 0-16.569-13.431-30-30-30z" fill="#26a6fe"/><path d="m37.5 482c-16.569 0-30-13.431-30-30 0-11.011 0-291.468 0-304h497v304c0 16.569-13.431 30-30 30-3.549 0-427.35 0-437 0z" fill="#d8ecfe"/><path d="m464.815 148v304c0 16.569-13.431 30-30 30h39.685c16.569 0 30-13.431 30-30v-304z" fill="#c4e2ff"/><path d="m414.175 444.667h-316.35c-5.247 0-9.5-4.253-9.5-9.5v-27.55c0-5.247 4.253-9.5 9.5-9.5h316.35c5.247 0 9.5 4.253 9.5 9.5v27.55c0 5.247-4.253 9.5-9.5 9.5z" fill="#60b7ff"/><circle cx="256" cy="274.633" fill="#3c87d0" r="89.3"/><g fill="#b3dafe"><path d="m260.96 110h-47.575c-2.675 0-4.843-2.168-4.843-4.843v-33.26c0-2.675 2.168-4.843 4.843-4.843h47.575c2.675 0 4.843 2.168 4.843 4.843v33.26c0 2.675-2.169 4.843-4.843 4.843z"/><path d="m360.466 110h-47.575c-2.675 0-4.843-2.168-4.843-4.843v-33.26c0-2.675 2.168-4.843 4.843-4.843h47.575c2.675 0 4.843 2.168 4.843 4.843v33.26c0 2.675-2.168 4.843-4.843 4.843z"/><path d="m459.972 110h-47.575c-2.674 0-4.843-2.168-4.843-4.843v-33.26c0-2.675 2.168-4.843 4.843-4.843h47.575c2.674 0 4.843 2.168 4.843 4.843v33.26c0 2.675-2.168 4.843-4.843 4.843z"/></g></g></g><g id="_x30_1_browser_2_"><path d="m474.5 22.5h-437c-20.678 0-37.5 16.822-37.5 37.5v191.503c0 4.142 3.358 7.5 7.5 7.5s7.5-3.358 7.5-7.5v-96.003h482v296.5c0 12.407-10.093 22.5-22.5 22.5h-4.849c-4.142 0-7.5 3.358-7.5 7.5s3.358 7.5 7.5 7.5h4.849c20.678 0 37.5-16.822 37.5-37.5 0-9.648 0-381.44 0-392 0-20.678-16.822-37.5-37.5-37.5zm-459.5 118v-80.5c0-12.407 10.093-22.5 22.5-22.5h437c12.407 0 22.5 10.093 22.5 22.5v80.5z"/><path d="m80.825 407.617v27.55c0 9.374 7.626 17 17 17h316.35c9.374 0 17-7.626 17-17v-27.55c0-9.374-7.626-17-17-17h-316.35c-9.374 0-17 7.626-17 17zm335.35 0v27.55c0 1.103-.897 2-2 2h-316.35c-1.103 0-2-.897-2-2v-27.55c0-1.103.897-2 2-2h316.35c1.103 0 2 .897 2 2z"/><path d="m256 371.433c53.376 0 96.8-43.44 96.8-96.8 0-53.56-43.61-96.8-96.8-96.8-53.331 0-96.8 43.396-96.8 96.8 0 53.469 43.516 96.8 96.8 96.8zm-62.488-44.095c4.725-2.639 10.087-4.944 15.933-6.879 3.141 10.976 7.392 20.638 12.498 28.518-11.006-5.063-20.702-12.489-28.431-21.639zm27.125-80.108c22.405 4.658 47.57 4.814 70.726 0 3.008 17.641 3.027 37.053 0 54.805-22.451-4.667-47.617-4.804-70.726 0-3.008-17.64-3.027-37.053 0-54.805zm35.363-54.397c16.272 0 27.459 23.84 32.056 39.81-20.225 4.134-43.37 4.24-64.113 0 4.541-15.773 15.717-39.81 32.057-39.81zm32.056 123.79c-4.54 15.772-15.716 39.81-32.056 39.81-16.272 0-27.459-23.84-32.056-39.81 20.227-4.134 43.372-4.239 64.112 0zm2.001 32.354c5.106-7.88 9.358-17.542 12.498-28.518 5.846 1.935 11.208 4.24 15.933 6.879-7.729 9.149-17.425 16.576-28.431 21.639zm37.045-33.977c-6.215-3.593-13.361-6.67-21.171-9.161 3.593-20.031 3.596-42.363 0-62.414 7.81-2.491 14.955-5.567 21.171-9.161 14.273 25.044 14.269 55.702 0 80.736zm-8.613-93.072c-4.725 2.639-10.088 4.944-15.933 6.879-3.141-10.976-7.392-20.639-12.498-28.518 11.005 5.062 20.701 12.489 28.431 21.639zm-96.546-21.639c-5.106 7.88-9.358 17.542-12.498 28.518-5.846-1.935-11.208-4.24-15.933-6.879 7.729-9.15 17.425-16.577 28.431-21.639zm-37.045 33.976c6.215 3.593 13.361 6.67 21.171 9.161-3.593 20.031-3.596 42.363 0 62.414-7.81 2.491-14.956 5.567-21.17 9.161-14.275-25.044-14.27-55.701-.001-80.736z"/><path d="m260.645 59.555h-47.575c-6.806 0-12.343 5.537-12.343 12.342v33.26c0 6.806 5.537 12.343 12.343 12.343h47.575c6.806 0 12.343-5.537 12.343-12.343v-33.26c0-6.806-5.537-12.342-12.343-12.342zm-2.657 42.945h-42.261v-27.945h42.261z"/><path d="m360.151 59.555h-47.576c-6.806 0-12.342 5.537-12.342 12.342v33.26c0 6.806 5.537 12.343 12.342 12.343h47.576c6.806 0 12.342-5.537 12.342-12.343v-33.26c.001-6.806-5.536-12.342-12.342-12.342zm-2.657 42.945h-42.26v-27.945h42.26z"/><path d="m459.657 59.555h-47.575c-6.806 0-12.343 5.537-12.343 12.342v33.26c0 6.806 5.537 12.343 12.343 12.343h47.575c6.806 0 12.343-5.537 12.343-12.343v-33.26c0-6.806-5.537-12.342-12.343-12.342zm-2.657 42.945h-42.261v-27.945h42.261z"/><path d="m435.448 474.5h-397.948c-12.407 0-22.5-10.093-22.5-22.5v-166.419c0-4.142-3.358-7.5-7.5-7.5s-7.5 3.358-7.5 7.5v166.419c0 20.678 16.822 37.5 37.5 37.5h397.948c4.142 0 7.5-3.358 7.5-7.5s-3.358-7.5-7.5-7.5z"/></g></g></svg>