<svg id="Capa_1" enable-background="new 0 0 512 512" height="512" viewBox="0 0 512 512" width="512" xmlns="http://www.w3.org/2000/svg"><g id="_x30_2_setting"><path d="m500.427 132.571h-28.933c-2.723-9.444-6.483-18.446-11.147-26.88l20.468-20.468c4.519-4.519 4.519-11.847 0-16.366l-34.939-34.939c-4.519-4.519-11.847-4.519-16.366 0l-20.468 20.468c-8.434-4.664-17.437-8.425-26.88-11.147v-28.934c0-6.391-5.181-11.573-11.573-11.573h-49.411c-6.391 0-11.573 5.181-11.573 11.573v28.933c-9.444 2.723-18.446 6.484-26.88 11.147l-20.468-20.468c-4.519-4.519-11.847-4.519-16.366 0l-34.939 34.939c-4.519 4.519-4.519 11.847 0 16.366l20.468 20.468c-4.664 8.434-8.424 17.437-11.147 26.88h-28.933c-6.391 0-11.573 5.181-11.573 11.573v49.411c0 6.391 5.181 11.573 11.573 11.573h28.933c2.723 9.444 6.483 18.446 11.147 26.88l-20.468 20.468c-4.519 4.519-4.519 11.847 0 16.366l34.939 34.939c4.519 4.519 11.847 4.519 16.366 0l20.468-20.468c8.434 4.664 17.437 8.425 26.88 11.147v28.933c0 6.391 5.181 11.573 11.573 11.573h49.411c6.391 0 11.573-5.181 11.573-11.573v-28.932c9.444-2.723 18.446-6.483 26.88-11.147l20.468 20.468c4.519 4.519 11.847 4.519 16.366 0l34.939-34.939c4.519-4.519 4.519-11.847 0-16.366l-20.468-20.468c4.664-8.434 8.425-17.437 11.147-26.88h28.933c6.391 0 11.573-5.181 11.573-11.573v-49.411c0-6.392-5.181-11.573-11.573-11.573zm-149.931 106.702c-42.54 2.72-77.756-32.496-75.036-75.036 2.248-35.161 30.65-63.563 65.811-65.811 42.54-2.719 77.754 32.495 75.035 75.035-2.247 35.162-30.649 63.564-65.81 65.812z" fill="#ffc344"/><path d="m330.452 184.258h-309.848c-11.379 0-20.604 9.224-20.604 20.603v98.563h351.056c0-12.063 0-87.066 0-98.563 0-11.379-9.225-20.603-20.604-20.603z" fill="#60b7ff"/><path d="m330.452 184.258h-37.963c11.379 0 20.604 9.224 20.604 20.604v98.563h37.963c0-12.063 0-87.066 0-98.563 0-11.38-9.225-20.604-20.604-20.604z" fill="#26a6fe"/><path d="m351.056 287.778v200.885c0 11.379-9.225 20.604-20.604 20.604h-309.848c-11.379 0-20.604-9.224-20.604-20.603v-83.508-117.378z" fill="#d8ecfe"/><path d="m313.093 287.778v200.885c0 11.379-9.225 20.604-20.604 20.604h37.963c11.379 0 20.604-9.224 20.604-20.604v-200.885z" fill="#c4e2ff"/><g><path d="m286.277 373.559h-221.499c-9.103 0-16.483-7.38-16.483-16.483s7.38-16.483 16.483-16.483h221.499c9.103 0 16.483 7.38 16.483 16.483s-7.38 16.483-16.483 16.483z" fill="#7a8c98"/></g><g><path d="m286.277 456.452h-221.499c-9.103 0-16.483-7.38-16.483-16.483s7.38-16.483 16.483-16.483h221.499c9.103 0 16.483 7.38 16.483 16.483s-7.38 16.483-16.483 16.483z" fill="#7a8c98"/></g><g fill="#b3dafe"><path d="m307.932 252.185h-30.98c-2.845 0-5.151-2.306-5.151-5.151v-22.031c0-2.845 2.306-5.151 5.151-5.151h30.98c2.845 0 5.151 2.306 5.151 5.151v22.031c0 2.844-2.306 5.151-5.151 5.151z"/><path d="m227.864 252.185h-30.98c-2.845 0-5.151-2.306-5.151-5.151v-22.031c0-2.845 2.306-5.151 5.151-5.151h30.98c2.845 0 5.151 2.306 5.151 5.151v22.031c0 2.844-2.307 5.151-5.151 5.151z"/><path d="m147.795 252.185h-30.98c-2.845 0-5.151-2.306-5.151-5.151v-22.031c0-2.845 2.306-5.151 5.151-5.151h30.98c2.845 0 5.151 2.306 5.151 5.151v22.031c0 2.844-2.306 5.151-5.151 5.151z"/></g></g></svg>