<svg id="Capa_1" enable-background="new 0 0 512 512" height="512" viewBox="0 0 512 512" width="512" xmlns="http://www.w3.org/2000/svg"><g id="_x30_3_printer"><path d="m441.088 110.589c-10.418 0-359.789 0-370.176 0-8.534 0-15.453 6.918-15.453 15.453v99.941h401.081c0-11.141 0-88.666 0-99.941 0-8.535-6.918-15.453-15.452-15.453z" fill="#596c76"/><path d="m395.59 0h-279.18c-6.827 0-12.362 5.535-12.362 12.362v213.62h303.903c0-6.806 0-206.61 0-213.62.001-6.827-5.534-12.362-12.361-12.362z" fill="#d8ecfe"/><path d="m395.59 0h-32.122c6.827 0 12.362 5.535 12.362 12.362v213.62h32.122c0-7.345 0-205.56 0-213.62 0-6.827-5.535-12.362-12.362-12.362z" fill="#c4e2ff"/><path d="m395.589 512h-279.179c-6.827 0-12.362-5.535-12.362-12.362v-167.372h303.903v167.372c0 6.827-5.534 12.362-12.362 12.362z" fill="#d8ecfe"/><path d="m375.829 332.266v167.372c0 6.827-5.535 12.362-12.362 12.362h32.122c6.827 0 12.362-5.535 12.362-12.362v-167.372z" fill="#c4e2ff"/><g><path d="m351.292 403.557h-190.584c-9.103 0-16.483-7.38-16.483-16.483s7.38-16.483 16.483-16.483h190.583c9.104 0 16.483 7.38 16.483 16.483s-7.379 16.483-16.482 16.483z" fill="#7a8c98"/></g><g><path d="m351.292 473.643h-190.584c-9.103 0-16.483-7.38-16.483-16.483s7.38-16.483 16.483-16.483h190.583c9.104 0 16.483 7.38 16.483 16.483s-7.379 16.483-16.482 16.483z" fill="#7a8c98"/></g><path d="m491.396 196.781h-470.792c-11.379 0-20.604 9.224-20.604 20.603v190.583c0 11.379 9.225 20.604 20.604 20.604h83.445v-96.306h303.903v96.306h83.445c11.379 0 20.604-9.225 20.604-20.604v-190.583c-.001-11.379-9.226-20.603-20.605-20.603z" fill="#8d9ca8"/><path d="m430.101 295.523h-348.202c-11.379 0-20.604 9.225-20.604 20.604v112.444h42.753v-96.306h303.903v96.306h42.753v-112.444c0-11.379-9.224-20.604-20.603-20.604z" fill="#596c76"/><circle cx="55.636" cy="249.496" fill="#fe646f" r="19.579"/><g><path d="m491.396 196.781h-35.042c11.379 0 20.604 9.225 20.604 20.604v190.583c0 11.379-9.225 20.604-20.604 20.604h35.042c11.379 0 20.604-9.225 20.604-20.604v-190.584c0-11.379-9.225-20.603-20.604-20.603z" fill="#7a8c98"/></g></g></svg>