<svg id="Capa_1" enable-background="new 0 0 512 512" height="512" viewBox="0 0 512 512" width="512" xmlns="http://www.w3.org/2000/svg"><g id="_x30_5_notification"><path d="m219.704 377.218v98.486c0 20.046 16.25 36.296 36.296 36.296s36.296-16.25 36.296-36.296c0-9.901 0-86.249 0-98.486z" fill="#feb137"/><path d="m256 0c-18.796 0-34.033 15.237-34.033 34.033v59.199h68.065c0-6.511 0-52.73 0-59.199.001-18.796-15.236-34.033-34.032-34.033z" fill="#ffd15b"/><path d="m256 0c-4.104 0-8.038.727-11.681 2.058 13.042 4.766 22.352 17.283 22.352 31.975v59.199h23.362c0-22.396 0-37.275 0-59.199 0-18.796-15.237-34.033-34.033-34.033z" fill="#ffc344"/><path d="m409.87 220.115c-4.788-49.619-24.783-85.212-23.958-83.556-53.431-107.231-206.443-107.133-259.825 0-13.031 26.151-21.151 54.472-23.958 83.556-21.909 227.015-19.38 194.01-19.38 221.377h348.733c-3.164-29.345.141 4.033-21.612-221.377z" fill="#ffc344"/><path d="m409.87 220.115c-4.788-49.619-24.783-85.212-23.958-83.556-24.55-49.272-74.862-80.414-129.912-80.414-5.905 0-11.751.38-17.521 1.08 48.021 5.831 90.474 35.347 112.391 79.334-.825-1.656 19.17 33.937 23.958 83.556l19.381 200.833h35.042z" fill="#feb137"/><path d="m445.981 420.948c11.346 0 20.544 9.198 20.544 20.544 0 11.346-9.198 20.544-20.544 20.544h-379.962c-11.346 0-20.544-9.198-20.544-20.544 0-11.346 9.198-20.544 20.544-20.544 4.572 0 385.569 0 379.962 0z" fill="#ffd15b"/><path d="m445.981 420.948c-.9 0-14.053 0-34.981 0-.003 0-.031 0-.061 0 11.346 0 20.544 9.198 20.544 20.544 0 11.346-9.198 20.544-20.544 20.544h35.043c11.346 0 20.544-9.198 20.544-20.544-.001-11.346-9.199-20.544-20.545-20.544z" fill="#ffc344"/></g></svg>