<svg id="Capa_1" enable-background="new 0 0 512 512" height="512" viewBox="0 0 512 512" width="512" xmlns="http://www.w3.org/2000/svg"><g id="_x30_7_email"><path d="m267.944 80.813h-23.418c-7.406 2.195 8.512-6.788-219.717 131.926v145.936h462.382v-145.936c-227.253-138.429-211.815-129.723-219.247-131.926z" fill="#596c76"/><path d="m449.228 189.614v46.198l37.963-23.073z" fill="#465a61"/><path d="m416.867 0h-321.734c-10.828 0-19.607 8.778-19.607 19.607v355.976h360.947c0-9.414 0-182.647 0-355.976.001-10.829-8.778-19.607-19.606-19.607z" fill="#d8ecfe"/><g><path d="m369.32 80.813h-227.155c-9.103 0-16.483-7.38-16.483-16.483s7.38-16.483 16.483-16.483h227.155c9.103 0 16.483 7.38 16.483 16.483s-7.38 16.483-16.483 16.483z" fill="#7a8c98"/></g><g><path d="m369.32 159.658h-227.155c-9.103 0-16.483-7.38-16.483-16.483s7.38-16.483 16.483-16.483h227.155c9.103 0 16.483 7.38 16.483 16.483s-7.38 16.483-16.483 16.483z" fill="#7a8c98"/></g><g><path d="m369.32 238.504h-227.155c-9.103 0-16.483-7.38-16.483-16.483s7.38-16.483 16.483-16.483h227.155c9.103 0 16.483 7.38 16.483 16.483s-7.38 16.483-16.483 16.483z" fill="#7a8c98"/></g><path d="m277.169 311.185c-13.162 7.999-29.686 7.991-42.839-.021l-158.804-96.733v161.152h360.947c0-5.706 0-71.602 0-161.221z" fill="#c4e2ff"/><path d="m234.329 340.366-209.52-127.627c0 6.335 0 278.551 0 273.507 0 14.223 11.531 25.754 25.755 25.754h410.872c14.224 0 25.755-11.531 25.755-25.755v-273.506l-210.022 127.648c-13.162 8-29.686 7.992-42.84-.021z" fill="#ffd15b"/><path d="m449.228 235.812v276.188h12.208c14.224 0 25.755-11.531 25.755-25.755v-273.506z" fill="#ffc344"/><path d="m32.093 504.184c4.68 4.818 11.224 7.816 18.471 7.816h410.872c7.247 0 13.791-2.998 18.471-7.816-178.737-191.804-160.585-172.341-170.777-183.222l-31.961 19.426c-13.162 7.999-29.686 7.991-42.839-.021l-31.6-19.249c-22.638 24.209-48.745 52.263-170.637 183.066z" fill="#ffc344"/><path d="m449.228 471.262v40.738h12.208c7.247 0 13.791-2.998 18.471-7.816-10.949-11.75-21.155-22.702-30.679-32.922z" fill="#feb137"/></g></svg>