<svg id="Capa_1" enable-background="new 0 0 512 512" height="512" viewBox="0 0 512 512" width="512" xmlns="http://www.w3.org/2000/svg"><g id="_x30_8_home"><path d="m267.446 60.943c-6.246-6.502-16.646-6.502-22.892 0l-176.367 183.591v229.884c0 12.856 10.422 23.278 23.278 23.278h329.069c12.856 0 23.278-10.422 23.278-23.278 0-4.743 0-218.833 0-229.885z" fill="#d8ecfe"/><path d="m193.219 497.697v-95.208c0-34.673 28.108-62.78 62.78-62.78 34.673 0 62.78 28.108 62.78 62.78v95.208c-6.589 0-118.364 0-125.56 0z" fill="#3c87d0"/><path d="m267.446 60.943c-6.246-6.502-16.646-6.502-22.892 0l-31.811 33.114c4.924-.755 10.133.79 13.863 4.673l176.367 183.591v215.376h17.561c12.856 0 23.278-10.422 23.278-23.278 0-4.743 0-218.833 0-229.885z" fill="#c4e2ff"/><path d="m244.554 90.145-205.39 213.803c-4.106 4.274-10.922 4.343-15.112.152l-20.953-20.953c-4.074-4.074-4.14-10.658-.149-14.812l237.788-247.53c8.328-8.669 22.195-8.669 30.522 0l237.789 247.53c3.991 4.155 3.925 10.738-.149 14.812l-20.952 20.953c-4.191 4.191-11.006 4.122-15.112-.152l-205.39-213.803c-6.246-6.502-16.646-6.502-22.892 0z" fill="#60b7ff"/></g></svg>