<svg id="Capa_1" enable-background="new 0 0 512 512" height="512" viewBox="0 0 512 512" width="512" xmlns="http://www.w3.org/2000/svg"><g id="_x30_9_save"><path d="m508.141 78.472-74.613-74.613c-2.47-2.471-5.821-3.859-9.316-3.859h-28.678v13.667h-279.068v-13.667h-86.523c-16.537 0-29.943 13.406-29.943 29.943v452.114c0 16.537 13.406 29.943 29.943 29.943h452.114c16.537 0 29.943-13.406 29.943-29.943v-394.269c0-3.494-1.388-6.846-3.859-9.316z" fill="#8d9ca8"/><path d="m86.02 247.459v35.669h339.96v-35.669c0-11.379-9.225-20.604-20.604-20.604h-298.752c-11.379.001-20.604 9.225-20.604 20.604z" fill="#fe646f"/><path d="m405.376 460.81h-298.752c-11.379 0-20.604-9.225-20.604-20.604v-157.078h339.96v157.079c0 11.379-9.225 20.603-20.604 20.603z" fill="#d8ecfe"/><path d="m381.162 162.578h-250.324c-7.938 0-14.373-6.435-14.373-14.373v-148.205h279.069v148.205c.001 7.938-6.434 14.373-14.372 14.373z" fill="#d8ecfe"/><path d="m296.024 120.022v-77.466c0-3.414 2.767-6.181 6.181-6.181h47.524c3.414 0 6.181 2.767 6.181 6.181v77.467c0 3.414-2.767 6.181-6.181 6.181h-47.524c-3.414-.001-6.181-2.768-6.181-6.182z" fill="#7a8c98"/><g><path d="m359.018 353.41h-206.036c-9.104 0-16.483-7.38-16.483-16.483s7.379-16.483 16.483-16.483h206.036c9.104 0 16.483 7.38 16.483 16.483s-7.379 16.483-16.483 16.483z" fill="#596c76"/></g><g><path d="m359.018 423.494h-206.036c-9.104 0-16.483-7.38-16.483-16.483s7.379-16.483 16.483-16.483h206.036c9.104 0 16.483 7.38 16.483 16.483s-7.379 16.483-16.483 16.483z" fill="#596c76"/></g><path d="m508.141 78.472-37.024-37.024v46.34 123.591 270.679c0 16.537-13.406 29.943-29.943 29.943h40.883c16.537-.001 29.943-13.407 29.943-29.944v-394.269c0-3.495-1.388-6.846-3.859-9.316z" fill="#7a8c98"/></g></svg>