<svg id="Capa_1" enable-background="new 0 0 512 512" height="512" viewBox="0 0 512 512" width="512" xmlns="http://www.w3.org/2000/svg"><g id="_x31_0_video_camera"><path d="m302.366 256c0-60.17-48.952-109.122-109.122-109.122s-109.121 48.952-109.121 109.122 48.951 109.122 109.121 109.122 109.122-48.952 109.122-109.122zm-203.243 0c0-51.899 42.223-94.122 94.121-94.122 51.899 0 94.122 42.223 94.122 94.122s-42.223 94.122-94.122 94.122c-51.898 0-94.121-42.223-94.121-94.122z"/><path d="m263.5 256c0-7.525-3.927-14.2-10.504-17.856l-81.063-45.06c-10.208-5.674-23.55-1.391-28.473 9.224-1.25 2.696-1.883 5.66-1.883 8.63v90.123c0 11.051 9.151 20.36 20.251 20.456 3.526.03 7.024-.889 10.103-2.6l81.064-45.061c6.578-3.656 10.505-10.331 10.505-17.856zm-17.791 4.745-81.065 45.062c-3.581 1.99-8.066-.665-8.066-4.745v-90.123c0-4.075 4.483-6.736 8.067-4.744l81.064 45.061c3.675 2.042 3.676 7.445 0 9.489z"/><g><path d="m379.186 370.84c-4.143 0-7.5 3.358-7.5 7.5v7.071c0 12.332-10.032 22.364-22.364 22.364h-311.958c-12.332 0-22.364-10.032-22.364-22.364v-178.037c0-4.142-3.357-7.5-7.5-7.5s-7.5 3.358-7.5 7.5v178.15c0 .031 0 .062.001.092.111 20.508 16.83 37.159 37.363 37.159h312.109c.041 0 .083 0 .124-.001 20.477-.148 37.088-16.853 37.088-37.363v-7.071c.001-4.142-3.357-7.5-7.499-7.5z"/><path d="m502.182 160.338c-6.144-4.178-13.937-5.044-20.851-2.316l-94.646 36.944v-68.377c0-20.603-16.762-37.364-37.364-37.364h-311.957c-20.171 0-37.364 16.411-37.364 37.364v45.677c0 4.142 3.357 7.5 7.5 7.5s7.5-3.358 7.5-7.5v-45.677c0-12.619 10.357-22.364 22.364-22.364h311.957c12.332 0 22.364 10.033 22.364 22.364v216.751c0 4.142 3.357 7.5 7.5 7.5s7.5-3.358 7.5-7.5v-26.307l94.636 36.94c6.896 2.726 14.698 1.879 20.86-2.312 6.148-4.181 9.818-11.115 9.818-18.549v-154.224c.001-7.435-3.669-14.369-9.817-18.55zm-5.182 172.774c0 5.23-5.248 8.858-10.194 6.899l-100.12-39.081v-89.862l100.12-39.081c.01-.004.02-.008.029-.012 4.899-1.936 10.165 1.669 10.165 6.911z"/></g></g></svg>