<svg id="Capa_1" enable-background="new 0 0 512 512" height="512" viewBox="0 0 512 512" width="512" xmlns="http://www.w3.org/2000/svg"><g id="_x31_1_sync"><g fill="#60b7ff"><path d="m505.913 228.661-24.343-2.537c-11.984-115.589-110.325-205.683-228.895-204.959-80.763.493-152.972 43.067-193.517 108.981-6.312 10.262-2.335 23.742 8.494 29.022 9.51 4.637 20.916 1.206 26.451-7.811 33.836-55.12 93.141-88.89 158.822-89.291 94.404-.577 173.188 68.957 186.865 159.704l-22.327-2.327c-5.208-.543-9.04 4.771-6.88 9.541l36.34 80.271c2.14 4.726 8.578 5.397 11.646 1.214l52.11-71.053c3.096-4.223.442-10.213-4.766-10.755z"/><path d="m441.284 357.199c-9.398-4.86-20.882-1.698-26.628 7.186-35.125 54.307-95.209 86.671-160.882 85.524-91.711-1.601-167.113-69.022-181.903-156.355l23.422 1.124c5.23.251 8.759-5.269 6.336-9.911l-40.769-78.115c-2.4-4.599-8.866-4.909-11.695-.561l-48.058 73.854c-2.856 4.389.129 10.221 5.359 10.472l23.749 1.139c14.283 110.612 108.085 197.245 222.845 199.248 80.748 1.409 153.943-39.448 196.032-104.391 6.552-10.11 2.894-23.68-7.808-29.214z"/><path d="m505.913 228.661-24.343-2.537c-11.984-115.589-110.325-205.683-228.895-204.959-80.763.493-152.972 43.067-193.517 108.981-6.312 10.262-2.335 23.742 8.494 29.022 9.51 4.637 20.916 1.206 26.451-7.811 33.836-55.12 93.141-88.89 158.822-89.291 94.404-.577 173.188 68.957 186.865 159.704l-22.327-2.327c-5.208-.543-9.04 4.771-6.88 9.541l36.34 80.271c2.14 4.726 8.578 5.397 11.646 1.214l52.11-71.053c3.096-4.223.442-10.213-4.766-10.755z"/><path d="m441.284 357.199c-9.398-4.86-20.882-1.698-26.628 7.186-35.125 54.307-95.209 86.671-160.882 85.524-91.711-1.601-167.113-69.022-181.903-156.355l23.422 1.124c5.23.251 8.759-5.269 6.336-9.911l-40.769-78.115c-2.4-4.599-8.866-4.909-11.695-.561l-48.058 73.854c-2.856 4.389.129 10.221 5.359 10.472l23.749 1.139c14.283 110.612 108.085 197.245 222.845 199.248 80.748 1.409 153.943-39.448 196.032-104.391 6.552-10.11 2.894-23.68-7.808-29.214z"/></g><g><path d="m505.913 228.661-24.343-2.537c-11.984-115.589-110.325-205.683-228.894-204.959-5.261.032-10.484.247-15.665.631 110.226 8.114 199.184 94.76 210.545 204.328l24.343 2.537c5.208.543 7.862 6.532 4.765 10.755l-37.938 51.73 8.199 18.11c2.14 4.726 8.578 5.397 11.646 1.214l52.11-71.053c3.094-4.224.44-10.214-4.768-10.756z" fill="#26a6fe"/></g><g><path d="m441.284 357.199c-9.271-4.794-20.56-1.771-26.38 6.839 4.336 6.525 4.76 15.296.172 22.375-38.391 59.238-102.664 98.428-174.941 103.789 4.278.315 8.584.526 12.925.602 80.748 1.41 153.943-39.448 196.032-104.391 6.552-10.11 2.894-23.68-7.808-29.214z" fill="#26a6fe"/></g></g></svg>