<svg id="Capa_1" enable-background="new 0 0 512.045 512.045" height="512" viewBox="0 0 512.045 512.045" width="512" xmlns="http://www.w3.org/2000/svg"><g><path d="m432.15 424.416c-346.296 0-327.188.077-328.296-.139-57.947-2.818-103.854-50.634-103.854-109.106 0-57.73 45.007-105.145 101.779-108.992.557-26.561 9.934-52.453 26.547-73.168 2.592-3.231 7.312-3.751 10.543-1.158 3.231 2.591 3.75 7.312 1.158 10.543-15.227 18.986-23.275 41.91-23.275 66.295 0 4.426.724 7.102-1.994 9.932-1.414 1.473-3.368 2.306-5.41 2.306-.037 0-.101 0-.153-.001-51.944.025-94.195 42.293-94.195 94.243 0 50.866 39.79 92.229 90.585 94.167 3.085.117-25.973.078 326.564.078 16.937 0 32.96-6.488 45.12-18.27 2.975-2.882 7.722-2.809 10.605.167 2.882 2.975 2.808 7.723-.167 10.605-14.973 14.508-34.703 22.498-55.557 22.498zm66.407-50.118c-3.935-1.293-6.077-5.531-4.784-9.466 13.132-39.967-15.107-81.37-56.039-84.859-4.087-.348-7.137-3.916-6.844-8.008 3.242-45.372-32.668-82.9-76.884-82.9-6.156 0-12.37.75-18.468 2.23-4.072.99-8.18-1.56-9.09-5.664-10.676-48.103-54.241-83.017-103.588-83.017-21.047 0-41.387 6.148-58.82 17.78-3.445 2.299-8.102 1.369-10.401-2.076s-1.37-8.103 2.076-10.401c19.906-13.282 43.125-20.303 67.146-20.303 27.722 0 54.817 9.607 76.296 27.052 19.249 15.634 33.31 36.94 40.119 60.584 4.896-.789 9.826-1.187 14.731-1.187 50.688 0 91.943 41.192 92.089 91.886 47.609 8.39 77.142 57.271 61.928 103.563-1.293 3.935-5.529 6.08-9.467 4.786z"/></g></svg>