<svg id="Capa_1" enable-background="new 0 0 512 512" height="512" viewBox="0 0 512 512" width="512" xmlns="http://www.w3.org/2000/svg"><g id="_x31_4_security"><path d="m249.734 2.424c-37.4 33.959-112.4 58.181-200.775 61.859-5.002.208-8.954 4.317-8.954 9.323v176.406c0 88.645 47.651 170.447 124.761 214.175l78.295 44.4c8.026 4.551 17.853 4.551 25.878 0l78.295-44.4c77.109-43.727 124.761-125.53 124.761-214.175v-176.406c0-5.006-3.952-9.115-8.954-9.323-88.375-3.679-163.373-27.902-200.774-61.86-3.558-3.231-8.974-3.231-12.533.001z" fill="#60b7ff"/><path d="m185.073 430.138c-64.854-36.778-105.143-105.942-105.143-180.499v-139.528c0-4.381 3.285-8.071 7.637-8.57 65.329-7.492 122.324-25.18 163.944-50.716 2.758-1.692 6.223-1.692 8.981 0 41.619 25.537 98.613 43.224 163.942 50.716 4.352.499 7.637 4.189 7.637 8.57v139.528c0 74.557-40.289 143.721-105.143 180.499l-66.668 37.806c-2.642 1.498-5.876 1.498-8.518 0z" fill="#d8ecfe"/><path d="m256 104.403c-41.222 0-74.76 33.537-74.76 74.76v48.886h29.367c0-7.028 0-41.845 0-48.886 0-25.029 20.363-45.392 45.392-45.392s45.392 20.363 45.392 45.392v48.886h29.367c0-7.028 0-41.845 0-48.886.002-41.223-33.536-74.76-74.758-74.76z" fill="#8d9ca8"/><path d="m341.089 362.466h-170.178c-10.316 0-18.678-8.362-18.678-18.678v-121.927c0-10.316 8.362-18.678 18.678-18.678h170.179c10.316 0 18.678 8.363 18.678 18.678v121.927c0 10.315-8.363 18.678-18.679 18.678z" fill="#596c76"/><path d="m282.953 263.162c0-14.886-12.068-26.953-26.953-26.953-14.886 0-26.953 12.067-26.953 26.953 0 9.958 5.405 18.649 13.437 23.315v31.08c0 7.465 6.052 13.517 13.517 13.517s13.517-6.052 13.517-13.517v-31.08c8.031-4.666 13.435-13.357 13.435-23.315z" fill="#384949"/><path d="m341.09 203.183h-29.202c10.316 0 18.678 8.363 18.678 18.678v121.927c0 10.316-8.362 18.678-18.678 18.678h29.202c10.316 0 18.678-8.362 18.678-18.678v-121.927c0-10.316-8.363-18.678-18.678-18.678z" fill="#465a61"/><g><path d="m463.041 64.283c-11.218-.467-22.217-1.268-32.955-2.375 1.384 1.629 2.223 3.732 2.223 6.029v176.406c0 88.645-47.651 170.447-124.761 214.175l-76.391 43.32 11.902 6.749c8.026 4.551 17.853 4.551 25.878 0l78.295-44.4c77.109-43.727 124.761-125.53 124.761-214.175v-176.406c.002-5.006-3.95-9.115-8.952-9.323z" fill="#26a6fe"/></g></g></svg>