<svg id="Capa_1" enable-background="new 0 0 511.998 511.998" height="512" viewBox="0 0 511.998 511.998" width="512" xmlns="http://www.w3.org/2000/svg"><g><path d="m457.286 62.406c-62.609-2.606-146.277-18.261-190.16-58.105-3.054-2.774-7.005-4.301-11.126-4.301-4.12 0-8.071 1.527-11.126 4.3-35.732 32.446-108.599 54.711-190.162 58.106-8.905.371-15.88 7.638-15.88 16.544v103.684c0 4.142 3.357 7.5 7.5 7.5s7.5-3.358 7.5-7.5v-103.684c0-.838.66-1.521 1.503-1.557 86.202-3.588 160.827-26.761 199.622-61.988.598-.542 1.49-.541 2.084 0 47.212 42.866 135.093 59.301 199.622 61.988.843.035 1.503.719 1.503 1.557v171.238c0 83.181-44.948 160.344-117.305 201.376l-76.001 43.099c-5.395 3.06-12.328 3.059-17.723 0l-76.001-43.099c-72.356-41.032-117.304-118.195-117.304-201.376v-32.554c0-4.142-3.357-7.5-7.5-7.5s-7.5 3.358-7.5 7.5v32.554c0 88.571 47.861 170.733 124.906 214.424l76.001 43.099c10.05 5.699 22.405 5.735 32.52 0l76.001-43.099c77.045-43.69 124.906-125.853 124.906-214.424v-171.238c0-8.907-6.975-16.174-15.88-16.544z"/><path d="m173.402 366.847h113.193c4.143 0 7.5-3.358 7.5-7.5s-3.357-7.5-7.5-7.5h-113.193c-5.862 0-10.631-4.769-10.631-10.631v-118.355c0-5.862 4.769-10.631 10.631-10.631h165.193c5.862 0 10.631 4.769 10.631 10.631v118.355c0 5.862-4.769 10.631-10.631 10.631h-17c-4.143 0-7.5 3.358-7.5 7.5s3.357 7.5 7.5 7.5h17c14.133 0 25.631-11.498 25.631-25.631v-118.355c0-14.133-11.498-25.631-25.631-25.631h-2.527v-15.816c0-44.151-35.919-80.07-80.069-80.07s-80.069 35.919-80.069 80.07v15.816h-2.527c-14.133 0-25.631 11.498-25.631 25.631v118.355c0 14.133 11.498 25.631 25.63 25.631zm119.16-169.617h-73.125v-15.816c0-20.161 16.402-36.563 36.563-36.563s36.563 16.402 36.563 36.563v15.816zm-101.632-15.816c0-35.879 29.19-65.07 65.069-65.07s65.069 29.19 65.069 65.07v15.816h-13.507v-15.816c0-28.432-23.131-51.563-51.563-51.563s-51.563 23.131-51.563 51.563v15.816h-13.505z"/><path d="m255.999 336.375c11.37 0 20.621-9.25 20.621-20.621v-26.203c8.138-6.327 13.043-16.161 13.043-26.599 0-18.562-15.102-33.664-33.664-33.664s-33.664 15.102-33.664 33.664c0 10.64 4.916 20.298 13.043 26.601v26.201c0 11.37 9.251 20.621 20.621 20.621zm0-92.086c10.291 0 18.664 8.373 18.664 18.664 0 6.624-3.567 12.811-9.311 16.147-2.311 1.342-3.732 3.813-3.732 6.485v30.169c0 3.099-2.521 5.621-5.621 5.621s-5.621-2.521-5.621-5.621v-30.169c0-2.672-1.422-5.143-3.732-6.485-5.554-3.226-9.311-9.212-9.311-16.147 0-10.292 8.373-18.664 18.664-18.664z"/><path d="m183.451 431.561 64.713 36.697c4.83 2.741 10.834 2.744 15.668.001l64.715-36.698c65.3-37.03 105.864-106.667 105.864-181.735v-135.44c0-8.071-6.045-14.851-14.06-15.77-62.404-7.157-116.373-23.814-156.07-48.172-5.109-3.134-11.456-3.133-16.562 0-39.699 24.358-93.669 41.015-156.073 48.172-8.015.919-14.06 7.698-14.06 15.77v135.44c.001 75.068 40.565 144.704 105.865 181.735zm-90.864-317.175c0-.444.33-.817.769-.868 64.564-7.404 120.655-24.794 162.209-50.289.269-.166.605-.165.872 0 41.551 25.495 97.641 42.885 162.206 50.289.438.05.769.423.769.867v135.44c0 69.678-37.652 134.315-98.263 168.687l-64.717 36.699c-.269.152-.599.151-.867-.001l-64.715-36.698c-60.61-34.372-98.263-99.009-98.263-168.687z"/></g></svg>