<svg id="Capa_1" enable-background="new 0 0 512 512" height="512" viewBox="0 0 512 512" width="512" xmlns="http://www.w3.org/2000/svg"><g><path d="m239.092 495.092c-58.048 0-114.002-21.018-157.555-59.181-3.115-2.729-3.429-7.468-.698-10.583 2.729-3.116 7.468-3.429 10.583-.698 40.816 35.765 93.26 55.462 147.67 55.462 63.17 0 122.66-26.354 165.092-72.56 4.689-5.105 4.519-13.171-.767-18.028-5.066-4.651-13.138-4.555-18.028.769-37.37 40.69-89.807 64.301-146.297 64.301-109.494 0-198.574-89.08-198.574-198.575 0-108.755 87.368-196.423 194.61-198.536 4.165-.065 7.564 3.21 7.646 7.351.082 4.142-3.209 7.565-7.351 7.646-99.2 1.955-179.905 84.29-179.905 183.54 0 101.224 82.352 183.575 183.574 183.575 51.257 0 100.553-21.668 135.25-59.448 10.341-11.258 27.907-12.061 39.222-1.669 11.236 10.319 12.08 27.885 1.668 39.222-45.211 49.23-108.674 77.412-176.14 77.412zm-182.832-84.934c-36.28-42.996-56.26-97.744-56.26-154.158 0-132.236 106.83-239.092 239.092-239.092 120.407 0 219.27 88.671 236.438 203.27l22.921 2.53c7.725.853 13.55 7.364 13.55 15.145 0 3.265-1.041 6.392-3.01 9.042l-59.735 80.417c-2.898 3.903-7.343 6.141-12.193 6.141-6.01 0-11.47-3.542-13.91-9.023-44.482-99.872-42.084-93.268-42.084-97.705 0-8.383 6.813-15.204 15.186-15.204 1.172 0-.064-.101 21.521 2.281-16.898-71.691-75.566-126.933-148.862-138.956-4.088-.67-6.857-4.527-6.188-8.615.671-4.087 4.527-6.863 8.615-6.187 82.902 13.598 148.506 78.311 163.246 161.029.877 4.916-3.222 9.321-8.207 8.771-.57-.063-30.514-3.545-30.281-3.02 8.322 18.685 37.431 84.041 40.755 91.504.032.073.056.125.207.125.086 0 .099-.014.152-.085 61.849-83.261 59.787-80.515 59.787-80.515 0-.05-.015-.215-.196-.235l-28.734-3.172c-3.452-.381-6.191-3.083-6.619-6.53-13.879-111.744-109.472-196.008-222.359-196.008-123.565 0-224.092 100.527-224.092 224.092 0 52.878 18.725 104.19 52.725 144.485 2.671 3.166 2.27 7.897-.896 10.568-3.158 2.667-7.891 2.278-10.569-.895z"/></g></svg>