<svg id="Capa_1" enable-background="new 0 0 512 512" height="512" viewBox="0 0 512 512" width="512" xmlns="http://www.w3.org/2000/svg"><g><g><path d="m90.131 487.309h-17c-4.142 0-7.5-3.358-7.5-7.5s3.358-7.5 7.5-7.5h17c2.481 0 4.5-2.019 4.5-4.5v-168.5c0-2.481-2.019-4.5-4.5-4.5h-70.631c-2.481 0-4.5 2.019-4.5 4.5v168.5c0 2.481 2.019 4.5 4.5 4.5h18.631c4.142 0 7.5 3.358 7.5 7.5s-3.358 7.5-7.5 7.5h-18.631c-10.752 0-19.5-8.748-19.5-19.5v-168.5c0-10.752 8.748-19.5 19.5-19.5h70.631c10.752 0 19.5 8.748 19.5 19.5v168.5c0 10.753-8.747 19.5-19.5 19.5z"/></g><g><path d="m224.254 487.309h-70.631c-10.752 0-19.5-8.748-19.5-19.5v-253.539c0-10.752 8.748-19.5 19.5-19.5h70.631c10.752 0 19.5 8.748 19.5 19.5v253.54c0 10.752-8.748 19.499-19.5 19.499zm-70.631-277.539c-2.481 0-4.5 2.019-4.5 4.5v253.54c0 2.481 2.019 4.5 4.5 4.5h70.631c2.481 0 4.5-2.019 4.5-4.5v-253.54c0-2.481-2.019-4.5-4.5-4.5z"/></g><g><path d="m358.377 487.309h-70.631c-10.752 0-19.5-8.748-19.5-19.5v-338.579c0-10.752 8.748-19.5 19.5-19.5h70.631c10.752 0 19.5 8.748 19.5 19.5v338.579c0 10.753-8.748 19.5-19.5 19.5zm-70.631-362.579c-2.481 0-4.5 2.019-4.5 4.5v338.579c0 2.481 2.019 4.5 4.5 4.5h70.631c2.481 0 4.5-2.019 4.5-4.5v-338.579c0-2.481-2.019-4.5-4.5-4.5z"/></g><g><path d="m492.5 487.309h-70.631c-10.752 0-19.5-8.748-19.5-19.5v-423.618c0-10.752 8.748-19.5 19.5-19.5h70.631c10.752 0 19.5 8.748 19.5 19.5v89.548c0 4.142-3.358 7.5-7.5 7.5s-7.5-3.358-7.5-7.5v-89.548c0-2.481-2.019-4.5-4.5-4.5h-70.631c-2.481 0-4.5 2.019-4.5 4.5v423.618c0 2.481 2.019 4.5 4.5 4.5h70.631c2.481 0 4.5-2.019 4.5-4.5v-299.07c0-4.142 3.358-7.5 7.5-7.5s7.5 3.358 7.5 7.5v299.07c0 10.753-8.748 19.5-19.5 19.5z"/></g></g></svg>