<svg id="Capa_1" enable-background="new 0 0 512 512" height="512" viewBox="0 0 512 512" width="512" xmlns="http://www.w3.org/2000/svg"><g id="_x31_7_signal"><path d="m85.125 486.564h-72.763c-6.827 0-12.362-5.535-12.362-12.362v-173.586c0-6.827 5.535-12.362 12.362-12.362h72.763c6.827 0 12.362 5.535 12.362 12.362v173.586c0 6.827-5.534 12.362-12.362 12.362z" fill="#c4e2ff"/><path d="m223.296 486.564h-72.763c-6.827 0-12.362-5.535-12.362-12.362v-261.192c0-6.827 5.535-12.362 12.362-12.362h72.763c6.827 0 12.362 5.535 12.362 12.362v261.191c0 6.828-5.535 12.363-12.362 12.363z" fill="#8ac9fe"/><path d="m361.467 486.564h-72.763c-6.827 0-12.362-5.535-12.362-12.362v-348.798c0-6.827 5.535-12.362 12.362-12.362h72.763c6.827 0 12.362 5.535 12.362 12.362v348.797c0 6.828-5.535 12.363-12.362 12.363z" fill="#60b7ff"/><path d="m499.638 486.564h-72.763c-6.827 0-12.362-5.535-12.362-12.362v-436.404c0-6.827 5.535-12.362 12.362-12.362h72.763c6.827 0 12.362 5.535 12.362 12.362v436.403c0 6.828-5.535 12.363-12.362 12.363z" fill="#26a6fe"/><path d="m499.638 25.436h-39.685c6.827 0 12.362 5.535 12.362 12.362v436.403c0 6.827-5.535 12.362-12.362 12.362h39.685c6.827 0 12.362-5.535 12.362-12.362v-436.403c0-6.827-5.535-12.362-12.362-12.362z" fill="#0593fc"/><path d="m361.467 113.042h-39.685c6.827 0 12.362 5.535 12.362 12.362v348.797c0 6.827-5.535 12.362-12.362 12.362h39.685c6.827 0 12.362-5.535 12.362-12.362v-348.797c0-6.827-5.535-12.362-12.362-12.362z" fill="#26a6fe"/><path d="m223.296 200.648h-39.685c6.827 0 12.362 5.535 12.362 12.362v261.191c0 6.827-5.535 12.362-12.362 12.362h39.685c6.827 0 12.362-5.535 12.362-12.362v-261.191c0-6.827-5.535-12.362-12.362-12.362z" fill="#60b7ff"/><path d="m85.125 288.254h-39.685c6.827 0 12.362 5.535 12.362 12.362v173.586c0 6.827-5.535 12.362-12.362 12.362h39.685c6.827 0 12.362-5.535 12.362-12.362v-173.586c0-6.827-5.534-12.362-12.362-12.362z" fill="#8ac9fe"/></g></svg>