<svg id="Capa_1" enable-background="new 0 0 512 512" height="512" viewBox="0 0 512 512" width="512" xmlns="http://www.w3.org/2000/svg"><g><path d="m126.635 245.595c-6.326 0-11.473 5.146-11.473 11.473v131.168c0 6.326 5.146 11.473 11.473 11.473h46.864c6.326 0 11.473-5.146 11.473-11.473v-131.169c0-6.326-5.146-11.473-11.473-11.473h-46.864zm43.337 139.113h-39.809v-124.113h39.809z"/><path d="m211.934 245.595c-6.326 0-11.473 5.146-11.473 11.473v131.168c0 6.326 5.146 11.473 11.473 11.473h46.864c6.326 0 11.473-5.146 11.473-11.473v-131.169c0-6.326-5.146-11.473-11.473-11.473h-46.864zm43.337 139.113h-39.81v-124.113h39.81z"/><path d="m344.096 245.595h-46.863c-6.326 0-11.473 5.146-11.473 11.473v131.168c0 6.326 5.146 11.473 11.473 11.473h46.863c6.326 0 11.473-5.146 11.473-11.473v-131.169c-.001-6.326-5.147-11.472-11.473-11.472zm-3.528 139.113h-39.808v-124.113h39.809v124.113z"/><path d="m382.53 399.708h46.864c6.326 0 11.473-5.146 11.473-11.473v-131.168c0-6.326-5.146-11.473-11.473-11.473h-46.864c-6.326 0-11.473 5.146-11.473 11.473v131.168c.001 6.327 5.147 11.473 11.473 11.473zm3.528-139.113h39.81v124.113h-39.81z"/><path d="m495.867 262.367h-20.257v-30.614c0-11.544-9.393-20.936-20.937-20.936h-322.081c5.278-9.873 8.281-21.137 8.281-33.093v-61.732c0-6.89-5.605-12.495-12.495-12.495h-8.138v-35.184c0-11.847-9.639-21.486-21.486-21.486-11.848 0-21.486 9.639-21.486 21.486v35.183h-12.664v-34.184c0-12.398-10.086-22.485-22.485-22.485s-22.485 10.087-22.485 22.485v34.184h-7.139c-6.89 0-12.495 5.606-12.495 12.495v61.732c0 10.567 2.285 20.731 6.792 30.21 1.778 3.741 6.253 5.333 9.994 3.553 3.741-1.778 5.332-6.253 3.553-9.994-3.543-7.45-5.339-15.447-5.339-23.768v-59.228h110.874v59.228c0 29.444-23.079 53.629-52.165 55.332-.26.015-.52.03-.779.041-11.157.497-22.53-2.323-32.488-8.744-3.48-2.243-8.123-1.243-10.368 2.239-2.245 3.481-1.242 8.123 2.239 10.368 4.16 2.682 8.565 4.896 13.143 6.632v196.581c0 13.785 11.207 25 24.982 25s24.982-11.215 24.982-25v-6.556c1.884.558 3.873.87 5.936.87h242.347c4.143 0 7.5-3.358 7.5-7.5s-3.357-7.5-7.5-7.5h-242.348c-3.273 0-5.936-2.663-5.936-5.937v-169.968c10.073-3.814 19.39-10.194 26.463-17.765h332.792c3.273 0 5.937 2.663 5.937 5.936v38.114 143.683c0 3.273-2.663 5.937-5.937 5.937h-75.972c-4.143 0-7.5 3.358-7.5 7.5s3.357 7.5 7.5 7.5h75.972c11.544 0 20.937-9.392 20.937-20.937v-30.614h20.257c8.896 0 16.133-7.237 16.133-16.133v-88.303c-.001-8.896-7.238-16.133-16.134-16.133zm-446.263-158.871h-14.97v-34.184c0-4.127 3.358-7.485 7.485-7.485s7.485 3.358 7.485 7.485zm55.637 0h-12.972v-35.183c0-3.576 2.91-6.486 6.486-6.486s6.486 2.91 6.486 6.486zm-24.822 336.677c0 5.514-4.478 10-9.982 10s-9.982-4.486-9.982-10v-192.719c6.758.961 13.601.907 19.965-.006-.001 7.137-.001 185.894-.001 192.725zm416.581-73.37c0 .625-.508 1.133-1.133 1.133h-20.257v-90.569h20.257c.625 0 1.133.508 1.133 1.133z"/></g></svg>