<svg id="Capa_1" enable-background="new 0 0 512 512" height="512" viewBox="0 0 512 512" width="512" xmlns="http://www.w3.org/2000/svg"><g id="_x31_8_battery"><path d="m46.826 225.667v11.976 13.357 194.732c0 9.957 8.063 18.028 18.01 18.028 9.947 0 18.01-8.072 18.01-18.028 0-5.984 0-148.42 0-194.732 0-6.693 0-11.381 0-13.357v-11.976z" fill="#596c76"/><g fill="#c4e2ff"><path d="m51.101 116h-30.875v-52.323c0-8.526 6.911-15.437 15.437-15.437 8.526 0 15.437 6.911 15.437 15.437v52.323z"/><path d="m109.446 116h-30.874v-52.323c0-8.526 6.911-15.437 15.437-15.437 8.526 0 15.437 6.911 15.437 15.437z"/></g><path d="m460.671 217.18h-363.983c-7.645 0-13.842 6.197-13.842 13.842v187.284c0 7.645 6.197 13.842 13.842 13.842h363.983c7.645 0 13.842-6.197 13.842-13.842v-187.285c-.001-7.644-6.198-13.841-13.842-13.841z" fill="#d8ecfe"/><path d="m118.638 392.226v-135.126c0-2.26 1.832-4.093 4.093-4.093h48.278c2.26 0 4.093 1.832 4.093 4.093v135.127c0 2.26-1.832 4.093-4.093 4.093h-48.278c-2.261-.001-4.093-1.834-4.093-4.094z" fill="#8ac9fe"/><path d="m206.511 392.226v-135.126c0-2.26 1.832-4.093 4.093-4.093h48.278c2.26 0 4.093 1.832 4.093 4.093v135.127c0 2.26-1.832 4.093-4.093 4.093h-48.278c-2.261-.001-4.093-1.834-4.093-4.094z" fill="#60b7ff"/><path d="m54.5 225.667v220.065c0 4.19-1.441 8.037-3.837 11.098 3.297 4.213 8.413 6.93 14.173 6.93 9.947 0 18.01-8.072 18.01-18.028 0-6.386 0-214.888 0-220.065z" fill="#465a61"/><path d="m294.384 392.226v-135.126c0-2.26 1.832-4.093 4.093-4.093h48.278c2.26 0 4.093 1.832 4.093 4.093v135.127c0 2.26-1.832 4.093-4.093 4.093h-48.278c-2.261-.001-4.093-1.834-4.093-4.094z" fill="#26a6fe"/><path d="m382.257 392.226v-135.126c0-2.26 1.832-4.093 4.093-4.093h48.278c2.26 0 4.093 1.832 4.093 4.093v135.127c0 2.26-1.832 4.093-4.093 4.093h-48.278c-2.261-.001-4.093-1.834-4.093-4.094z" fill="#0593fc"/><path d="m503.106 270.285h-28.594v108.756h28.594c4.912 0 8.894-3.982 8.894-8.894v-90.968c0-4.912-3.982-8.894-8.894-8.894z" fill="#c4e2ff"/><path d="m64.836 240.197c-35.808 0-64.836-29.028-64.836-64.836v-63.596c0-2.842 2.304-5.146 5.146-5.146h119.381c2.842 0 5.146 2.304 5.146 5.146v63.596c-.001 35.808-29.029 64.836-64.837 64.836z" fill="#7a8c98"/><path d="m64.836 240.197c-35.808 0-64.836-29.028-64.836-64.836v-63.596c0-2.842 2.304-5.146 5.146-5.146h119.381c2.842 0 5.146 2.304 5.146 5.146v63.596c-.001 35.808-29.029 64.836-64.837 64.836z" fill="#8d9ca8"/><path d="m124.527 106.62h-34.016c2.842 0 5.146 2.304 5.146 5.146v63.596c0 29.92-20.273 55.093-47.828 62.567 5.422 1.471 11.12 2.27 17.008 2.27 35.808 0 64.836-29.028 64.836-64.836v-63.596c-.001-2.843-2.304-5.147-5.146-5.147z" fill="#7a8c98"/><path d="m460.671 217.18h-35.792c7.645 0 13.842 6.197 13.842 13.842v187.284c0 7.645-6.197 13.842-13.842 13.842h35.792c7.645 0 13.842-6.197 13.842-13.842v-187.285c-.001-7.644-6.198-13.841-13.842-13.841z" fill="#c4e2ff"/></g></svg>