<svg id="Capa_1" enable-background="new 0 0 512 512" height="512" viewBox="0 0 512 512" width="512" xmlns="http://www.w3.org/2000/svg"><g><path d="m429.728 48.781h-113.711v-22.745c0-14.356-11.68-26.036-26.037-26.036h-67.96c-14.356 0-26.036 11.68-26.036 26.036v22.745h-31.294c-4.143 0-7.5 3.358-7.5 7.5s3.357 7.5 7.5 7.5h38.794 105.033 119.663l-1.328 31.66c-3.344 0-337.762 0-341.703 0l-1.328-31.66h45.869c4.143 0 7.5-3.358 7.5-7.5s-3.357-7.5-7.5-7.5h-47.418c-7.444 0-13.5 6.217-13.5 13.858 0 .195.004.392.013.602l1.423 33.932c.31 7.44 6.233 13.268 13.486 13.268h5.248l16.018 382.212c.454 10.849 9.012 19.347 19.481 19.347h263.115c10.47 0 19.027-8.498 19.481-19.347l7.01-167.267c.174-4.139-3.041-7.634-7.179-7.808-4.142-.168-7.635 3.041-7.808 7.18l-7.01 167.267c-.117 2.79-2.092 4.975-4.495 4.975h-263.113c-2.403 0-4.378-2.185-4.495-4.975l-15.991-381.584h304.088l-7.516 179.348c-.174 4.139 3.041 7.634 7.179 7.808 4.132.181 7.634-3.041 7.808-7.18l7.543-179.976h5.248c7.253 0 13.177-5.828 13.486-13.266l1.424-33.944c.008-.198.012-.395.012-.591 0-7.642-6.056-13.859-13.5-13.859zm-218.745 0v-22.745c0-6.085 4.951-11.036 11.036-11.036h67.961c6.085 0 11.036 4.951 11.036 11.036v22.745z"/><path d="m232.5 152.927v303c0 12.958 10.542 23.5 23.5 23.5s23.5-10.542 23.5-23.5v-303c0-12.958-10.542-23.5-23.5-23.5s-23.5 10.542-23.5 23.5zm32 0v303c0 4.687-3.813 8.5-8.5 8.5s-8.5-3.813-8.5-8.5v-303c0-4.687 3.813-8.5 8.5-8.5s8.5 3.813 8.5 8.5z"/><path d="m153.13 152.927v303c0 12.958 10.542 23.5 23.5 23.5s23.5-10.542 23.5-23.5v-303c0-12.958-10.542-23.5-23.5-23.5s-23.5 10.542-23.5 23.5zm32 0v303c0 4.687-3.813 8.5-8.5 8.5s-8.5-3.813-8.5-8.5v-303c0-4.687 3.813-8.5 8.5-8.5s8.5 3.813 8.5 8.5z"/><path d="m311.87 152.927v303c0 12.958 10.542 23.5 23.5 23.5s23.5-10.542 23.5-23.5v-303c0-12.958-10.542-23.5-23.5-23.5s-23.5 10.542-23.5 23.5zm32 0v303c0 4.687-3.813 8.5-8.5 8.5s-8.5-3.813-8.5-8.5v-303c0-4.687 3.813-8.5 8.5-8.5s8.5 3.813 8.5 8.5z"/></g></svg>