<svg id="Capa_1" enable-background="new 0 0 512 512" height="512" viewBox="0 0 512 512" width="512" xmlns="http://www.w3.org/2000/svg"><g><path d="m500.382 48.83c0-11.059-8.997-20.056-20.057-20.056h-25.24v-8.718c0-11.059-8.997-20.056-20.056-20.056h-262c-4.143 0-7.5 3.358-7.5 7.5s3.357 7.5 7.5 7.5h262c2.788 0 5.056 2.268 5.056 5.056v471.889c0 2.788-2.268 5.056-5.056 5.056h-63.172c-4.143 0-7.5 3.358-7.5 7.5s3.357 7.5 7.5 7.5h63.172c11.059 0 20.056-8.997 20.056-20.056v-7.829h25.24c11.06 0 20.057-8.997 20.057-20.056v-84.974c0-4.751-1.669-9.116-4.44-12.556 2.771-3.44 4.44-7.804 4.44-12.556v-84.974c0-4.751-1.669-9.116-4.44-12.556 2.771-3.44 4.44-7.804 4.44-12.556v-84.974c0-4.751-1.669-9.116-4.44-12.556 2.771-3.44 4.44-7.804 4.44-12.556zm-20.057-5.057c2.788 0 5.057 2.268 5.057 5.056v84.974c0 2.788-2.269 5.056-5.057 5.056h-25.24v-95.086zm5.057 115.142v84.974c0 2.788-2.269 5.056-5.057 5.056h-25.24v-95.085h25.24c2.788-.001 5.057 2.267 5.057 5.055zm0 110.085v84.974c0 2.788-2.269 5.056-5.057 5.056h-25.24v-95.085h25.24c2.788 0 5.057 2.268 5.057 5.055zm0 195.06c0 2.788-2.269 5.056-5.057 5.056h-25.24v-95.086h25.24c2.788 0 5.057 2.268 5.057 5.056z"/><path d="m336.857 497h-253.389c-1.492 0-2.562-.619-3.197-1.138 0 0-.001-.001-.001-.001-1.181-.966-1.858-2.394-1.858-3.917v-29.3h23.104c15.822 0 28.688-12.872 28.688-28.688 0-15.815-12.865-28.688-28.688-28.688h-23.105v-61.261h23.104c15.818 0 28.688-12.869 28.688-28.688 0-15.817-12.867-28.688-28.688-28.688h-23.104v-61.262h23.104c15.817 0 28.688-12.866 28.688-28.688 0-15.855-12.904-28.688-28.688-28.688h-23.104v-61.261h23.104c15.822 0 28.688-12.872 28.688-28.688 0-15.815-12.865-28.688-28.688-28.688h-23.104v-29.3c0-2.788 2.268-5.056 5.056-5.056h54.563c4.143 0 7.5-3.358 7.5-7.5s-3.357-7.5-7.5-7.5h-54.563c-11.059 0-20.056 8.997-20.056 20.056v29.3h-23.104c-15.819 0-28.688 12.869-28.688 28.688s12.869 28.688 28.688 28.688h23.104v61.262h-23.104c-15.819 0-28.688 12.869-28.688 28.688s12.869 28.688 28.688 28.688h23.104v61.262h-23.104c-15.819 0-28.688 12.869-28.688 28.688 0 15.818 12.869 28.688 28.688 28.688h23.104v61.262h-23.104c-15.819 0-28.688 12.869-28.688 28.688s12.869 28.688 28.688 28.688h23.104v29.3c0 11.201 9.098 20.053 20.056 20.056h253.391c4.143 0 7.5-3.358 7.5-7.5s-3.358-7.502-7.501-7.502zm-310.239-418.956c0-7.547 6.141-13.688 13.688-13.688h61.209c7.546 0 13.688 6.139 13.688 13.688 0 7.547-6.141 13.688-13.688 13.688-6.492 0-54.793 0-61.209 0-7.547 0-13.688-6.141-13.688-13.688zm0 118.637c0-7.547 6.141-13.688 13.688-13.688h61.209c7.548 0 13.688 6.141 13.688 13.688s-6.141 13.688-13.688 13.688c-6.492 0-54.793 0-61.209 0-7.547 0-13.688-6.14-13.688-13.688zm0 118.638c0-7.547 6.141-13.688 13.688-13.688h61.209c7.548 0 13.688 6.141 13.688 13.688 0 7.546-6.14 13.688-13.688 13.688h-61.208c-7.548-.001-13.689-6.141-13.689-13.688zm0 118.637c0-7.547 6.141-13.688 13.688-13.688h61.209c7.548 0 13.688 6.141 13.688 13.688 0 7.548-6.142 13.688-13.688 13.688-6.492 0-54.793 0-61.209 0-7.547 0-13.688-6.141-13.688-13.688z"/><g><path d="m376.391 396.001h-182.493c-13.77 0-24.973-11.203-24.973-24.973v-230.056c0-13.77 11.203-24.973 24.973-24.973h182.492c13.77 0 24.973 11.203 24.973 24.973v230.057c0 13.769-11.203 24.972-24.972 24.972zm-182.493-265.002c-5.499 0-9.973 4.474-9.973 9.973v230.057c0 5.499 4.474 9.973 9.973 9.973h182.492c5.499 0 9.973-4.474 9.973-9.973v-230.057c0-5.499-4.474-9.973-9.973-9.973z"/></g><g><path d="m310.765 358.534c-17.535 0-34.61-9.092-43.99-25.338l-55.346-95.861c-13.977-24.21-5.652-55.276 18.557-69.253l21.629-12.487c7.66-4.422 17.438-1.803 21.859 5.857l18.729 32.438c4.06 7.033 1.642 16.057-5.391 20.117l-8.861 5.116c-2.95 1.704-3.965 5.49-2.262 8.441l31.678 54.866c1.706 2.955 5.482 3.971 8.44 2.262l8.861-5.116c7.065-4.079 16.055-1.645 20.117 5.391l18.729 32.438c4.411 7.642 1.784 17.448-5.857 21.859-22.211 12.823-30.321 19.27-46.892 19.27zm-51.158-190.086c-.171 0-.336.045-.493.136l-21.629 12.487c-17.046 9.841-22.907 31.716-13.066 48.763l55.346 95.861c9.842 17.046 31.719 22.906 48.763 13.066l21.629-12.488c.479-.276.644-.891.367-1.37l-18.592-32.201-8.625 4.979c-10.137 5.855-23.078 2.386-28.931-7.752l-31.678-54.867c-5.838-10.114-2.36-23.092 7.752-28.931l8.625-4.979-18.592-32.202c-.138-.238-.343-.396-.608-.467-.091-.023-.18-.035-.268-.035z"/></g></g></svg>