<svg id="Capa_1" enable-background="new 0 0 512 512" height="512" viewBox="0 0 512 512" width="512" xmlns="http://www.w3.org/2000/svg"><g><path d="m487.096 143.05h-78.686v-113.408h78.686c7.144 0 12.935 5.791 12.935 12.935v87.539c0 7.143-5.791 12.934-12.935 12.934z" fill="#c4e2ff"/><path d="m487.096 256.458h-78.686v-113.408h78.686c7.144 0 12.935 5.791 12.935 12.935v87.539c0 7.143-5.791 12.934-12.935 12.934z" fill="#b3dafe"/><path d="m487.096 369.866h-78.686v-113.408h78.686c7.144 0 12.935 5.791 12.935 12.935v87.539c0 7.143-5.791 12.934-12.935 12.934z" fill="#8ac9fe"/><path d="m487.096 483.274h-78.686v-113.408h78.686c7.144 0 12.935 5.791 12.935 12.935v87.539c0 7.143-5.791 12.934-12.935 12.934z" fill="#60b7ff"/><path d="m440.432 512h-362.172c-7.144 0-12.935-5.791-12.935-12.935v-486.13c0-7.144 5.791-12.935 12.935-12.935h362.173c7.144 0 12.935 5.791 12.935 12.935v486.131c-.001 7.143-5.792 12.934-12.936 12.934z" fill="#fe646f"/><g fill="#ffc4c8"><path d="m96.853 338.936h-63.057c-12.055 0-21.827-9.772-21.827-21.827 0-12.055 9.772-21.827 21.827-21.827h63.057c12.055 0 21.827 9.772 21.827 21.827.001 12.055-9.772 21.827-21.827 21.827z"/><path d="m96.853 216.718h-63.057c-12.055 0-21.827-9.772-21.827-21.827 0-12.055 9.772-21.827 21.827-21.827h63.057c12.055 0 21.827 9.772 21.827 21.827.001 12.055-9.772 21.827-21.827 21.827z"/><path d="m96.853 461.154h-63.057c-12.055 0-21.827-9.772-21.827-21.827 0-12.055 9.772-21.827 21.827-21.827h63.057c12.055 0 21.827 9.772 21.827 21.827.001 12.055-9.772 21.827-21.827 21.827z"/><path d="m96.853 94.5h-63.057c-12.055 0-21.827-9.772-21.827-21.827 0-12.055 9.772-21.827 21.827-21.827h63.057c12.055 0 21.827 9.772 21.827 21.827.001 12.055-9.772 21.827-21.827 21.827z"/></g><path d="m440.432 0h-39.685c7.144 0 12.935 5.791 12.935 12.935v486.13c0 7.144-5.791 12.935-12.935 12.935h39.685c7.144 0 12.935-5.791 12.935-12.935v-486.13c0-7.144-5.791-12.935-12.935-12.935z" fill="#fd4755"/><path d="m96.853 295.282h-34.015c12.055 0 21.827 9.772 21.827 21.827 0 12.055-9.772 21.827-21.827 21.827h34.016c12.055 0 21.827-9.772 21.827-21.827 0-12.055-9.773-21.827-21.828-21.827z" fill="#fdb4ba"/><path d="m96.853 173.064h-34.015c12.055 0 21.827 9.772 21.827 21.827 0 12.055-9.772 21.827-21.827 21.827h34.016c12.055 0 21.827-9.772 21.827-21.827 0-12.055-9.773-21.827-21.828-21.827z" fill="#fdb4ba"/><path d="m96.853 417.5h-34.015c12.055 0 21.827 9.772 21.827 21.827 0 12.055-9.772 21.827-21.827 21.827h34.016c12.055 0 21.827-9.772 21.827-21.827 0-12.055-9.773-21.827-21.828-21.827z" fill="#fdb4ba"/><path d="m96.853 50.846h-34.015c12.055 0 21.827 9.772 21.827 21.827 0 12.055-9.772 21.827-21.827 21.827h34.016c12.055 0 21.827-9.772 21.827-21.827 0-12.055-9.773-21.827-21.828-21.827z" fill="#fdb4ba"/><path d="m351.344 392.5h-188c-9.941 0-18-8.059-18-18v-237c0-9.941 8.059-18 18-18h188c9.941 0 18 8.059 18 18v237c0 9.941-8.059 18-18 18z" fill="#fd8087"/><path d="m344.454 334.966-22.698-39.314c-2.419-4.189-7.776-5.625-11.965-3.206l-10.739 6.2c-7.93 4.578-18.069 1.861-22.647-6.068l-38.392-66.498c-4.578-7.929-1.861-18.069 6.068-22.647l10.739-6.2c4.189-2.419 5.625-7.776 3.206-11.965l-22.698-39.314c-2.846-4.929-9.148-6.617-14.076-3.772l-9.4 5.427-16.814 9.707c-25.04 14.457-33.62 46.476-19.163 71.516l67.078 116.182c14.457 25.04 46.476 33.62 71.516 19.163l16.813-9.707 9.401-5.427c4.928-2.846 6.617-9.148 3.771-14.077z" fill="#fd4755"/></g></svg>