<svg id="Capa_1" enable-background="new 0 0 512 512" height="512" viewBox="0 0 512 512" width="512" xmlns="http://www.w3.org/2000/svg"><g id="_x32_1_favorite"><path d="m383.872 53.087c-61.574 0-112.974 43.524-125.136 101.483-.627 2.987-4.845 2.989-5.472 0-12.162-57.959-63.561-101.483-125.135-101.483h-.001c-117.55 0-172.819 145.266-84.998 223.403l199.174 177.212c7.809 6.948 19.582 6.948 27.391 0l199.175-177.212c87.821-78.137 32.552-223.403-84.998-223.403z" fill="#fe646f"/><g><path d="m383.872 53.087c-7.121 0-14.103.589-20.906 1.708 102.375 16.473 145.63 148.519 63.384 221.695l-191.61 170.482 7.564 6.73c7.809 6.948 19.582 6.948 27.391 0l199.175-177.212c87.821-78.137 32.552-223.403-84.998-223.403z" fill="#fd4755"/></g></g></svg>