<svg id="Capa_1" enable-background="new 0 0 512 512" height="512" viewBox="0 0 512 512" width="512" xmlns="http://www.w3.org/2000/svg"><g id="_x32_2_bookmark"><path d="m429.555 20.818v478.67c0 9.964-11.095 15.917-19.398 10.408l-150.667-99.989c-2.115-1.403-4.865-1.403-6.979 0l-150.668 99.989c-8.303 5.51-19.398-.443-19.398-10.408v-478.67c0-11.497 9.321-20.818 20.818-20.818h305.474c11.497 0 20.818 9.321 20.818 20.818z" fill="#60b7ff"/><path d="m267.201 109.03 24.552 49.747c1.819 3.687 5.336 6.242 9.405 6.833l54.899 7.977c10.245 1.489 14.336 14.079 6.923 21.305l-39.726 38.723c-2.944 2.87-4.287 7.004-3.592 11.056l9.378 54.678c1.75 10.204-8.96 17.985-18.124 13.168l-49.104-25.815c-3.639-1.913-7.986-1.913-11.625 0l-49.104 25.815c-9.164 4.818-19.874-2.964-18.124-13.168l9.378-54.678c.695-4.052-.648-8.186-3.592-11.056l-39.726-38.723c-7.414-7.226-3.323-19.817 6.923-21.305l54.899-7.977c4.068-.591 7.585-3.146 9.405-6.833l24.552-49.747c4.583-9.284 17.821-9.284 22.403 0z" fill="#ffd15b"/><g><path d="m408.737 0h-39.685c11.497 0 20.818 9.321 20.818 20.818v475.614l20.287 13.463c8.303 5.51 19.398-.443 19.398-10.408v-478.669c0-11.497-9.321-20.818-20.818-20.818z" fill="#26a6fe"/></g></g></svg>