<svg id="Capa_1" enable-background="new 0 0 512 512" height="512" viewBox="0 0 512 512" width="512" xmlns="http://www.w3.org/2000/svg"><g><g><path d="m436.496 470.622h-327.113c-8.85 0-16.024-7.174-16.024-16.024v-431.074c0-8.85 7.174-16.024 16.024-16.024h327.113c8.85 0 16.024 7.174 16.024 16.024v431.074c-.001 8.85-7.175 16.024-16.024 16.024z" fill="#26a6fe"/><path d="m325.939 43.368-1.99-1.99h-248.445c-8.85 0-16.024 7.174-16.024 16.024v431.074c0 8.85 7.174 16.024 16.024 16.024h327.113c8.85 0 16.024-7.174 16.024-16.024v-352.406z" fill="#d8ecfe"/><g fill="#7a8c98"><path d="m235.543 346.922c2.234 3.475 7.313 3.475 9.547 0l61.759-96.07c2.428-3.777-.284-8.743-4.773-8.743h-31.021v-115.889c0-3.134-2.541-5.675-5.675-5.675h-50.126c-3.134 0-5.675 2.541-5.675 5.675v115.888h-31.021c-4.49 0-7.201 4.967-4.773 8.743z"/><path d="m350.367 295.145h-18.297c-5.523 0-10 4.477-10 10v67.529c0 2.7-2.189 4.889-4.889 4.889h-153.729c-2.7 0-4.889-2.189-4.889-4.889v-67.529c0-5.523-4.477-10-10-10h-18.297c-5.523 0-10 4.477-10 10v95.714c0 8.284 6.716 15 15 15h210.101c8.284 0 15-6.716 15-15v-95.714c0-5.523-4.477-10-10-10z"/></g><g fill="#c4e2ff"><path d="m380.118 97.548v38.522 73.359 279.048c0 8.85-7.174 16.024-16.024 16.024h38.522c8.85 0 16.024-7.174 16.024-16.024v-352.407z"/><path d="m323.949 41.378v78.668c0 8.85 7.174 16.024 16.024 16.024h78.668l-1.99-1.99z"/></g></g><g><path d="m452.52 69.335c4.143 0 7.5-3.358 7.5-7.5v-38.312c0-12.97-10.553-23.523-23.525-23.523h-327.112c-12.971 0-23.524 10.553-23.524 23.523v10.355h-10.355c-12.971 0-23.523 10.553-23.523 23.523v313.562c0 4.142 3.357 7.5 7.5 7.5s7.5-3.358 7.5-7.5v-313.561c0-4.7 3.823-8.523 8.523-8.523h240.945v71.168c0 12.971 10.553 23.523 23.523 23.523h71.168v344.907c0 4.7-3.823 8.523-8.523 8.523h-327.113c-4.7 0-8.523-3.824-8.523-8.523v-82.513c0-4.142-3.357-7.5-7.5-7.5s-7.5 3.358-7.5 7.5v82.513c-.001 12.97 10.552 23.523 23.523 23.523h327.113c12.971 0 23.523-10.553 23.523-23.523v-10.355h10.354c12.972 0 23.524-10.553 23.524-23.523v-357.764c0-4.142-3.357-7.5-7.5-7.5s-7.5 3.358-7.5 7.5v357.763c0 4.7-3.824 8.523-8.524 8.523h-10.354v-327.051c0-1.876-.749-3.857-2.196-5.303l-94.691-94.691c-1.202-1.202-2.865-2.04-4.792-2.172-.558-.038-223.042-.025-223.601-.025v-10.356c0-4.7 3.823-8.523 8.523-8.523h327.112c4.7 0 8.524 3.824 8.524 8.523v38.312c.001 4.143 3.358 7.5 7.501 7.5zm-121.071-9.85 69.085 69.085h-60.562c-4.7 0-8.523-3.824-8.523-8.523z"/><g><g><path d="m240.318 357.028c-4.504 0-8.647-2.261-11.084-6.049 0 0 0 0 0-.001l-61.759-96.07c-2.607-4.056-2.792-9.205-.481-13.438 2.311-4.232 6.741-6.861 11.563-6.861h23.521v-108.389c0-7.265 5.91-13.175 13.175-13.175h50.126c7.265 0 13.175 5.91 13.175 13.175v108.388h23.521c4.822 0 9.253 2.629 11.563 6.862s2.126 9.381-.481 13.437l-61.76 96.07c-2.433 3.789-6.576 6.05-11.079 6.051zm-58.417-107.42 58.415 90.869 58.416-90.869h-27.678c-4.143 0-7.5-3.358-7.5-7.5v-114.063h-46.476v114.063c0 4.142-3.357 7.5-7.5 7.5z"/></g><g><path d="m345.367 423.359h-210.1c-12.406 0-22.5-10.093-22.5-22.5v-95.714c0-9.649 7.851-17.5 17.5-17.5h18.296c9.649 0 17.5 7.851 17.5 17.5v64.918h148.507v-64.918c0-9.649 7.851-17.5 17.5-17.5h18.297c9.649 0 17.5 7.851 17.5 17.5v95.714c0 12.407-10.094 22.5-22.5 22.5zm-215.1-120.714c-1.379 0-2.5 1.122-2.5 2.5v95.714c0 4.136 3.364 7.5 7.5 7.5h210.101c4.136 0 7.5-3.364 7.5-7.5v-95.714c0-1.378-1.121-2.5-2.5-2.5h-18.298c-1.379 0-2.5 1.122-2.5 2.5v67.529c0 6.832-5.558 12.389-12.389 12.389h-153.729c-6.832 0-12.39-5.558-12.39-12.389v-67.529c0-1.378-1.121-2.5-2.5-2.5z"/></g></g></g></g></svg>