<svg id="Capa_1" enable-background="new 0 0 512 512" height="512" viewBox="0 0 512 512" width="512" xmlns="http://www.w3.org/2000/svg"><g id="_x32_5_folder"><path d="m456.245 430.594h-397.802c-11.277 0-20.419-9.142-20.419-20.419v-333.519c0-11.277 9.142-20.419 20.419-20.419h397.802c11.277 0 20.419 9.142 20.419 20.419v333.518c.001 11.278-9.141 20.42-20.419 20.42z" fill="#feb137"/><path d="m456.245 56.236h-39.685c11.277 0 20.419 9.142 20.419 20.419v333.518c0 11.277-9.142 20.419-20.419 20.419h39.685c11.277 0 20.419-9.142 20.419-20.419v-333.517c.001-11.278-9.141-20.42-20.419-20.42z" fill="#f6ab31"/><path d="m491.58 110.312h-251.601l-50.129-74.012c-3.799-5.609-10.132-8.969-16.907-8.969h-152.523c-11.278 0-20.42 9.142-20.42 20.419v416.5c0 11.277 9.142 20.419 20.42 20.419h471.16c11.277 0 20.42-9.142 20.42-20.419v-333.519c0-11.277-9.142-20.419-20.42-20.419z" fill="#ffd15b"/><g><path d="m491.581 110.312h-39.685c11.277 0 20.419 9.142 20.419 20.419v333.519c0 11.277-9.142 20.419-20.419 20.419h39.685c11.277 0 20.419-9.142 20.419-20.419v-333.519c0-11.277-9.142-20.419-20.419-20.419z" fill="#ffc344"/></g></g></svg>