<svg id="Capa_1" enable-background="new 0 0 512 512" height="512" viewBox="0 0 512 512" width="512" xmlns="http://www.w3.org/2000/svg"><g><g id="_x32_6_calendar"><path d="m474 504.5h-436c-12.15 0-22-9.85-22-22v-296.167h480v296.167c0 12.15-9.85 22-22 22z" fill="#d8ecfe"/><g fill="#7a8c98"><path d="m218.307 281.708h-38c-4.418 0-8-3.582-8-8v-38c0-4.418 3.582-8 8-8h38c4.418 0 8 3.582 8 8v38c0 4.418-3.582 8-8 8z"/><path d="m331.693 281.708h-38c-4.418 0-8-3.582-8-8v-38c0-4.418 3.582-8 8-8h38c4.418 0 8 3.582 8 8v38c0 4.418-3.582 8-8 8z"/><path d="m445.079 281.708h-38c-4.418 0-8-3.582-8-8v-38c0-4.418 3.582-8 8-8h38c4.418 0 8 3.582 8 8v38c0 4.418-3.582 8-8 8z"/><path d="m218.307 372.417h-38c-4.418 0-8-3.582-8-8v-38c0-4.418 3.582-8 8-8h38c4.418 0 8 3.582 8 8v38c0 4.418-3.582 8-8 8z"/><path d="m331.693 372.417h-38c-4.418 0-8-3.582-8-8v-38c0-4.418 3.582-8 8-8h38c4.418 0 8 3.582 8 8v38c0 4.418-3.582 8-8 8z"/><path d="m445.079 372.417h-38c-4.418 0-8-3.582-8-8v-38c0-4.418 3.582-8 8-8h38c4.418 0 8 3.582 8 8v38c0 4.418-3.582 8-8 8z"/><path d="m104.921 372.417h-38c-4.418 0-8-3.582-8-8v-38c0-4.418 3.582-8 8-8h38c4.418 0 8 3.582 8 8v38c0 4.418-3.581 8-8 8z"/><path d="m218.307 463.125h-38c-4.418 0-8-3.582-8-8v-38c0-4.418 3.582-8 8-8h38c4.418 0 8 3.582 8 8v38c0 4.419-3.582 8-8 8z"/><path d="m331.693 463.125h-38c-4.418 0-8-3.582-8-8v-38c0-4.418 3.582-8 8-8h38c4.418 0 8 3.582 8 8v38c0 4.419-3.582 8-8 8z"/><path d="m104.921 463.125h-38c-4.418 0-8-3.582-8-8v-38c0-4.418 3.582-8 8-8h38c4.418 0 8 3.582 8 8v38c0 4.419-3.581 8-8 8z"/></g><path d="m453.079 186.333v296.167c0 12.15-9.85 22-22 22h42.921c12.15 0 22-9.85 22-22v-296.167z" fill="#c4e2ff"/><path d="m496 186.333h-480v-99.042c0-12.15 9.85-22 22-22h436c12.15 0 22 9.85 22 22z" fill="#fe646f"/><path d="m474 65.291h-42.921c12.15 0 22 9.85 22 22v99.043h42.921v-99.043c0-12.151-9.85-22-22-22z" fill="#fd4755"/><g fill="#f9b1b1"><path d="m200.303 123.081c-12.767 0-23.116-10.35-23.116-23.116v-69.349c0-12.767 10.35-23.116 23.116-23.116 12.767 0 23.116 10.35 23.116 23.116v69.349c0 12.767-10.35 23.116-23.116 23.116z"/><path d="m88.908 123.081c-12.767 0-23.116-10.35-23.116-23.116v-69.349c-.001-12.766 10.349-23.116 23.116-23.116 12.767 0 23.116 10.35 23.116 23.116v69.349c0 12.767-10.35 23.116-23.116 23.116z"/><path d="m311.698 123.081c-12.767 0-23.116-10.35-23.116-23.116v-69.349c0-12.767 10.35-23.116 23.116-23.116 12.767 0 23.116 10.35 23.116 23.116v69.349c0 12.767-10.35 23.116-23.116 23.116z"/><path d="m423.092 123.081c-12.767 0-23.116-10.35-23.116-23.116v-69.349c0-12.767 10.349-23.116 23.116-23.116 12.767 0 23.116 10.35 23.116 23.116v69.349c.001 12.767-10.349 23.116-23.116 23.116z"/></g></g><g><path d="m496 295.095c-4.142 0-7.5 3.357-7.5 7.5v179.905c0 7.995-6.505 14.5-14.5 14.5h-436c-7.995 0-14.5-6.505-14.5-14.5v-37.429c0-4.143-3.358-7.5-7.5-7.5s-7.5 3.357-7.5 7.5v37.429c0 16.267 13.233 29.5 29.5 29.5h436c16.267 0 29.5-13.233 29.5-29.5v-179.905c0-4.143-3.358-7.5-7.5-7.5z"/><path d="m180.307 289.208h38c8.547 0 15.5-6.953 15.5-15.5v-38c0-8.547-6.953-15.5-15.5-15.5h-38c-8.547 0-15.5 6.953-15.5 15.5v38c0 8.547 6.953 15.5 15.5 15.5zm-.5-53.5c0-.275.224-.5.5-.5h38c.276 0 .5.225.5.5v38c0 .275-.224.5-.5.5h-38c-.276 0-.5-.225-.5-.5z"/><path d="m293.693 289.208h38c8.547 0 15.5-6.953 15.5-15.5v-38c0-8.547-6.953-15.5-15.5-15.5h-38c-8.547 0-15.5 6.953-15.5 15.5v38c0 8.547 6.953 15.5 15.5 15.5zm-.5-53.5c0-.275.224-.5.5-.5h38c.276 0 .5.225.5.5v38c0 .275-.224.5-.5.5h-38c-.276 0-.5-.225-.5-.5z"/><path d="m407.079 289.208h38c8.547 0 15.5-6.953 15.5-15.5v-38c0-8.547-6.953-15.5-15.5-15.5h-38c-8.547 0-15.5 6.953-15.5 15.5v38c0 8.547 6.953 15.5 15.5 15.5zm-.5-53.5c0-.275.224-.5.5-.5h38c.276 0 .5.225.5.5v38c0 .275-.224.5-.5.5h-38c-.276 0-.5-.225-.5-.5z"/><path d="m164.807 364.417c0 8.547 6.953 15.5 15.5 15.5h38c8.547 0 15.5-6.953 15.5-15.5v-38c0-8.547-6.953-15.5-15.5-15.5h-38c-8.547 0-15.5 6.953-15.5 15.5zm15-38c0-.275.224-.5.5-.5h38c.276 0 .5.225.5.5v38c0 .275-.224.5-.5.5h-38c-.276 0-.5-.225-.5-.5z"/><path d="m278.193 364.417c0 8.547 6.953 15.5 15.5 15.5h38c8.547 0 15.5-6.953 15.5-15.5v-38c0-8.547-6.953-15.5-15.5-15.5h-38c-8.547 0-15.5 6.953-15.5 15.5zm15-38c0-.275.224-.5.5-.5h38c.276 0 .5.225.5.5v38c0 .275-.224.5-.5.5h-38c-.276 0-.5-.225-.5-.5z"/><path d="m391.579 364.417c0 8.547 6.953 15.5 15.5 15.5h38c8.547 0 15.5-6.953 15.5-15.5v-38c0-8.547-6.953-15.5-15.5-15.5h-38c-8.547 0-15.5 6.953-15.5 15.5zm15-38c0-.275.224-.5.5-.5h38c.276 0 .5.225.5.5v38c0 .275-.224.5-.5.5h-38c-.276 0-.5-.225-.5-.5z"/><path d="m66.921 379.917h38c8.547 0 15.5-6.953 15.5-15.5v-38c0-8.547-6.953-15.5-15.5-15.5h-38c-8.547 0-15.5 6.953-15.5 15.5v38c0 8.547 6.954 15.5 15.5 15.5zm-.5-53.5c0-.275.224-.5.5-.5h38c.276 0 .5.225.5.5v38c0 .275-.224.5-.5.5h-38c-.276 0-.5-.225-.5-.5z"/><path d="m164.807 455.125c0 8.547 6.953 15.5 15.5 15.5h38c8.547 0 15.5-6.953 15.5-15.5v-38c0-8.547-6.953-15.5-15.5-15.5h-38c-8.547 0-15.5 6.953-15.5 15.5zm15-38c0-.275.224-.5.5-.5h38c.276 0 .5.225.5.5v38c0 .275-.224.5-.5.5h-38c-.276 0-.5-.225-.5-.5z"/><path d="m278.193 455.125c0 8.547 6.953 15.5 15.5 15.5h38c8.547 0 15.5-6.953 15.5-15.5v-38c0-8.547-6.953-15.5-15.5-15.5h-38c-8.547 0-15.5 6.953-15.5 15.5zm15-38c0-.275.224-.5.5-.5h38c.276 0 .5.225.5.5v38c0 .275-.224.5-.5.5h-38c-.276 0-.5-.225-.5-.5z"/><path d="m51.421 455.125c0 8.547 6.953 15.5 15.5 15.5h38c8.547 0 15.5-6.953 15.5-15.5v-38c0-8.547-6.953-15.5-15.5-15.5h-38c-8.547 0-15.5 6.953-15.5 15.5zm15-38c0-.275.224-.5.5-.5h38c.276 0 .5.225.5.5v38c0 .275-.224.5-.5.5h-38c-.276 0-.5-.225-.5-.5z"/><path d="m474 57.791h-20.291v-27.175c0-16.882-13.734-30.616-30.617-30.616-16.882 0-30.616 13.734-30.616 30.616v27.175h-50.162v-27.175c0-16.882-13.734-30.616-30.617-30.616-16.882 0-30.616 13.734-30.616 30.616v27.175h-50.162v-27.175c0-16.882-13.734-30.616-30.617-30.616-16.882 0-30.616 13.734-30.616 30.616v27.175h-50.162v-27.175c0-16.882-13.734-30.616-30.616-30.616-16.883 0-30.617 13.734-30.617 30.616v27.175h-20.291c-16.267 0-29.5 13.233-29.5 29.5v99.042 223.738c0 4.143 3.358 7.5 7.5 7.5s7.5-3.357 7.5-7.5v-216.238h465v73.762c0 4.143 3.358 7.5 7.5 7.5s7.5-3.357 7.5-7.5v-81.262-99.042c0-16.267-13.233-29.5-29.5-29.5zm-66.524-27.175c0-8.61 7.005-15.616 15.616-15.616s15.617 7.006 15.617 15.616v69.349c0 8.61-7.005 15.616-15.617 15.616-8.611 0-15.616-7.006-15.616-15.616 0-10.031 0-59.277 0-69.349zm-111.395 0c0-8.61 7.005-15.616 15.617-15.616 8.611 0 15.616 7.006 15.616 15.616v69.349c0 8.61-7.006 15.616-15.617 15.616s-15.616-7.006-15.616-15.616c0-10.031 0-59.277 0-69.349zm-111.395 0c0-8.61 7.006-15.616 15.617-15.616s15.616 7.006 15.616 15.616v69.349c0 8.61-7.005 15.616-15.616 15.616s-15.617-7.006-15.617-15.616c0-10.031 0-59.277 0-69.349zm-111.395 0c0-8.61 7.005-15.616 15.617-15.616 8.611 0 15.616 7.006 15.616 15.616v69.349c0 8.61-7.005 15.616-15.616 15.616s-15.617-7.006-15.617-15.616c0-10.031 0-59.277 0-69.349zm415.209 148.217h-465v-91.542c0-7.995 6.505-14.5 14.5-14.5h20.291v27.174c0 16.882 13.734 30.616 30.617 30.616 16.882 0 30.616-13.734 30.616-30.616v-27.174h50.162v27.174c0 16.882 13.734 30.616 30.617 30.616 16.882 0 30.616-13.734 30.616-30.616v-27.174h50.162v27.174c0 7.386 2.629 14.169 7 19.464 5.62 6.807 14.12 11.153 23.616 11.153s0 0 0 0c9.496 0 17.996-4.346 23.616-11.153 4.371-5.294 7-12.078 7-19.464v-27.174h50.162v27.174c0 16.882 13.734 30.616 30.616 30.616s30.617-13.734 30.617-30.616v-27.174h20.292c7.995 0 14.5 6.505 14.5 14.5z"/></g></g></svg>