<svg id="Capa_1" enable-background="new 0 0 512 512" height="512" viewBox="0 0 512 512" width="512" xmlns="http://www.w3.org/2000/svg"><g id="_x32_7_to_do_list"><path d="m434.736 512h-357.472c-10.81 0-19.573-8.763-19.573-19.573v-413.319c0-10.81 8.763-19.573 19.573-19.573h357.473c10.81 0 19.573 8.763 19.573 19.573v413.318c0 10.811-8.763 19.574-19.574 19.574z" fill="#d8ecfe"/><g fill="#26a6fe"><path d="m256 99.412c-10.981 0-19.883-8.902-19.883-19.882v-59.648c0-10.98 8.902-19.882 19.883-19.882 10.981 0 19.882 8.902 19.882 19.882v59.648c0 10.981-8.901 19.882-19.882 19.882z"/><path d="m142.667 99.412c-10.981 0-19.883-8.902-19.883-19.882v-59.648c.001-10.98 8.902-19.882 19.883-19.882 10.981 0 19.882 8.902 19.882 19.882v59.648c.001 10.981-8.901 19.882-19.882 19.882z"/><path d="m369.333 99.412c-10.981 0-19.883-8.902-19.883-19.882v-59.648c0-10.98 8.902-19.882 19.883-19.882 10.981 0 19.882 8.902 19.882 19.882v59.648c0 10.981-8.901 19.882-19.882 19.882z"/></g><path d="m383.474 216.526h-162.769c-9.103 0-16.483-7.38-16.483-16.483 0-9.103 7.38-16.483 16.483-16.483h162.769c9.103 0 16.483 7.38 16.483 16.483 0 9.104-7.38 16.483-16.483 16.483z" fill="#7a8c98"/><path d="m383.474 318.733h-162.769c-9.103 0-16.483-7.38-16.483-16.483 0-9.103 7.38-16.483 16.483-16.483h162.769c9.103 0 16.483 7.38 16.483 16.483 0 9.104-7.38 16.483-16.483 16.483z" fill="#7a8c98"/><path d="m383.474 420.94h-162.769c-9.103 0-16.483-7.38-16.483-16.483 0-9.103 7.38-16.483 16.483-16.483h162.769c9.103 0 16.483 7.38 16.483 16.483 0 9.104-7.38 16.483-16.483 16.483z" fill="#7a8c98"/><g><path d="m127.857 319.559-14.666-23.82c-2.237-3.634-1.105-8.393 2.529-10.631 3.634-2.237 8.394-1.104 10.63 2.528l9.024 14.657 41.283-49.666c2.727-3.281 7.601-3.731 10.88-1.003 3.282 2.727 3.731 7.599 1.003 10.88l-48.162 57.942c-3.379 4.067-9.751 3.611-12.521-.887z" fill="#7a8c98"/></g><g><path d="m127.857 421.736-14.666-23.82c-2.237-3.634-1.105-8.393 2.529-10.631s8.394-1.104 10.63 2.528l9.024 14.657 41.283-49.665c2.729-3.282 7.6-3.731 10.881-1.003 3.281 2.727 3.73 7.599 1.003 10.88l-48.162 57.941c-3.38 4.067-9.752 3.611-12.522-.887z" fill="#7a8c98"/></g><g><path d="m127.857 217.253-14.666-23.82c-2.237-3.634-1.105-8.393 2.529-10.631s8.394-1.105 10.63 2.528l9.024 14.657 41.283-49.666c2.727-3.282 7.601-3.731 10.88-1.003 3.282 2.727 3.731 7.599 1.003 10.88l-48.162 57.942c-3.379 4.066-9.751 3.61-12.521-.887z" fill="#7a8c98"/></g><path d="m434.736 59.535h-39.685c10.81 0 19.573 8.763 19.573 19.573v413.318c0 10.81-8.763 19.573-19.573 19.573h39.685c10.81 0 19.573-8.763 19.573-19.573v-413.318c.001-10.81-8.762-19.573-19.573-19.573z" fill="#c4e2ff"/><path d="m369.333 0c-4.217 0-8.121 1.322-11.339 3.562 5.16 3.592 8.544 9.557 8.544 16.321v59.647c0 6.763-3.384 12.729-8.544 16.321 3.217 2.24 7.121 3.562 11.339 3.562 10.981 0 19.882-8.902 19.882-19.883v-59.648c0-10.98-8.901-19.882-19.882-19.882z" fill="#0593fc"/></g></svg>