<svg id="Capa_1" enable-background="new 0 0 512 512" height="512" viewBox="0 0 512 512" width="512" xmlns="http://www.w3.org/2000/svg"><g id="_x32_9_server"><path d="m48.975 117.956h414.05v311.259h-414.05z" fill="#465a61"/><path d="m482.834 512h-453.668c-6.915 0-12.522-5.606-12.522-12.522v-124.253c0-6.915 5.606-12.522 12.522-12.522h453.668c6.915 0 12.522 5.606 12.522 12.522v124.253c-.001 6.916-5.607 12.522-12.522 12.522z" fill="#7a8c98"/><path d="m282.391 459.506h-211.262c-12.235 0-22.154-9.919-22.154-22.154 0-12.235 9.919-22.154 22.154-22.154h211.262c12.235 0 22.154 9.919 22.154 22.154-.001 12.235-9.919 22.154-22.154 22.154z" fill="#9facba"/><path d="m376.886 474.917c-9.544 0-17.28-7.737-17.28-17.28v-40.569c0-9.544 7.737-17.28 17.28-17.28 9.544 0 17.28 7.737 17.28 17.28v40.569c.001 9.543-7.736 17.28-17.28 17.28z" fill="#ffd15b"/><path d="m482.834 331.356h-453.668c-6.915 0-12.522-5.606-12.522-12.522v-124.252c0-6.915 5.606-12.522 12.522-12.522h453.668c6.915 0 12.522 5.606 12.522 12.522v124.253c-.001 6.915-5.607 12.521-12.522 12.521z" fill="#7a8c98"/><path d="m282.391 278.862h-211.262c-12.235 0-22.154-9.919-22.154-22.154 0-12.235 9.919-22.154 22.154-22.154h211.262c12.235 0 22.154 9.919 22.154 22.154-.001 12.235-9.919 22.154-22.154 22.154z" fill="#9facba"/><path d="m376.886 294.273c-9.544 0-17.28-7.737-17.28-17.28v-40.569c0-9.544 7.737-17.28 17.28-17.28 9.544 0 17.28 7.737 17.28 17.28v40.569c.001 9.543-7.736 17.28-17.28 17.28z" fill="#60b7ff"/><path d="m482.834 149.296h-453.668c-6.915 0-12.522-5.606-12.522-12.522v-124.252c.001-6.916 5.607-12.522 12.522-12.522h453.668c6.915 0 12.522 5.606 12.522 12.522v124.253c-.001 6.915-5.607 12.521-12.522 12.521z" fill="#7a8c98"/><path d="m282.391 96.802h-211.262c-12.235 0-22.154-9.919-22.154-22.154 0-12.235 9.919-22.154 22.154-22.154h211.262c12.235 0 22.154 9.919 22.154 22.154-.001 12.235-9.919 22.154-22.154 22.154z" fill="#9facba"/><path d="m376.886 112.213c-9.544 0-17.28-7.737-17.28-17.28v-40.569c0-9.544 7.737-17.28 17.28-17.28 9.544 0 17.28 7.737 17.28 17.28v40.569c.001 9.543-7.736 17.28-17.28 17.28z" fill="#60b7ff"/><g fill="#596c76"><path d="m482.834 362.704h-39.685c6.916 0 12.522 5.606 12.522 12.522v124.253c0 6.915-5.606 12.522-12.522 12.522h39.685c6.916 0 12.522-5.606 12.522-12.522v-124.254c-.001-6.915-5.607-12.521-12.522-12.521z"/><path d="m482.834 182.06h-39.685c6.916 0 12.522 5.606 12.522 12.522v124.253c0 6.915-5.606 12.522-12.522 12.522h39.685c6.916 0 12.522-5.606 12.522-12.522v-124.253c-.001-6.916-5.607-12.522-12.522-12.522z"/><path d="m482.834 0h-39.685c6.916 0 12.522 5.606 12.522 12.522v124.253c0 6.916-5.606 12.522-12.522 12.522h39.685c6.916 0 12.522-5.606 12.522-12.522v-124.253c-.001-6.916-5.607-12.522-12.522-12.522z"/></g><path d="m445.745 37.083c-.359 0-.709.032-1.062.054-9.046.552-16.218 8.042-16.218 17.227v40.569c0 9.185 7.172 16.675 16.218 17.227.353.022.704.054 1.062.054 9.544 0 17.28-7.737 17.28-17.28v-40.57c0-9.544-7.737-17.281-17.28-17.281z" fill="#ffd15b"/><path d="m455.67 40.232v68.832c4.443-3.127 7.354-8.285 7.354-14.132v-40.568c.001-5.847-2.91-11.005-7.354-14.132z" fill="#ffc344"/><path d="m445.745 219.143c-.359 0-.709.032-1.062.054-9.046.552-16.218 8.042-16.218 17.227v40.569c0 9.185 7.172 16.675 16.218 17.227.353.021.704.054 1.062.054 9.544 0 17.28-7.737 17.28-17.28v-40.569c0-9.545-7.737-17.282-17.28-17.282z" fill="#fe646f"/><path d="m455.67 222.292v68.832c4.443-3.127 7.354-8.285 7.354-14.132v-40.569c.001-5.846-2.91-11.004-7.354-14.131z" fill="#fd4755"/><path d="m445.745 399.787c-.359 0-.709.032-1.062.054-9.046.552-16.218 8.042-16.218 17.227v40.569c0 9.185 7.172 16.675 16.218 17.227.353.021.704.054 1.062.054 9.544 0 17.28-7.737 17.28-17.28v-40.569c0-9.545-7.737-17.282-17.28-17.282z" fill="#60b7ff"/><path d="m455.67 402.936v68.832c4.443-3.127 7.354-8.285 7.354-14.132v-40.569c.001-5.846-2.91-11.004-7.354-14.131z" fill="#26a6fe"/></g></svg>