<svg id="Capa_1" enable-background="new 0 0 512 512" height="512" viewBox="0 0 512 512" width="512" xmlns="http://www.w3.org/2000/svg"><g><path d="m76.545 403.034c-15.993 0-29.005 13.012-29.005 29.005s13.012 29.005 29.005 29.005h205.072c15.993 0 29.005-13.012 29.005-29.005s-13.012-29.005-29.005-29.005zm219.077 29.005c0 7.723-6.282 14.005-14.005 14.005h-205.072c-7.723 0-14.005-6.282-14.005-14.005s6.282-14.005 14.005-14.005h205.072c7.723 0 14.005 6.282 14.005 14.005z"/><path d="m349.07 412.349v39.381c0 13.385 10.89 24.273 24.274 24.273s24.274-10.889 24.274-24.273v-39.381c0-13.385-10.89-24.274-24.274-24.274s-24.274 10.889-24.274 24.274zm33.549 0v39.381c0 5.113-4.16 9.273-9.274 9.273s-9.274-4.16-9.274-9.273v-39.381c0-5.114 4.16-9.274 9.274-9.274s9.274 4.159 9.274 9.274z"/><path d="m415.912 412.349v39.381c0 13.385 10.889 24.273 24.273 24.273s24.274-10.889 24.274-24.273v-39.381c0-13.385-10.89-24.274-24.274-24.274s-24.273 10.889-24.273 24.274zm33.548 0v39.381c0 5.113-4.16 9.273-9.274 9.273-5.113 0-9.273-4.16-9.273-9.273v-39.381c0-5.114 4.16-9.274 9.273-9.274 5.114-.001 9.274 4.159 9.274 9.274z"/><path d="m281.617 227.683h-205.072c-15.993 0-29.005 13.012-29.005 29.005s13.012 29.005 29.005 29.005h205.072c15.993 0 29.005-13.012 29.005-29.005s-13.012-29.005-29.005-29.005zm0 43.009h-205.072c-7.723 0-14.005-6.282-14.005-14.005s6.282-14.005 14.005-14.005h205.072c7.723 0 14.005 6.282 14.005 14.005s-6.282 14.005-14.005 14.005z"/><path d="m373.345 212.723c-13.385 0-24.274 10.89-24.274 24.274v39.381c0 13.385 10.89 24.273 24.274 24.273s24.274-10.889 24.274-24.273v-39.381c0-13.385-10.89-24.274-24.274-24.274zm9.274 63.655c0 5.113-4.16 9.273-9.274 9.273s-9.274-4.16-9.274-9.273v-39.381c0-5.114 4.16-9.274 9.274-9.274s9.274 4.16 9.274 9.274z"/><path d="m415.912 236.997v39.381c0 13.385 10.889 24.273 24.273 24.273s24.274-10.889 24.274-24.273v-39.381c0-13.385-10.89-24.274-24.274-24.274s-24.273 10.889-24.273 24.274zm33.548 0v39.381c0 5.113-4.16 9.273-9.274 9.273-5.113 0-9.273-4.16-9.273-9.273v-39.381c0-5.114 4.16-9.274 9.273-9.274 5.114 0 9.274 4.16 9.274 9.274z"/><path d="m476.188 159.922c10.838 0 19.654-8.816 19.654-19.654v-120.614c.001-10.838-8.816-19.654-19.654-19.654h-440.376c-10.838 0-19.655 8.816-19.655 19.654v34.09c0 4.143 3.357 7.5 7.5 7.5s7.5-3.357 7.5-7.5v-34.09c0-2.566 2.088-4.654 4.654-4.654h440.377c2.566 0 4.654 2.088 4.654 4.654v120.613c0 2.566-2.088 4.654-4.654 4.654-8.179 0-433.092 0-440.377 0-2.566 0-4.654-2.088-4.654-4.654v-51.523c0-4.143-3.357-7.5-7.5-7.5s-7.5 3.357-7.5 7.5v51.523c0 10.838 8.816 19.654 19.654 19.654h11.729v16.805h-11.728c-10.838 0-19.654 8.816-19.654 19.654v120.613c0 10.838 8.816 19.654 19.654 19.654h11.728v15.43h-11.728c-10.838 0-19.654 8.816-19.654 19.654v120.613c0 10.838 8.816 19.654 19.654 19.654h440.377c10.838 0 19.654-8.816 19.654-19.654v-43.523c0-4.143-3.357-7.5-7.5-7.5s-7.5 3.357-7.5 7.5v43.523c0 2.566-2.088 4.654-4.654 4.654h-440.377c-2.566 0-4.654-2.088-4.654-4.654v-120.612c0-2.566 2.088-4.654 4.654-4.654h440.377c2.566 0 4.654 2.088 4.654 4.654v42.09c0 4.143 3.357 7.5 7.5 7.5s7.5-3.357 7.5-7.5v-42.09c0-10.838-8.816-19.654-19.654-19.654h-11.729v-15.43h11.729c10.838 0 19.654-8.816 19.654-19.654v-120.613c0-10.838-8.816-19.654-19.654-19.654h-11.729v-16.805zm-26.728 192.156h-386.92v-15.43h386.92zm31.383-155.697v120.613c0 2.566-2.088 4.654-4.654 4.654-6.708 0-437.647 0-440.377 0-2.566 0-4.654-2.088-4.654-4.654v-120.613c0-2.566 2.088-4.654 4.654-4.654h440.377c2.566 0 4.654 2.087 4.654 4.654zm-31.383-19.654h-386.92v-16.805h386.92z"/><path d="m76.545 108.966h205.072c15.993 0 29.005-13.012 29.005-29.005s-13.012-29.005-29.005-29.005h-205.072c-15.993 0-29.005 13.012-29.005 29.005s13.012 29.005 29.005 29.005zm0-43.01h205.072c7.723 0 14.005 6.282 14.005 14.005s-6.282 14.005-14.005 14.005h-205.072c-7.723 0-14.005-6.282-14.005-14.005s6.282-14.005 14.005-14.005z"/><path d="m397.619 99.651v-39.38c0-13.385-10.89-24.273-24.274-24.273s-24.275 10.888-24.275 24.273v39.381c0 13.385 10.89 24.274 24.274 24.274s24.275-10.89 24.275-24.275zm-33.549 0v-39.38c0-5.113 4.16-9.273 9.274-9.273s9.274 4.16 9.274 9.273v39.381c0 5.114-4.16 9.274-9.274 9.274s-9.274-4.16-9.274-9.275z"/><path d="m464.46 99.651v-39.38c0-13.385-10.89-24.273-24.274-24.273s-24.273 10.889-24.273 24.273v39.381c0 13.385 10.889 24.274 24.273 24.274s24.274-10.89 24.274-24.275zm-33.548 0v-39.38c0-5.113 4.16-9.273 9.273-9.273 5.114 0 9.274 4.16 9.274 9.273v39.381c0 5.114-4.16 9.274-9.274 9.274-5.113 0-9.273-4.16-9.273-9.275z"/></g></svg>