<svg id="Capa_1" enable-background="new 0 0 512.028 512.028" height="512" viewBox="0 0 512.028 512.028" width="512" xmlns="http://www.w3.org/2000/svg"><g><path d="m448.062 56.35-38.078-38.077c-24.361-24.363-63.919-24.364-88.286-.001l-152.313 152.312c-11.773 11.774-18.258 27.451-18.258 44.144 0 16.852 6.082 31.966 19.809 45.693l-106.97 106.97c-24.361 24.363-24.37 63.924 0 88.287l38.078 38.077c24.361 24.363 63.919 24.365 88.286.001l152.313-152.313c11.88-11.88 18.258-27.697 18.258-44.144 0-16.852-6.082-31.966-19.809-45.693l106.97-106.97c24.361-24.362 24.37-63.922 0-88.286zm-102.161 240.95c0 12.521-4.857 24.529-13.865 33.536l-152.312 152.313c-18.501 18.499-48.571 18.503-67.072 0l-38.079-38.078c-18.501-18.495-18.504-48.569.001-67.072l112.266-112.267c.002-.002.005-.004.007-.007l24.37-24.37c.003-.003.005-.006.008-.009l15.66-15.66c8.938-8.941 20.849-13.865 33.535-13.865 14.658 0 25.563 5.898 35.088 15.416-3.727 3.727-1.016 1.016-13.764 13.763-5.923-5.923-12.053-9.731-21.323-9.731-7.476 0-14.497 2.905-19.773 8.181l-91.059 91.059c-2.929 2.93-2.929 7.678 0 10.607 2.93 2.928 7.678 2.928 10.607 0l45.716-45.716c13.385 13.385 28.447 19.809 45.695 19.809 29.26 0 43.521-17.637 54.507-28.624 1.733 1.733 5.338 4.747 5.338 10.716 0 3.469-1.345 6.725-3.788 9.166l-152.311 152.312c-5.051 5.053-13.279 5.057-18.332 0l-38.077-38.078c-5.056-5.054-5.056-13.278 0-18.332l36.505-36.505c2.929-2.93 2.929-7.678 0-10.607-2.93-2.928-7.678-2.928-10.607 0l-36.504 36.505c-10.918 10.916-10.92 28.629-.001 39.546l38.077 38.078c10.914 10.918 28.628 10.918 39.547.001l152.312-152.313c5.276-5.274 8.182-12.297 8.182-19.773 0-9.179-3.731-15.323-9.731-21.323l13.763-13.763c9.577 9.584 15.414 20.505 15.414 35.085zm-74.762-45.693-10.366 10.366c-2.442 2.443-5.697 3.788-9.166 3.788-5.818 0-8.769-3.39-10.717-5.339l10.366-10.366c2.442-2.443 5.697-3.788 9.166-3.788 5.817 0 8.769 3.39 10.717 5.339zm54.049-5.31c-.002.002-.005.004-.007.007l-24.37 24.37c-.003.003-.005.006-.008.009l-15.66 15.66c-8.938 8.941-20.849 13.865-33.535 13.865-14.272 0-25.331-5.666-35.088-15.416l13.764-13.763c5.923 5.923 12.053 9.731 21.323 9.731 7.476 0 14.497-2.905 19.773-8.181l152.311-152.313c10.918-10.916 10.92-28.628.001-39.547l-4.997-4.997c-2.931-2.929-7.679-2.927-10.607 0-2.929 2.93-2.929 7.678 0 10.607l4.997 4.997c5.056 5.054 5.056 13.278 0 18.332l-106.97 106.972c-13.755-13.754-28.879-19.809-45.695-19.809-16.694 0-32.371 6.484-44.143 18.259l-10.365 10.365c-1.733-1.733-5.338-4.747-5.338-10.716 0-3.469 1.345-6.725 3.788-9.166l152.313-152.313c5.051-5.053 13.279-5.057 18.332 0l8.332 8.332c2.93 2.928 7.678 2.928 10.607 0 2.929-2.93 2.929-7.678 0-10.607l-8.332-8.331c-10.914-10.918-28.628-10.918-39.547-.001l-152.311 152.312c-5.276 5.274-8.182 12.297-8.182 19.773 0 9.179 3.731 15.323 9.731 21.323l-13.763 13.763c-9.579-9.585-15.416-20.506-15.416-35.086 0-12.686 4.924-24.596 13.865-33.536l152.313-152.313c18.501-18.499 48.571-18.503 67.072 0l38.079 38.078c18.501 18.495 18.504 48.569-.001 67.072z"/></g></svg>