<svg id="Capa_1" enable-background="new 0 0 512 512" height="512" viewBox="0 0 512 512" width="512" xmlns="http://www.w3.org/2000/svg"><g><path d="m256 121.419c13.502 0 24.487-10.985 24.487-24.489s-10.985-24.49-24.487-24.49-24.487 10.985-24.487 24.489 10.985 24.49 24.487 24.49zm0-33.979c5.231 0 9.487 4.257 9.487 9.489s-4.256 9.489-9.487 9.489-9.487-4.257-9.487-9.489 4.256-9.489 9.487-9.489z"/><path d="m256 390.585c-13.502 0-24.487 10.985-24.487 24.487s10.985 24.488 24.487 24.488 24.487-10.985 24.487-24.487-10.985-24.488-24.487-24.488zm0 33.975c-5.231 0-9.487-4.256-9.487-9.487s4.256-9.487 9.487-9.487 9.487 4.256 9.487 9.487-4.256 9.487-9.487 9.487z"/><path d="m415.072 280.488c13.502 0 24.487-10.985 24.487-24.487s-10.985-24.487-24.487-24.487-24.487 10.985-24.487 24.487 10.984 24.487 24.487 24.487zm0-33.974c5.231 0 9.487 4.256 9.487 9.487s-4.256 9.487-9.487 9.487-9.487-4.256-9.487-9.487 4.255-9.487 9.487-9.487z"/><path d="m96.928 231.514c-13.502 0-24.487 10.985-24.487 24.487s10.985 24.487 24.487 24.487 24.487-10.985 24.487-24.487-10.984-24.487-24.487-24.487zm0 33.974c-5.231 0-9.487-4.256-9.487-9.487s4.256-9.487 9.487-9.487 9.487 4.256 9.487 9.487-4.255 9.487-9.487 9.487z"/><path d="m330.932 232.559h-51.9v-70.307c0-12.926-10.516-23.441-23.441-23.441s-23.441 10.516-23.441 23.441v93.353c0 13.087 10.335 23.837 23.464 23.837h75.318c12.925 0 23.441-10.516 23.441-23.441s-10.516-23.442-23.441-23.442zm-66.901 7.5c0 16.727.246 17.146-.681 19.294-1.208 2.798-4.02 5.089-7.761 5.089-.141 0-.283-.003-.414-.009-4.501-.213-8.027-4.091-8.027-8.828v-93.353c0-4.654 3.787-8.441 8.441-8.441 4.655 0 8.441 3.787 8.441 8.441v77.807zm66.901 24.382h-53.451c1.919-4.996 1.55-8.374 1.55-16.883h51.9c4.654 0 8.441 3.787 8.441 8.441s-3.786 8.442-8.44 8.442z"/><path d="m117.242 453.07c-64.021-45.162-102.242-118.833-102.242-197.07 0-132.985 106.205-241 241-241 51.435 0 100.511 15.976 141.923 46.2 3.346 2.44 8.038 1.709 10.479-1.637 2.442-3.347 1.709-8.038-1.637-10.479-43.996-32.111-96.13-49.084-150.765-49.084-141.117 0-256 114.433-256 256 0 83.927 40.871 161.552 108.595 209.328 3.387 2.389 8.066 1.578 10.452-1.806 2.388-3.384 1.579-8.064-1.805-10.452z"/><path d="m434.3 72.301c-2.972-2.884-7.72-2.815-10.605.158-2.885 2.972-2.815 7.72.157 10.605 47.17 45.791 73.148 107.208 73.148 172.936 0 132.888-108.112 241-241 241-38.658 0-75.579-8.873-109.736-26.374-3.686-1.89-8.206-.433-10.095 3.255-1.889 3.687-.432 8.206 3.255 10.095 36.294 18.595 75.516 28.024 116.576 28.024 141.491 0 256-114.497 256-256 0-70.204-28.347-135.788-77.7-183.699z"/><path d="m256 42.965c-117.468 0-213.035 95.567-213.035 213.035s95.567 213.035 213.035 213.035 213.035-95.567 213.035-213.035-95.567-213.035-213.035-213.035zm0 411.07c-109.197 0-198.035-88.838-198.035-198.035s88.838-198.035 198.035-198.035 198.035 88.838 198.035 198.035-88.838 198.035-198.035 198.035z"/></g></svg>