<svg id="Capa_1" enable-background="new 0 0 511 511" height="512" viewBox="0 0 511 511" width="512" xmlns="http://www.w3.org/2000/svg"><g><path d="m450.396 428.768c-4.143 0-7.5 3.357-7.5 7.5v33.521c0 14.453-11.759 26.212-26.212 26.212h-322.368c-14.453 0-26.212-11.759-26.212-26.212v-156.657c0-4.143-3.358-7.5-7.5-7.5s-7.5 3.357-7.5 7.5v156.656c0 22.725 18.488 41.212 41.212 41.212h322.368c22.725 0 41.212-18.487 41.212-41.212v-33.521c0-4.142-3.358-7.499-7.5-7.499z"/><path d="m416.684 189.647h-17.8v-46.264c0-79.062-64.321-143.383-143.384-143.383-79.062 0-143.384 64.321-143.384 143.384v46.264h-17.8c-22.724 0-41.212 18.487-41.212 41.212v47.272c0 4.143 3.358 7.5 7.5 7.5s7.5-3.357 7.5-7.5v-47.272c0-14.453 11.759-26.212 26.212-26.212h322.368c14.453 0 26.212 11.759 26.212 26.212v170.408c0 4.143 3.357 7.5 7.5 7.5s7.5-3.357 7.5-7.5v-170.409c0-22.724-18.488-41.212-41.212-41.212zm-72.8 0h-176.768v-46.264c0-48.735 39.649-88.383 88.384-88.383s88.384 39.648 88.384 88.384zm15 0v-46.264c0-57.005-46.378-103.383-103.384-103.383s-103.384 46.378-103.384 103.384v46.264h-25v-46.264c0-70.791 57.593-128.384 128.384-128.384s128.384 57.593 128.384 128.384v46.264h-25z"/><path d="m255.5 459.969c18.271 0 33.135-14.864 33.135-33.135v-54.82c15.821-10.872 25.483-29.013 25.483-48.342 0-32.321-26.296-58.617-58.618-58.617s-58.618 26.296-58.618 58.617c0 19.329 9.662 37.47 25.483 48.342v54.82c0 18.27 14.865 33.135 33.135 33.135zm-43.617-136.297c0-24.051 19.567-43.617 43.618-43.617s43.618 19.566 43.618 43.617c0 15.48-8.334 29.939-21.751 37.733-2.311 1.343-3.732 3.813-3.732 6.485v58.943c0 10-8.135 18.135-18.135 18.135s-18.135-8.135-18.135-18.135v-58.943c0-2.672-1.422-5.143-3.732-6.485-13.417-7.794-21.751-22.253-21.751-37.733z"/></g></svg>