<svg id="Capa_1" enable-background="new 0 0 511 511" height="512" viewBox="0 0 511 511" width="512" xmlns="http://www.w3.org/2000/svg"><g><g id="_x33_3_padlock"><g><path d="m371.618 269.673c-11.068 0-20.04-8.972-20.04-20.04v-106.975c0-52.977-43.1-96.077-96.077-96.077s-96.077 43.1-96.077 96.077v106.975c0 11.068-8.972 20.04-20.04 20.04s-20.04-8.972-20.04-20.04v-106.975c-.002-75.078 61.078-136.158 136.156-136.158s136.158 61.08 136.158 136.158v106.975c0 11.068-8.972 20.04-20.04 20.04z" fill="#b6c4cf"/></g><path d="m255.5 6.5c-6.787 0-13.458.506-19.982 1.47 65.638 9.695 116.176 66.398 116.176 134.688v106.975c0 .389-.036.769-.058 1.153.601 10.529 9.303 18.887 19.982 18.887 11.068 0 20.04-8.972 20.04-20.04v-106.975c0-75.078-61.08-136.158-136.158-136.158z" fill="#9facba"/><path d="m417.009 503.5h-323.018c-18.656 0-33.78-15.124-33.78-33.78v-239.41c0-18.656 15.124-33.78 33.78-33.78h323.018c18.656 0 33.78 15.124 33.78 33.78v239.41c0 18.656-15.124 33.78-33.78 33.78z" fill="#feb137"/><path d="m306.721 323.31c0-28.288-22.932-51.221-51.221-51.221s-51.221 22.932-51.221 51.221c0 18.924 10.271 35.439 25.534 44.308v59.062c0 14.186 11.5 25.687 25.687 25.687 14.186 0 25.687-11.5 25.687-25.687v-59.062c15.263-8.869 25.534-25.384 25.534-44.308z" fill="#465a61"/><path d="m417.009 196.53h-39.964c18.656 0 33.78 15.124 33.78 33.78v239.41c0 18.656-15.124 33.78-33.78 33.78h39.964c18.656 0 33.78-15.124 33.78-33.78v-239.41c0-18.656-15.124-33.78-33.78-33.78z" fill="#f6ab31"/></g><g><path d="m450.396 428.768c-4.143 0-7.5 3.357-7.5 7.5v33.521c0 14.453-11.759 26.212-26.212 26.212h-322.368c-14.453 0-26.212-11.759-26.212-26.212v-156.657c0-4.143-3.358-7.5-7.5-7.5s-7.5 3.357-7.5 7.5v156.656c0 22.725 18.488 41.212 41.212 41.212h322.368c22.725 0 41.212-18.487 41.212-41.212v-33.521c0-4.142-3.358-7.499-7.5-7.499z"/><path d="m416.684 189.647h-17.8v-46.264c0-79.062-64.321-143.383-143.384-143.383-79.062 0-143.384 64.321-143.384 143.384v46.264h-17.8c-22.724 0-41.212 18.487-41.212 41.212v47.272c0 4.143 3.358 7.5 7.5 7.5s7.5-3.357 7.5-7.5v-47.272c0-14.453 11.759-26.212 26.212-26.212h322.368c14.453 0 26.212 11.759 26.212 26.212v170.408c0 4.143 3.357 7.5 7.5 7.5s7.5-3.357 7.5-7.5v-170.409c0-22.724-18.488-41.212-41.212-41.212zm-72.8 0h-176.768v-46.264c0-48.735 39.649-88.383 88.384-88.383s88.384 39.648 88.384 88.384zm15 0v-46.264c0-57.005-46.378-103.383-103.384-103.383s-103.384 46.378-103.384 103.384v46.264h-25v-46.264c0-70.791 57.593-128.384 128.384-128.384s128.384 57.593 128.384 128.384v46.264h-25z"/><path d="m255.5 459.969c18.271 0 33.135-14.864 33.135-33.135v-54.82c15.821-10.872 25.483-29.013 25.483-48.342 0-32.321-26.296-58.617-58.618-58.617s-58.618 26.296-58.618 58.617c0 19.329 9.662 37.47 25.483 48.342v54.82c0 18.27 14.865 33.135 33.135 33.135zm-43.617-136.297c0-24.051 19.567-43.617 43.618-43.617s43.618 19.566 43.618 43.617c0 15.48-8.334 29.939-21.751 37.733-2.311 1.343-3.732 3.813-3.732 6.485v58.943c0 10-8.135 18.135-18.135 18.135s-18.135-8.135-18.135-18.135v-58.943c0-2.672-1.422-5.143-3.732-6.485-13.417-7.794-21.751-22.253-21.751-37.733z"/></g></g></svg>