<svg id="Capa_1" enable-background="new 0 0 512 512" height="512" viewBox="0 0 512 512" width="512" xmlns="http://www.w3.org/2000/svg"><g id="_x33_3_padlock"><g><path d="m375.622 271.116c-11.402 0-20.645-9.243-20.645-20.645v-110.204c0-54.576-44.401-98.977-98.977-98.977s-98.977 44.401-98.977 98.977v110.204c0 11.402-9.243 20.645-20.645 20.645s-20.645-9.243-20.645-20.645v-110.204c0-77.344 62.923-140.267 140.267-140.267s140.267 62.923 140.267 140.267v110.204c0 11.402-9.243 20.645-20.645 20.645z" fill="#b6c4cf"/></g><path d="m256 0c-6.992 0-13.864.521-20.585 1.514 67.619 9.988 119.682 68.401 119.682 138.753v110.204c0 .401-.037.792-.06 1.188.619 10.846 9.584 19.457 20.585 19.457 11.402 0 20.645-9.243 20.645-20.645v-110.204c0-77.344-62.923-140.267-140.267-140.267z" fill="#9facba"/><path d="m422.384 512h-332.768c-19.219 0-34.799-15.58-34.799-34.799v-246.636c0-19.219 15.58-34.799 34.799-34.799h332.767c19.219 0 34.799 15.58 34.799 34.799v246.636c.001 19.219-15.579 34.799-34.798 34.799z" fill="#feb137"/><path d="m308.767 326.371c0-29.142-23.624-52.767-52.767-52.767s-52.767 23.625-52.767 52.767c0 19.495 10.581 36.509 26.305 45.645v60.845c0 14.615 11.847 26.462 26.462 26.462s26.462-11.847 26.462-26.462v-60.845c15.724-9.135 26.305-26.149 26.305-45.645z" fill="#465a61"/><path d="m422.384 195.765h-41.17c19.219 0 34.799 15.58 34.799 34.799v246.636c0 19.219-15.58 34.799-34.799 34.799h41.17c19.219 0 34.799-15.58 34.799-34.799v-246.635c0-19.219-15.58-34.8-34.799-34.8z" fill="#f6ab31"/></g></svg>