<svg id="Capa_1" enable-background="new 0 0 512 512" height="512" viewBox="0 0 512 512" width="512" xmlns="http://www.w3.org/2000/svg"><g><g id="_x33_6_hourglass"><path d="m382.191 79.918v-36.863l-252.381-.001v36.863c0 58.222 28.033 113.377 76.279 148.788 8.708 6.392 13.91 16.499 13.91 27.301 0 10.781-5.17 20.887-13.862 27.264-49.28 36.151-76.329 91.784-76.329 148.813v36.863l252.381.001v-36.863c0-56.941-26.973-112.605-76.332-148.816-8.691-6.376-13.857-16.482-13.857-27.26v-.001c0-10.805 5.205-20.911 13.915-27.305 48.136-35.332 76.275-90.433 76.276-148.784z" fill="#d8ecfe"/><path d="m305.914 228.702c48.137-35.332 76.276-90.433 76.276-148.784v-36.863l-252.38-.001 211.107.001v36.863c0 58.351-28.14 113.452-76.276 148.784-8.71 6.393-13.915 16.5-13.915 27.305v.001c0 10.778 5.167 20.885 13.857 27.26 49.359 36.211 76.333 91.874 76.332 148.816v36.863h41.274v-36.863c0-56.941-26.973-112.605-76.332-148.816-8.691-6.376-13.857-16.482-13.857-27.26v-.001c-.001-10.805 5.204-20.912 13.914-27.305z" fill="#c4e2ff"/><path d="m158.929 439.318v-4.903c0-24.377 12.608-47.448 35.079-65.941 17.501-14.403 39.479-21.99 61.99-21.99 22.511 0 44.489 7.587 61.991 21.99 22.472 18.495 35.08 41.565 35.08 65.941v4.903z" fill="#ffd15b"/><path d="m123.014 43.054h265.971c9.65 0 17.473-7.959 17.473-17.777 0-9.818-7.823-17.777-17.473-17.777h-265.971c-9.65 0-17.473 7.96-17.473 17.778.001 9.818 7.824 17.776 17.473 17.776z" fill="#596c76"/><path d="m123.014 504.5h265.971c9.65 0 17.473-7.959 17.473-17.777 0-9.818-7.823-17.777-17.473-17.777h-265.971c-9.65 0-17.473 7.96-17.473 17.778.001 9.818 7.824 17.776 17.473 17.776z" fill="#596c76"/><path d="m160.62 102.587c4.813 32.054 19.749 61.62 42.691 84.969 13.959 14.207 32.945 22.116 52.69 22.116 19.744 0 38.73-7.908 52.689-22.115 22.942-23.349 37.878-52.915 42.69-84.971h-190.76z" fill="#feb137"/><path d="m388.986 7.5h-51.024c9.65 0 17.473 7.959 17.473 17.777s-7.823 17.777-17.473 17.777h51.024c9.65 0 17.473-7.959 17.473-17.777s-7.823-17.777-17.473-17.777z" fill="#465a61"/><path d="m388.986 468.946h-51.024c9.65 0 17.473 7.959 17.473 17.777 0 9.818-7.823 17.777-17.473 17.777h51.024c9.65 0 17.473-7.959 17.473-17.777-.001-9.818-7.823-17.777-17.473-17.777z" fill="#465a61"/><path d="m334.783 385.402c4.05 15.205 6.132 30.893 6.132 46.682v7.235h12.153v-4.903c0-17.402-6.433-34.134-18.285-49.014z" fill="#ffc344"/><path d="m339.482 102.587c-4.284 33.976-18.113 66.041-39.785 92.745 3.175-2.331 6.189-4.92 8.993-7.774 22.942-23.349 37.878-52.915 42.69-84.971z" fill="#f6ab31"/></g><g><path d="m151.429 434.415v4.903c0 4.143 3.358 7.5 7.5 7.5h194.139c4.142 0 7.5-3.357 7.5-7.5v-4.903c0-26.188-13.429-51.663-37.814-71.731-18.569-15.282-42.277-23.699-66.757-23.699-24.479 0-48.187 8.416-66.755 23.698-24.384 20.067-37.813 45.542-37.813 71.732zm47.345-60.15c15.89-13.078 36.213-20.28 57.223-20.28 21.011 0 41.334 7.203 57.225 20.281 20.324 16.727 31.446 36.575 32.294 57.553h-179.035c.849-20.98 11.97-40.829 32.293-57.554z"/><path d="m122.31 50.536v29.38c0 33.666 9.077 66.92 26.249 96.167 2.097 3.571 6.693 4.767 10.265 2.67 3.572-2.098 4.768-6.693 2.67-10.266-15.821-26.945-24.184-57.573-24.184-88.571v-29.362l237.381.001v29.363c0 46.414-18.25 90.421-51.386 123.911 0 .001-.001.001-.001.002-6.723 6.796-14.066 13.129-21.827 18.825-10.631 7.804-16.978 20.271-16.978 33.352 0 13.083 6.326 25.534 16.921 33.308 29.896 21.933 51.953 51.726 63.786 86.159 1.069 3.11 3.978 5.064 7.092 5.064.808 0 1.631-.132 2.438-.409 3.917-1.346 6.001-5.613 4.655-9.53-12.831-37.339-36.726-69.629-69.099-93.378-6.759-4.959-10.794-12.89-10.794-21.215 0-8.323 4.058-16.27 10.853-21.259 8.394-6.16 16.339-13.014 23.615-20.368 0 0 .001-.001 0 .001 35.934-36.319 55.724-84.072 55.724-134.463v-29.382c13.444-.38 24.268-11.561 24.268-25.259 0-13.938-11.202-25.277-24.972-25.277h-265.972c-13.824 0-24.974 11.327-24.972 25.279.001 13.698 10.825 24.877 24.268 25.257zm.704-35.536h265.972c5.499 0 9.973 4.61 9.973 10.276 0 5.667-4.474 10.277-9.973 10.277h-265.972c-5.499 0-9.972-4.61-9.973-10.275.001-5.77 4.554-10.278 9.973-10.278z"/><path d="m389.688 461.464c0-30.907.43-39.413-1.82-55.487-.574-4.102-4.357-6.956-8.467-6.388-4.102.574-6.962 4.365-6.388 8.468 2.057 14.693 1.675 21.961 1.675 53.389h-118.69l-118.69-.001c0-32.503-2.042-59.175 13.42-96.351.002-.006.005-.012.007-.018 12.482-30.003 33.174-56.2 59.839-75.761 10.598-7.775 16.926-20.228 16.926-33.311 0-13.081-6.345-25.548-16.973-33.348-10.786-7.917-20.681-16.992-29.412-26.975-2.728-3.117-7.465-3.435-10.583-.708s-3.435 7.465-.708 10.583c9.451 10.807 20.16 20.628 31.828 29.191 6.793 4.986 10.848 12.932 10.848 21.256s-4.037 16.256-10.798 21.216c-28.87 21.179-51.283 49.565-64.816 82.094-.002.007-.005.013-.008.02-16.591 39.891-14.57 68.322-14.57 102.129-6.43.18-12.443 2.798-16.998 7.433-4.687 4.77-7.269 11.101-7.268 17.829.001 13.938 11.204 25.276 24.972 25.276h265.972c13.77 0 24.973-11.339 24.973-25.276-.001-13.699-10.825-24.881-24.271-25.26zm-.702 35.536h-265.972c-5.499 0-9.972-4.609-9.973-10.275 0-5.758 4.54-10.278 9.973-10.278h132.984 132.988c5.499 0 9.973 4.61 9.973 10.277-.001 5.666-4.474 10.276-9.973 10.276z"/><path d="m263.498 232.5c0-4.143-3.358-7.5-7.5-7.5s-7.5 3.357-7.5 7.5v10c0 4.143 3.358 7.5 7.5 7.5s7.5-3.357 7.5-7.5z"/><path d="m255.998 328c4.142 0 7.5-3.357 7.5-7.5v-10c0-4.143-3.358-7.5-7.5-7.5s-7.5 3.357-7.5 7.5v10c0 4.143 3.358 7.5 7.5 7.5z"/><path d="m255.998 264c-4.142 0-7.5 3.357-7.5 7.5v10c0 4.143 3.358 7.5 7.5 7.5s7.5-3.357 7.5-7.5v-10c0-4.143-3.358-7.5-7.5-7.5z"/><path d="m358.797 103.7c.68-4.529-2.831-8.613-7.417-8.613h-190.759c-4.58 0-8.098 4.078-7.417 8.613 5.051 33.637 20.528 64.451 44.758 89.113 15.21 15.479 36.365 24.358 58.04 24.358 21.673 0 42.828-8.878 58.038-24.357 24.23-24.661 39.707-55.475 44.757-89.114zm-102.796 98.472c-17.677 0-34.932-7.243-47.34-19.871-19.909-20.264-33.306-45.083-39.065-72.214h172.808c-5.758 27.133-19.155 51.952-39.064 72.214-12.408 12.629-29.663 19.871-47.339 19.871z"/></g></g></svg>