<svg id="Capa_1" enable-background="new 0 0 512 512" height="512" viewBox="0 0 512 512" width="512" xmlns="http://www.w3.org/2000/svg"><g><path d="m506.573 132.004-126.578-126.578c-.001 0-.001 0-.002-.001-9.703-9.701-26.129-5.803-30.588 7.003-6.537 18.759-6.814 39.557.037 59.125l-73.727 59.715c-21.033-9.831-44.142-15.018-68.051-15.018-42.963 0-83.354 16.73-113.734 47.109-2.929 2.93-2.929 7.678 0 10.607 20.534 20.533 74.013 74.012 93.141 93.14l-115.063 126.283c-2.79 3.063-2.569 7.806.492 10.596 3.062 2.788 7.807 2.569 10.596-.492l114.593-125.768 36.585 36.585-196.627 179.157c-5.289 4.82-13.512 4.735-18.683-.436-5.182-5.18-5.239-13.404-.433-18.679l40.992-44.989c2.79-3.063 2.569-7.806-.492-10.596-3.063-2.788-7.806-2.568-10.596.492l-40.991 44.991c-10.097 11.083-10.044 28.435.915 39.39 10.924 10.922 28.264 11.052 39.391.915l197.142-179.627c82.938 82.939 40.699 40.7 93.14 93.141 2.931 2.929 7.678 2.928 10.607 0 19.895-19.896 34.262-44.69 41.548-71.705 1.079-3.999-1.289-8.116-5.288-9.194-4-1.081-8.115 1.289-9.194 5.288-5.955 22.081-17.134 42.529-32.505 59.564-1.001-1.001-227.247-227.246-233.227-233.226 26.84-24.267 61.246-37.546 97.691-37.546 22.99 0 45.166 5.287 65.145 15.279.167.101.33.208.507.297 13.8 6.957 26.445 16.108 37.477 27.141 28.605 28.605 37.533 36.165 48.832 54.719 15.147 24.942 22.033 52.835 21.029 80.921-.148 4.14 3.086 7.616 7.226 7.765.092.003.183.005.274.005 4.018 0 7.345-3.183 7.49-7.23.901-25.054-3.939-50.357-14.927-73.846l59.728-73.743c19.568 6.851 40.365 6.575 59.126.037 12.796-4.459 16.708-20.87 7.002-30.591zm-133.501 89.902c-6.062-10.124-13.162-19.482-21.354-28.132-35.96-37.973-48.433-46.969-61.607-54.861l67.745-54.87 70.101 70.101zm121.563-73.476c-16.936 5.901-35.529 5.557-52.356-1.178l-77.532-77.531c-6.528-16.313-7.26-34.906-1.178-52.358.843-2.418 3.95-3.196 5.817-1.329l126.575 126.574c1.868 1.871 1.097 4.977-1.326 5.822z"/></g></svg>