<svg id="Capa_1" enable-background="new 0 0 512 512" height="512" viewBox="0 0 512 512" width="512" xmlns="http://www.w3.org/2000/svg"><g><path d="m256 436.45c76.617 0 138.95-62.333 138.95-138.95s-62.333-138.95-138.95-138.95-138.95 62.333-138.95 138.95 62.333 138.95 138.95 138.95zm0-262.9c68.347 0 123.95 55.604 123.95 123.95s-55.603 123.95-123.95 123.95-123.95-55.603-123.95-123.95 55.603-123.95 123.95-123.95z"/><path d="m256 407.245c60.514 0 109.745-49.231 109.745-109.745s-49.231-109.745-109.745-109.745-109.745 49.231-109.745 109.745 49.231 109.745 109.745 109.745zm0-204.49c52.242 0 94.745 42.503 94.745 94.745s-42.503 94.745-94.745 94.745-94.745-42.503-94.745-94.745 42.503-94.745 94.745-94.745z"/><path d="m461.657 207.835c7.444 0 13.5-6.056 13.5-13.5v-28c0-7.444-6.056-13.5-13.5-13.5h-28c-7.444 0-13.5 6.056-13.5 13.5v28c0 7.444 6.056 13.5 13.5 13.5zm-26.5-40h25v25h-25z"/><path d="m125.343 166.335c0-7.444-6.056-13.5-13.5-13.5h-61.5c-7.444 0-13.5 6.056-13.5 13.5v28c0 7.444 6.056 13.5 13.5 13.5h61.5c7.444 0 13.5-6.056 13.5-13.5zm-15 26.5h-58.5v-25h58.5z"/><path d="m318.523 64.023h-125.046c-12.118 0-21.977 9.858-21.977 21.977s9.858 21.977 21.977 21.977h125.047c12.118 0 21.977-9.858 21.977-21.977s-9.859-21.977-21.978-21.977zm0 28.954h-125.046c-3.847 0-6.977-3.13-6.977-6.977s3.13-6.977 6.977-6.977h125.047c3.847 0 6.977 3.13 6.977 6.977s-3.131 6.977-6.978 6.977z"/><path d="m256 351.75c29.913 0 54.25-24.337 54.25-54.25 0-4.248-.506-8.448-1.485-12.55 6.108-5.239 9.989-13.003 9.989-21.662 0-15.738-12.804-28.542-28.542-28.542-8.658 0-16.423 3.881-21.662 9.989-4.102-.979-8.302-1.485-12.55-1.485-29.913 0-54.25 24.337-54.25 54.25s24.337 54.25 54.25 54.25zm34.212-102.004c7.467 0 13.542 6.075 13.542 13.542 0 6.907-5.216 12.682-12.017 13.449-.904.102-1.524.092-1.524.092-9.654 0-16.886-10.138-11.902-19.994 2.295-4.219 6.769-7.089 11.901-7.089zm-34.212 8.504c2.033 0 4.05.156 6.042.468-3.102 19.176 13.494 35.851 32.741 32.741 3.703 23.697-14.683 45.291-38.783 45.291-21.643 0-39.25-17.607-39.25-39.25s17.607-39.25 39.25-39.25z"/><path d="m474.5 120h-73.506l-27.639-66.108c-4.291-10.262-14.25-16.892-25.372-16.892h-183.966c-11.122 0-21.081 6.63-25.372 16.893l-25.676 61.414v-21.508c0-7.058-5.741-12.799-12.799-12.799h-38.153c-7.058 0-12.799 5.741-12.799 12.799v26.201h-11.718c-20.678 0-37.5 16.822-37.5 37.5v280c0 20.678 16.822 37.5 37.5 37.5h72c4.143 0 7.5-3.357 7.5-7.5s-3.357-7.5-7.5-7.5h-72c-12.406 0-22.5-10.094-22.5-22.5v-280c0-12.406 10.094-22.5 22.5-22.5h437c12.406 0 22.5 10.094 22.5 22.5v54.572c0 4.143 3.357 7.5 7.5 7.5s7.5-3.357 7.5-7.5v-54.572c0-20.678-16.822-37.5-37.5-37.5zm-410.282 0v-24h33.751v24zm63.047 0 25.219-60.321c1.951-4.665 6.478-7.679 11.533-7.679h183.967c5.056 0 9.582 3.014 11.532 7.678l25.219 60.322z"/><path d="m504.5 239.572c-4.143 0-7.5 3.357-7.5 7.5v190.428c0 12.406-10.094 22.5-22.5 22.5h-330c-4.143 0-7.5 3.357-7.5 7.5s3.357 7.5 7.5 7.5h330c20.678 0 37.5-16.822 37.5-37.5v-190.428c0-4.142-3.357-7.5-7.5-7.5z"/></g></svg>