<svg id="Capa_1" enable-background="new 0 0 512 512" height="512" viewBox="0 0 512 512" width="512" xmlns="http://www.w3.org/2000/svg"><g id="_x34_0_camera"><path d="m369.769 50.773c-3.205-7.666-10.701-12.656-19.009-12.656h-189.519c-8.309 0-15.804 4.99-19.009 12.656l-30.457 72.849v23.045h288.451v-23.045z" fill="#465a61"/><path d="m481.095 473.883h-450.19c-17.068 0-30.905-13.837-30.905-30.905v-288.451c0-17.069 13.837-30.905 30.905-30.905h450.189c17.069 0 30.905 13.837 30.905 30.905v288.451c.001 17.068-13.836 30.905-30.904 30.905z" fill="#596c76"/><circle cx="256" cy="298.753" fill="#9facba" r="135.417"/><circle cx="256" cy="298.753" fill="#465a61" r="105.331"/><circle cx="256" cy="298.753" fill="#596c76" r="48.161"/><path d="m432.838 192.474v-28.845c0-3.414 2.767-6.181 6.181-6.181h28.845c3.414 0 6.181 2.767 6.181 6.181v28.845c0 3.414-2.767 6.181-6.181 6.181h-28.845c-3.414 0-6.181-2.768-6.181-6.181z" fill="#ffd15b"/><path d="m37.955 192.474v-28.845c0-3.414 2.767-6.181 6.181-6.181h63.356c3.414 0 6.181 2.767 6.181 6.181v28.845c0 3.414-2.767 6.181-6.181 6.181h-63.356c-3.413 0-6.181-2.768-6.181-6.181z" fill="#d8ecfe"/><circle cx="291.245" cy="263.508" fill="#7a8c98" r="21.677"/><path d="m320.41 95.783h-128.82c-8.237 0-14.914-6.677-14.914-14.914 0-8.237 6.677-14.914 14.914-14.914h128.82c8.237 0 14.914 6.677 14.914 14.914 0 8.237-6.677 14.914-14.914 14.914z" fill="#d8ecfe"/><g fill="#465a61"><path d="m100.926 123.622h-50.223v-34.718c0-3.015 2.444-5.459 5.459-5.459h39.305c3.015 0 5.459 2.444 5.459 5.459z"/><path d="m481.095 123.622h-37.955c17.069 0 30.905 13.837 30.905 30.905v288.451c0 17.069-13.837 30.905-30.905 30.905h37.955c17.069 0 30.905-13.837 30.905-30.905v-288.451c0-17.069-13.837-30.905-30.905-30.905z"/></g></g></svg>