<svg id="Capa_1" enable-background="new 0 0 512.209 512.209" height="512" viewBox="0 0 512.209 512.209" width="512" xmlns="http://www.w3.org/2000/svg"><g><g id="_x34_1_power_button"><circle cx="256.104" cy="256" fill="#596c76" r="248.5"/><g fill="#d8ecfe"><path d="m310.004 138.688v.004c0 8.755 4.69 16.814 12.259 21.212 40.174 23.341 66.986 67.246 65.913 117.2-1.551 72.158-61.501 130.062-133.67 129.202-72.109-.859-130.505-59.785-130.505-132.094 0-48.849 26.653-91.587 66.178-114.443 7.496-4.335 12.025-12.424 12.025-21.083 0-18.976-20.58-30.634-36.977-21.083-54.305 31.633-90.754 90.697-90.221 158.067.782 98.899 81.705 179.382 180.607 179.645 100.085.267 181.594-81.078 181.594-181.103 0-66.792-36.345-125.255-90.296-156.65-16.369-9.526-36.907 2.187-36.907 21.126z"/><path d="m256.105 184.085c-13.531 0-24.5-10.969-24.5-24.5v-78.4c0-13.531 10.969-24.5 24.5-24.5 13.531 0 24.5 10.969 24.5 24.5v78.4c-.001 13.531-10.97 24.5-24.5 24.5z"/></g><path d="m256.104 7.5c-6.951 0-13.831.3-20.637.859 127.586 10.491 227.863 117.349 227.863 247.641s-100.277 237.15-227.862 247.641c6.806.56 13.686.859 20.637.859 137.243 0 248.5-111.257 248.5-248.5s-111.258-248.5-248.501-248.5z" fill="#465a61"/></g><g><path d="m427.636 65.963c-3.074-2.776-7.817-2.534-10.593.538-2.776 3.074-2.535 7.817.539 10.594 50.538 45.643 79.523 110.852 79.522 178.905 0 162.562-158.701 279.066-314.019 229.742-3.95-1.253-8.165.93-9.418 4.879-1.253 3.947.931 8.164 4.878 9.418 164.798 52.327 333.559-70.6 333.559-244.039.001-73.792-31.277-141.999-84.468-190.037z"/><path d="m151.566 473.21c-82.897-39.971-136.461-125.231-136.462-217.21 0-135.721 111.442-241 241-241 48.311 0 94.917 14.239 134.777 41.179 3.433 2.32 8.095 1.417 10.414-2.015s1.417-8.094-2.014-10.413c-42.351-28.622-91.86-43.751-143.177-43.751-141.358 0-256 114.616-256 256 .001 100.327 58.003 188.797 144.947 230.722 3.74 1.802 8.217.225 10.013-3.498 1.8-3.732.233-8.215-3.498-10.014z"/><path d="m193.934 166.261c9.728-5.625 15.771-16.192 15.771-27.576 0-24.745-26.821-40.049-48.252-27.563-58.481 34.066-94.479 97.141-93.946 164.607.815 103.004 85.415 187.087 188.602 187.087 103.928-.002 188.599-84.343 188.599-188.604 0-67.973-36.484-129.649-94.024-163.132-10.063-5.854-22.084-5.893-32.158-.099-10.032 5.77-16.021 16.127-16.021 27.708v.004c0 11.353 6.127 21.966 15.991 27.695 39.331 22.853 63.157 65.214 62.183 110.555-1.461 67.952-57.952 122.664-126.083 121.863-67.875-.809-123.095-56.701-123.095-124.595 0-44.317 23.923-85.682 62.433-107.95zm-77.433 107.95c0 76.453 62.017 139.604 139.592 139.604 75.497 0 137.957-60.915 139.582-136.55 1.092-50.798-25.594-98.253-69.644-123.847-5.26-3.056-8.527-8.698-8.527-14.726v-.004c0-6.147 3.177-11.645 8.499-14.704 5.364-3.084 11.77-3.063 17.136.06 53.397 31.072 86.569 88.612 86.569 150.167 0 95.3-77.095 173.604-174.074 173.604-94.713-.253-172.378-77.503-173.127-172.205-.491-62.1 32.652-120.162 86.496-151.527 11.428-6.657 25.702 1.441 25.702 14.603 0 6.047-3.173 11.638-8.28 14.592-43.131 24.938-69.924 71.278-69.924 120.933z"/><path d="m288.104 159.585v-78.399c0-17.645-14.355-32-32-32s-32 14.355-32 32v78.399c0 17.645 14.355 32 32 32s32-14.356 32-32zm-49 0v-78.399c0-9.374 7.626-17 17-17s17 7.626 17 17v78.399c0 9.374-7.626 17-17 17s-17-7.626-17-17z"/></g></g></svg>