<svg id="Capa_1" enable-background="new 0 0 512 512" height="512" viewBox="0 0 512 512" width="512" xmlns="http://www.w3.org/2000/svg"><g id="_x34_1_power_button"><circle cx="256" cy="256" fill="#596c76" r="256"/><g fill="#d8ecfe"><path d="m311.527 135.148v.004c0 9.019 4.831 17.321 12.629 21.852 41.386 24.045 69.008 69.276 67.902 120.737-1.598 74.336-63.357 133.987-137.704 133.101-74.285-.885-134.444-61.59-134.444-136.081 0-50.323 27.457-94.351 68.175-117.897 7.723-4.466 12.388-12.799 12.388-21.72 0-19.549-21.201-31.559-38.093-21.719-55.944 32.588-93.493 93.434-92.944 162.837.806 101.884 84.171 184.796 186.058 185.067 103.106.275 187.075-83.525 187.075-186.569 0-68.808-37.442-129.035-93.022-161.378-16.863-9.812-38.02 2.255-38.02 21.766z"/><path d="m256 181.915c-13.939 0-25.239-11.3-25.239-25.239v-80.767c0-13.939 11.3-25.239 25.239-25.239 13.939 0 25.239 11.3 25.239 25.239v80.766c0 13.94-11.3 25.24-25.239 25.24z"/></g><path d="m256 0c-7.16 0-14.248.309-21.26.885 131.436 10.808 234.74 120.891 234.74 255.115s-103.304 244.307-234.74 255.115c7.012.576 14.1.885 21.26.885 141.385 0 256-114.615 256-256s-114.615-256-256-256z" fill="#465a61"/></g></svg>