<svg id="Capa_1" enable-background="new 0 0 512 512" height="512" viewBox="0 0 512 512" width="512" xmlns="http://www.w3.org/2000/svg"><g id="_x34_4_voice_recorder"><path d="m340.657 200.128v-115.471c0-46.68-37.977-84.657-84.657-84.657s-84.657 37.977-84.657 84.657v115.471z" fill="#b6c4cf"/><path d="m256 0c-6.834 0-13.473.835-19.843 2.372 37.135 8.956 64.814 42.439 64.814 82.285v115.471h39.685v-115.471c.001-46.68-37.976-84.657-84.656-84.657z" fill="#9facba"/><path d="m171.343 200.128v21.072c0 46.68 37.977 84.657 84.657 84.657s84.657-37.977 84.657-84.657v-21.072z" fill="#7a8c98"/><path d="m303.066 512h-94.132c-13.777 0-24.945-11.168-24.945-24.945 0-13.777 11.168-24.945 24.945-24.945h94.132c13.777 0 24.945 11.168 24.945 24.945 0 13.777-11.168 24.945-24.945 24.945z" fill="#596c76"/><g><path d="m256 373.264c-79.075 0-143.408-64.333-143.408-143.408 0-8.534 6.919-15.453 15.453-15.453s15.453 6.919 15.453 15.453c0 62.034 50.469 112.503 112.503 112.503s112.503-50.469 112.503-112.503c0-8.534 6.919-15.453 15.453-15.453s15.453 6.919 15.453 15.453c-.002 79.075-64.335 143.408-143.41 143.408z" fill="#596c76"/></g><g><path d="m222.813 99.368h-51.47v-15.453h51.47c4.267 0 7.726 3.459 7.726 7.726 0 4.268-3.459 7.727-7.726 7.727z" fill="#596c76"/></g><g fill="#9facba"><path d="m256 342.358c7.036 0 13.922-.656 20.604-1.898v-37.152c-13.529 3.397-27.669 3.399-41.207 0v37.152c6.681 1.243 13.567 1.898 20.603 1.898z"/><path d="m235.396 371.778v90.332h41.207v-90.332c-13.696 1.979-27.483 1.983-41.207 0z"/></g><g><path d="m222.813 136.09h-51.47v-15.453h51.47c4.267 0 7.726 3.459 7.726 7.726 0 4.267-3.459 7.727-7.726 7.727z" fill="#596c76"/></g><g><path d="m222.813 172.812h-51.47v-15.453h51.47c4.267 0 7.726 3.459 7.726 7.726 0 4.268-3.459 7.727-7.726 7.727z" fill="#596c76"/></g><g fill="#596c76"><path d="m308.534 157.359h-19.347c-4.267 0-7.726 3.459-7.726 7.726s3.459 7.726 7.726 7.726h19.347z"/><rect height="15.453" width="0" x="340.657" y="157.359"/></g><g fill="#596c76"><rect height="15.453" width="0" x="340.657" y="120.637"/><path d="m308.534 120.637h-19.347c-4.267 0-7.726 3.459-7.726 7.726s3.459 7.726 7.726 7.726h19.347z"/></g><g><path d="m383.956 214.403c-8.534 0-15.453 6.919-15.453 15.453 0 2.028-.057 4.043-.163 6.046-2.965 71.108-57.948 129.001-127.806 136.527 85.147 9.173 158.875-57.766 158.875-142.572-.001-8.536-6.919-15.454-15.453-15.454z" fill="#465a61"/></g><g fill="#465a61"><path d="m303.066 462.11h-39.685c13.777 0 24.945 11.168 24.945 24.945 0 13.777-11.168 24.945-24.945 24.945h39.685c13.777 0 24.945-11.168 24.945-24.945 0-13.777-11.168-24.945-24.945-24.945z"/><path d="m300.992 157.359h39.665v15.453h-39.665z"/><path d="m300.992 120.637h39.665v15.453h-39.665z"/></g><g fill="#596c76"><path d="m308.534 84.657c0-.248-.014-.493-.017-.741h-19.331c-4.267 0-7.726 3.459-7.726 7.726s3.459 7.726 7.726 7.726h19.347v-14.711z"/><path d="m340.638 83.915c.002.248.019.493.019.741v14.712-15.453z"/></g><path d="m300.992 84.657v14.712h39.665v-14.712c0-.248-.02-.493-.023-.741h-39.662c.002.247.02.492.02.741z" fill="#465a61"/><path d="m300.972 200.128v21.072c0 39.845-27.679 73.329-64.814 82.285 6.369 1.536 13.009 2.372 19.843 2.372 46.68 0 84.657-37.977 84.657-84.657v-21.072z" fill="#596c76"/></g></svg>