<svg id="Capa_1" enable-background="new 0 0 512 512" height="512" viewBox="0 0 512 512" width="512" xmlns="http://www.w3.org/2000/svg"><g><path d="m402.707 230.621c0-12.406-10.094-22.5-22.5-22.5s-22.5 10.094-22.5 22.5c0 46.555-31.443 85.902-74.207 97.927v-20.97c19.97-6.449 36.903-19.719 48.029-37.058 8.952-13.95 14.147-30.529 14.147-48.299v-.001c0-6.189 0-125.968 0-132.542.001-18.369-5.538-36.041-16.019-51.104-2.364-3.399-7.039-4.238-10.439-1.873s-4.239 7.04-1.873 10.439c8.584 12.339 13.176 26.784 13.318 41.817h-49.948c-4.143 0-7.5 3.357-7.5 7.5s3.357 7.5 7.5 7.5h49.962v20.646h-49.962c-4.143 0-7.5 3.357-7.5 7.5s3.357 7.5 7.5 7.5h49.962v20.646h-49.962c-4.143 0-7.5 3.357-7.5 7.5s3.357 7.5 7.5 7.5h49.962v19.016h-149.354v-19.016h49.962c4.143 0 7.5-3.357 7.5-7.5s-3.357-7.5-7.5-7.5h-49.962v-20.646h49.962c4.143 0 7.5-3.357 7.5-7.5s-3.357-7.5-7.5-7.5h-49.962v-20.646h49.962c4.143 0 7.5-3.357 7.5-7.5s-3.357-7.5-7.5-7.5h-49.944c.39-40.845 33.724-73.957 74.659-73.957 13.499 0 26.732 3.656 38.271 10.573 3.553 2.128 8.157.977 10.289-2.576 2.13-3.553.977-8.159-2.576-10.289-13.868-8.313-29.769-12.708-45.984-12.708-49.448 0-89.677 40.229-89.677 89.677v132.542.001c0 17.77 5.196 34.35 14.147 48.299 11.127 17.339 28.06 30.609 48.029 37.058v20.97c-42.764-12.025-74.207-51.372-74.207-97.927 0-12.406-10.094-22.5-22.5-22.5s-22.5 10.094-22.5 22.5c0 71.497 51.413 131.201 119.207 144.111v18.584c0 4.143 3.357 7.5 7.5 7.5s7.5-3.357 7.5-7.5v-16.523c8.54.717 16.774.691 25 0v71.778h-25v-20.255c0-4.143-3.357-7.5-7.5-7.5s-7.5 3.357-7.5 7.5v20.255h-18.188c-17.487 0-31.714 14.228-31.714 31.715s14.228 31.715 31.716 31.715h91.375c17.487 0 31.714-14.227 31.714-31.714s-14.227-31.715-31.714-31.715h-18.188v-73.839c67.794-12.91 119.207-72.614 119.207-144.111zm-210.557 30.292c-12.191-20.042-10.827-36.84-10.827-51.648h149.354c0 14.66 1.406 31.536-10.827 51.648-12.575 20.673-34.973 34.876-60.85 35.907-27.549 1.101-52.879-12.938-66.85-35.907zm76.35 50.108v20.538c-7.993.987-16.516 1.048-25 0v-20.538c8.038 1.127 16.473 1.196 25 0zm33.188 152.55c9.216 0 16.714 7.498 16.714 16.715 0 9.216-7.498 16.714-16.714 16.714h-91.375c-9.216 0-16.714-7.498-16.714-16.714 0-9.217 7.498-16.715 16.714-16.715zm-64.603-102.607c-63.693-9.201-112.792-64.143-112.792-130.343 0-4.136 3.364-7.5 7.5-7.5s7.5 3.364 7.5 7.5c0 64.112 52.114 116.707 116.707 116.707 64.059 0 116.707-52.09 116.707-116.707 0-4.136 3.364-7.5 7.5-7.5s7.5 3.364 7.5 7.5c0 79.824-70.968 141.855-150.622 130.343z"/></g></svg>