<svg id="Capa_1" enable-background="new 0 0 512 512" height="512" viewBox="0 0 512 512" width="512" xmlns="http://www.w3.org/2000/svg"><g><g><path d="m338.177 201.765v-112.088c0-45.312-36.865-82.177-82.177-82.177s-82.177 36.865-82.177 82.177v112.088z" fill="#b6c4cf"/><path d="m256 7.5c-6.634 0-13.079.811-19.261 2.302 36.047 8.694 62.915 41.196 62.915 79.874v112.088h38.522v-112.087c.001-45.313-36.864-82.177-82.176-82.177z" fill="#9facba"/><path d="m173.823 201.765v20.455c0 45.312 36.865 82.177 82.177 82.177s82.177-36.865 82.177-82.177v-20.455z" fill="#7a8c98"/><path d="m301.687 504.5h-91.374c-13.373 0-24.214-10.841-24.214-24.214 0-13.373 10.841-24.214 24.214-24.214h91.374c13.373 0 24.214 10.841 24.214 24.214 0 13.373-10.841 24.214-24.214 24.214z" fill="#596c76"/><g><path d="m256 369.828c-76.759 0-139.207-62.448-139.207-139.207 0-8.284 6.716-15 15-15s15 6.716 15 15c0 60.217 48.99 109.207 109.207 109.207s109.207-48.99 109.207-109.207c0-8.284 6.716-15 15-15s15 6.716 15 15c0 76.759-62.448 139.207-139.207 139.207z" fill="#596c76"/></g><g fill="#9facba"><path d="m256 339.828c6.83 0 13.514-.636 20-1.842v-36.063c-13.133 3.297-26.859 3.299-40 0v36.063c6.486 1.206 13.17 1.842 20 1.842z"/><path d="m236 368.386v87.686h40v-87.686c-13.295 1.921-26.678 1.925-40 0z"/></g><g><path d="m380.207 215.621c-8.284 0-15 6.716-15 15 0 1.969-.055 3.925-.159 5.868-2.878 69.025-56.25 125.221-124.062 132.527 82.653 8.905 154.22-56.074 154.22-138.395.001-8.284-6.715-15-14.999-15z" fill="#465a61"/></g><path d="m301.687 456.072h-38.522c13.373 0 24.214 10.841 24.214 24.214 0 13.373-10.841 24.214-24.214 24.214h38.522c13.373 0 24.214-10.841 24.214-24.214 0-13.373-10.841-24.214-24.214-24.214z" fill="#465a61"/><path d="m299.654 201.765v20.455c0 38.678-26.868 71.181-62.915 79.875 6.183 1.491 12.627 2.302 19.261 2.302 45.312 0 82.177-36.865 82.177-82.177v-20.455z" fill="#596c76"/></g><path d="m402.707 230.621c0-12.406-10.094-22.5-22.5-22.5s-22.5 10.094-22.5 22.5c0 46.555-31.443 85.902-74.207 97.927v-20.97c19.97-6.449 36.903-19.719 48.029-37.058 8.952-13.95 14.147-30.529 14.147-48.299v-.001c0-6.189 0-125.968 0-132.542.001-18.369-5.538-36.041-16.019-51.104-2.364-3.399-7.039-4.238-10.439-1.873s-4.239 7.04-1.873 10.439c8.584 12.339 13.176 26.784 13.318 41.817h-49.948c-4.143 0-7.5 3.357-7.5 7.5s3.357 7.5 7.5 7.5h49.962v20.646h-49.962c-4.143 0-7.5 3.357-7.5 7.5s3.357 7.5 7.5 7.5h49.962v20.646h-49.962c-4.143 0-7.5 3.357-7.5 7.5s3.357 7.5 7.5 7.5h49.962v19.016h-149.354v-19.016h49.962c4.143 0 7.5-3.357 7.5-7.5s-3.357-7.5-7.5-7.5h-49.962v-20.646h49.962c4.143 0 7.5-3.357 7.5-7.5s-3.357-7.5-7.5-7.5h-49.962v-20.646h49.962c4.143 0 7.5-3.357 7.5-7.5s-3.357-7.5-7.5-7.5h-49.944c.39-40.845 33.724-73.957 74.659-73.957 13.499 0 26.732 3.656 38.271 10.573 3.553 2.128 8.157.977 10.289-2.576 2.13-3.553.977-8.159-2.576-10.289-13.868-8.313-29.769-12.708-45.984-12.708-49.448 0-89.677 40.229-89.677 89.677v132.542.001c0 17.77 5.196 34.35 14.147 48.299 11.127 17.339 28.06 30.609 48.029 37.058v20.97c-42.764-12.025-74.207-51.372-74.207-97.927 0-12.406-10.094-22.5-22.5-22.5s-22.5 10.094-22.5 22.5c0 71.497 51.413 131.201 119.207 144.111v18.584c0 4.143 3.357 7.5 7.5 7.5s7.5-3.357 7.5-7.5v-16.523c8.54.717 16.774.691 25 0v71.778h-25v-20.255c0-4.143-3.357-7.5-7.5-7.5s-7.5 3.357-7.5 7.5v20.255h-18.188c-17.487 0-31.714 14.228-31.714 31.715s14.228 31.715 31.716 31.715h91.375c17.487 0 31.714-14.227 31.714-31.714s-14.227-31.715-31.714-31.715h-18.188v-73.839c67.794-12.91 119.207-72.614 119.207-144.111zm-210.557 30.292c-12.191-20.042-10.827-36.84-10.827-51.648h149.354c0 14.66 1.406 31.536-10.827 51.648-12.575 20.673-34.973 34.876-60.85 35.907-27.549 1.101-52.879-12.938-66.85-35.907zm76.35 50.108v20.538c-7.993.987-16.516 1.048-25 0v-20.538c8.038 1.127 16.473 1.196 25 0zm33.188 152.55c9.216 0 16.714 7.498 16.714 16.715 0 9.216-7.498 16.714-16.714 16.714h-91.375c-9.216 0-16.714-7.498-16.714-16.714 0-9.217 7.498-16.715 16.714-16.715zm-64.603-102.607c-63.693-9.201-112.792-64.143-112.792-130.343 0-4.136 3.364-7.5 7.5-7.5s7.5 3.364 7.5 7.5c0 64.112 52.114 116.707 116.707 116.707 64.059 0 116.707-52.09 116.707-116.707 0-4.136 3.364-7.5 7.5-7.5s7.5 3.364 7.5 7.5c0 79.824-70.968 141.855-150.622 130.343z"/></g></svg>