<svg id="Capa_1" enable-background="new 0 0 512 512" height="512" viewBox="0 0 512 512" width="512" xmlns="http://www.w3.org/2000/svg"><g><g id="_x34_5_coin"><path d="m492.764 419.672h-298.031c-6.482 0-11.736-5.255-11.736-11.736v-46.946c0-6.482 5.255-11.736 11.736-11.736h298.031c6.482 0 11.736 5.255 11.736 11.736v46.945c0 6.482-5.255 11.737-11.736 11.737z" fill="#ffd15b"/><path d="m492.764 349.254h-298.031c-6.482 0-11.736-5.255-11.736-11.736v-46.945c0-6.482 5.255-11.736 11.736-11.736h298.031c6.482 0 11.736 5.255 11.736 11.736v46.945c0 6.481-5.255 11.736-11.736 11.736z" fill="#ffc344"/><path d="m492.764 278.836h-298.031c-6.482 0-11.736-5.255-11.736-11.736v-46.945c0-6.482 5.255-11.736 11.736-11.736h298.031c6.482 0 11.736 5.255 11.736 11.736v46.945c0 6.481-5.255 11.736-11.736 11.736z" fill="#ffd15b"/><path d="m492.764 208.418h-298.031c-6.482 0-11.736-5.255-11.736-11.736v-46.945c0-6.482 5.255-11.736 11.736-11.736h298.031c6.482 0 11.736 5.255 11.736 11.736v46.945c0 6.482-5.255 11.736-11.736 11.736z" fill="#ffc344"/><path d="m492.764 138h-298.031c-6.482 0-11.736-5.255-11.736-11.736v-46.945c0-6.482 5.255-11.736 11.736-11.736h298.031c6.482 0 11.736 5.255 11.736 11.736v46.945c0 6.482-5.255 11.736-11.736 11.736z" fill="#ffd15b"/><path d="m492.764 349.254h-39.095c6.482 0 11.736 5.254 11.736 11.736v46.945c0 6.482-5.254 11.736-11.736 11.736h39.095c6.482 0 11.736-5.254 11.736-11.736v-46.945c0-6.482-5.254-11.736-11.736-11.736z" fill="#ffc344"/><path d="m492.764 278.836h-39.095c6.482 0 11.736 5.254 11.736 11.736v46.945c0 6.482-5.254 11.736-11.736 11.736h39.095c6.482 0 11.736-5.255 11.736-11.736v-46.945c0-6.482-5.254-11.736-11.736-11.736z" fill="#feb137"/><path d="m492.764 208.418h-39.095c6.482 0 11.736 5.254 11.736 11.736v46.946c0 6.482-5.254 11.736-11.736 11.736h39.095c6.482 0 11.736-5.255 11.736-11.736v-46.945c0-6.482-5.254-11.737-11.736-11.737z" fill="#ffc344"/><path d="m492.764 138h-39.095c6.482 0 11.736 5.254 11.736 11.736v46.945c0 6.482-5.254 11.736-11.736 11.736h39.095c6.482 0 11.736-5.255 11.736-11.736v-46.945c0-6.481-5.254-11.736-11.736-11.736z" fill="#feb137"/><path d="m492.764 67.582h-39.095c6.482 0 11.736 5.254 11.736 11.736v46.945c0 6.482-5.254 11.736-11.736 11.736h39.095c6.482 0 11.736-5.255 11.736-11.736v-46.944c0-6.482-5.254-11.737-11.736-11.737z" fill="#ffc344"/><circle cx="163.542" cy="288.375" fill="#feb137" r="156.042"/><ellipse cx="163.543" cy="288.375" fill="#ffd15b" rx="120.45" ry="120.45" transform="matrix(.924 -.383 .383 .924 -97.907 84.536)"/></g><g><path d="m171.888 375.364v-10.513h.476c23.435 0 42.5-19.065 42.5-42.5s-19.065-42.5-42.5-42.5h-.476v-54.799c15.715 1.755 27.976 15.116 27.976 31.292 0 4.143 3.357 7.5 7.5 7.5s7.5-3.357 7.5-7.5c0-24.452-18.978-44.541-42.976-46.346v-7.634c0-4.143-3.357-7.5-7.5-7.5s-7.5 3.357-7.5 7.5v7.487h-4.524c-23.435 0-42.5 19.065-42.5 42.5s19.065 42.5 42.5 42.5h4.524v55c-17.66-.011-32.024-14.381-32.024-32.044 0-4.143-3.357-7.5-7.5-7.5s-7.5 3.357-7.5 7.5c0 25.934 21.094 47.033 47.024 47.044v10.513c0 4.143 3.357 7.5 7.5 7.5s7.5-3.358 7.5-7.5zm0-80.513h.476c15.163 0 27.5 12.337 27.5 27.5s-12.337 27.5-27.5 27.5h-.476zm-15-15h-4.524c-15.163 0-27.5-12.337-27.5-27.5s12.337-27.5 27.5-27.5h4.524z"/><path d="m291.492 288.375c0-70.552-57.397-127.95-127.949-127.95s-127.95 57.398-127.95 127.95c0 70.553 57.398 127.951 127.95 127.951s127.949-57.399 127.949-127.951zm-240.899 0c0-62.281 50.669-112.95 112.95-112.95 62.28 0 112.949 50.669 112.949 112.95s-50.669 112.951-112.949 112.951c-62.281 0-112.95-50.67-112.95-112.951z"/><path d="m512 79.319c0-10.606-8.629-19.236-19.236-19.236h-24c-4.143 0-7.5 3.357-7.5 7.5s3.357 7.5 7.5 7.5h24c2.336 0 4.236 1.9 4.236 4.236v46.945c0 2.336-1.9 4.236-4.236 4.236h-286.426c-4.578-1.237-10.559-2.565-15.766-3.432-.119-.608-.076-47.131-.076-47.75 0-2.336 1.9-4.236 4.236-4.236h239.031c4.143 0 7.5-3.357 7.5-7.5s-3.357-7.5-7.5-7.5h-239.031c-10.607 0-19.236 8.63-19.236 19.236v45.953c-3.948-.287-7.934-.439-11.954-.439-.003 0-.004 0-.007 0-25.065 0-49.124 5.525-71.5 16.422-.001.001-.001.001-.002.001-27.175 13.232-50.15 33.72-66.443 59.247-16.741 26.23-25.59 56.616-25.59 87.873.001 44.791 17.757 86.592 49.997 117.702 2.981 2.876 7.729 2.791 10.605-.189s2.791-7.729-.189-10.605c-29.284-28.258-45.412-66.225-45.413-106.908 0-57.318 32.033-108.523 83.6-133.633 20.317-9.894 42.163-14.909 64.937-14.909h.006c60.209 0 113.654 36.334 136.735 90.513.062.147.126.294.188.441 40.462 95.804-29.29 206.131-136.923 206.131-27.139 0-53.688-7.385-76.781-21.355-3.545-2.146-8.155-1.009-10.299 2.535-2.145 3.544-1.01 8.154 2.535 10.299 25.434 15.388 54.669 23.521 84.545 23.521 31.697 0 61.31-9.074 86.396-24.746h242.825c10.607 0 19.236-8.629 19.236-19.235v-46.945c0-4.42-1.514-8.484-4.029-11.736 2.515-3.252 4.029-7.316 4.029-11.736v-46.945c0-4.42-1.514-8.484-4.029-11.736 2.515-3.252 4.029-7.316 4.029-11.736v-46.945c0-4.42-1.514-8.485-4.029-11.737 2.516-3.252 4.029-7.316 4.029-11.736v-46.945c0-4.42-1.514-8.484-4.03-11.736 2.516-3.252 4.03-7.316 4.03-11.736zm-15 328.617c0 2.335-1.9 4.235-4.236 4.235h-222.324c17.688-15.248 31.873-34.058 41.704-55.417h180.619c2.336 0 4.236 1.9 4.236 4.236v46.946zm0-70.418c0 2.336-1.9 4.236-4.236 4.236h-174.589c6.25-18.076 9.135-36.915 8.896-55.418h165.692c2.336 0 4.236 1.9 4.236 4.236v46.946zm0-70.418c0 2.336-1.9 4.236-4.236 4.236h-166.564c-1.518-14.594-4.984-28.839-10.406-42.682-.078-.197-.158-.393-.237-.59-1.631-4.119-3.42-8.174-5.381-12.146h182.587c2.336 0 4.236 1.9 4.236 4.236v46.946zm0-70.418c0 2.336-1.9 4.236-4.236 4.236h-191.014c-14.774-23.332-34.86-42.256-58.486-55.418h249.5c2.336 0 4.236 1.9 4.236 4.236z"/></g></g></svg>