<svg id="Capa_1" enable-background="new 0 0 512 512" height="512" viewBox="0 0 512 512" width="512" xmlns="http://www.w3.org/2000/svg"><g id="_x34_5_coin"><path d="m499.909 424.612h-307.026c-6.677 0-12.091-5.413-12.091-12.091v-48.362c0-6.677 5.413-12.091 12.091-12.091h307.026c6.677 0 12.091 5.413 12.091 12.091v48.362c0 6.678-5.413 12.091-12.091 12.091z" fill="#ffd15b"/><path d="m499.909 352.069h-307.026c-6.677 0-12.091-5.413-12.091-12.091v-48.362c0-6.677 5.413-12.091 12.091-12.091h307.026c6.677 0 12.091 5.413 12.091 12.091v48.362c0 6.677-5.413 12.091-12.091 12.091z" fill="#ffc344"/><path d="m499.909 279.525h-307.026c-6.677 0-12.091-5.413-12.091-12.091v-48.362c0-6.677 5.413-12.091 12.091-12.091h307.026c6.677 0 12.091 5.413 12.091 12.091v48.362c0 6.678-5.413 12.091-12.091 12.091z" fill="#ffd15b"/><path d="m499.909 206.982h-307.026c-6.677 0-12.091-5.413-12.091-12.091v-48.361c0-6.677 5.413-12.091 12.091-12.091h307.026c6.677 0 12.091 5.413 12.091 12.091v48.362c0 6.677-5.413 12.09-12.091 12.09z" fill="#ffc344"/><path d="m499.909 134.439h-307.026c-6.677 0-12.091-5.413-12.091-12.091v-48.361c0-6.677 5.413-12.091 12.091-12.091h307.026c6.677 0 12.091 5.413 12.091 12.091v48.362c0 6.677-5.413 12.09-12.091 12.09z" fill="#ffd15b"/><path d="m499.91 352.069h-40.275c6.677 0 12.09 5.413 12.09 12.09v48.362c0 6.677-5.413 12.09-12.09 12.09h40.275c6.677 0 12.09-5.413 12.09-12.09v-48.362c0-6.677-5.413-12.09-12.09-12.09z" fill="#ffc344"/><path d="m499.91 279.526h-40.275c6.677 0 12.09 5.413 12.09 12.09v48.362c0 6.677-5.413 12.091-12.09 12.091h40.275c6.677 0 12.09-5.413 12.09-12.091v-48.362c0-6.677-5.413-12.09-12.09-12.09z" fill="#feb137"/><path d="m499.91 206.982h-40.275c6.677 0 12.09 5.413 12.09 12.09v48.362c0 6.677-5.413 12.091-12.09 12.091h40.275c6.677 0 12.09-5.413 12.09-12.091v-48.362c0-6.677-5.413-12.09-12.09-12.09z" fill="#ffc344"/><path d="m499.91 134.439h-40.275c6.677 0 12.09 5.413 12.09 12.09v48.362c0 6.677-5.413 12.091-12.09 12.091h40.275c6.677 0 12.09-5.413 12.09-12.091v-48.361c0-6.678-5.413-12.091-12.09-12.091z" fill="#feb137"/><path d="m499.91 61.896h-40.275c6.677 0 12.09 5.413 12.09 12.09v48.362c0 6.677-5.413 12.091-12.09 12.091h40.275c6.677 0 12.09-5.413 12.09-12.091v-48.362c0-6.677-5.413-12.09-12.09-12.09z" fill="#ffc344"/><circle cx="160.752" cy="289.352" fill="#feb137" r="160.752"/><ellipse cx="160.752" cy="289.352" fill="#ffd15b" rx="124.085" ry="124.086" transform="matrix(.924 -.383 .383 .924 -98.494 83.543)"/><path d="m170.901 280.206h-.483v-55.613c15.949 1.781 28.391 15.341 28.391 31.757 0 4.204 3.407 7.611 7.611 7.611s7.611-3.407 7.611-7.611c0-24.816-19.26-45.203-43.614-47.035v-7.748c0-4.204-3.407-7.611-7.612-7.611s-7.611 3.407-7.611 7.611v7.599h-4.592c-23.783 0-43.132 19.349-43.132 43.132s19.349 43.132 43.132 43.132h4.592v55.817c-17.923-.011-32.5-14.595-32.5-32.521 0-4.204-3.407-7.612-7.611-7.612s-7.611 3.407-7.611 7.612c0 26.319 21.407 47.732 47.723 47.744v10.669c0 4.204 3.407 7.612 7.611 7.612s7.612-3.407 7.612-7.612v-10.669h.483c23.783 0 43.132-19.349 43.132-43.132s-19.349-43.132-43.132-43.132zm-20.297 0c-15.389 0-27.909-12.52-27.909-27.909s12.52-27.909 27.909-27.909h4.592v55.818zm20.297 71.041h-.483v-55.818h.483c15.389 0 27.909 12.52 27.909 27.909 0 15.388-12.521 27.909-27.909 27.909z" fill="#feb137"/></g></svg>