<svg id="Capa_1" enable-background="new 0 0 512 512" height="512" viewBox="0 0 512 512" width="512" xmlns="http://www.w3.org/2000/svg"><g><path d="m512 75.234c0-10.512-8.553-19.064-19.064-19.064h-24c-4.143 0-7.5 3.357-7.5 7.5s3.357 7.5 7.5 7.5h24c2.241 0 4.064 1.823 4.064 4.064v46.257c0 2.241-1.823 4.064-4.064 4.064h-293.665c-2.241 0-4.064-1.823-4.064-4.064v-46.257c0-2.241 1.823-4.064 4.064-4.064h234.665c4.143 0 7.5-3.357 7.5-7.5s-3.357-7.5-7.5-7.5h-234.665c-10.512 0-19.064 8.553-19.064 19.064v46.257c0 1.088.113 2.148.289 3.187-4.827-.418-9.695-.642-14.597-.642-28.712 0-57.009 7.453-81.83 21.554-.003.002-.007.004-.01.007-51.851 29.458-84.059 84.763-84.059 144.337.001 46.946 20.024 91.897 54.938 123.328 3.079 2.771 7.82 2.523 10.592-.557 2.771-3.078 2.522-7.82-.557-10.592-31.757-28.59-49.972-69.478-49.973-112.179 0-82.944 67.225-150.897 150.897-150.897 80.592 0 148.459 64.26 150.834 146.605 0 .013 0 .025.001.038 2.411 84.655-65.813 155.15-150.835 155.15-25.91 0-51.465-6.675-73.9-19.303-3.609-2.03-8.184-.752-10.215 2.857s-.752 8.183 2.857 10.215c24.677 13.889 52.775 21.23 81.258 21.23 39.906 0 76.563-14.166 105.215-37.729h221.823c10.512 0 19.064-8.553 19.064-19.064v-46.258c0-4.351-1.481-8.353-3.944-11.564 2.463-3.212 3.944-7.214 3.944-11.564v-46.258c0-4.35-1.481-8.352-3.943-11.564 2.462-3.212 3.943-7.214 3.943-11.564v-46.258c0-4.351-1.481-8.353-3.944-11.564 2.463-3.212 3.944-7.214 3.944-11.564v-46.257c0-4.351-1.481-8.353-3.944-11.565 2.463-3.212 3.944-7.214 3.944-11.565v-46.257zm-15 115.644c0 2.241-1.823 4.064-4.064 4.064h-190.987c-16.231-23.146-38.223-42.015-63.719-54.386h254.705c2.241 0 4.064 1.823 4.064 4.064v46.258zm0 23.129v46.258c0 2.241-1.823 4.064-4.064 4.064h-163.099c-2.956-19.186-9.232-37.54-18.53-54.387h181.629c2.241 0 4.064 1.824 4.064 4.065zm0 69.386v46.258c0 2.241-1.823 4.064-4.064 4.064h-166.987c4.809-17.621 6.659-35.892 5.503-54.386h161.483c2.242 0 4.065 1.823 4.065 4.064zm0 115.644c0 2.241-1.823 4.064-4.064 4.064h-205.747c14.714-15.761 26.243-34.235 33.882-54.387h171.864c2.241 0 4.064 1.823 4.064 4.064v46.259z"/><path d="m295.665 289.934c0-71.555-58.214-129.769-129.768-129.769s-129.767 58.214-129.767 129.769c0 71.554 58.214 129.768 129.768 129.768s129.767-58.215 129.767-129.768zm-244.535 0c0-63.283 51.484-114.769 114.768-114.769s114.768 51.485 114.768 114.769-51.484 114.768-114.768 114.768-114.768-51.485-114.768-114.768z"/><path d="m175.422 376.434v-10.513h.476c23.435 0 42.5-19.065 42.5-42.5s-19.065-42.5-42.5-42.5h-.476v-54.799c15.715 1.755 27.976 15.116 27.976 31.292 0 4.143 3.357 7.5 7.5 7.5s7.5-3.357 7.5-7.5c0-24.452-18.978-44.541-42.976-46.346v-7.634c0-4.143-3.357-7.5-7.5-7.5s-7.5 3.357-7.5 7.5v7.487h-4.524c-23.435 0-42.5 19.065-42.5 42.5s19.065 42.5 42.5 42.5h4.524v55c-17.66-.011-32.024-14.381-32.024-32.044 0-4.143-3.357-7.5-7.5-7.5s-7.5 3.357-7.5 7.5c0 25.934 21.094 47.033 47.024 47.044v10.513c0 4.143 3.357 7.5 7.5 7.5s7.5-3.358 7.5-7.5zm-19.525-95.513c-15.163 0-27.5-12.337-27.5-27.5s12.337-27.5 27.5-27.5h4.524v55zm20 15c15.163 0 27.5 12.337 27.5 27.5s-12.337 27.5-27.5 27.5h-.476v-55z"/></g></svg>