<svg id="Capa_1" enable-background="new 0 0 512 512" height="512" viewBox="0 0 512 512" width="512" xmlns="http://www.w3.org/2000/svg"><g><path d="m376.093 465.081-64.491-111.702-9.741-2.61c-17.621 10.173-40.153 4.136-50.326-13.485l-85.316-147.772c-10.173-17.621-4.136-40.153 13.485-50.326l1.004-12.522-61.75-106.954-10.876-4.577.001-.001-37.365 21.572c-55.645 32.126-74.711 103.279-42.584 158.924l149.061 258.182c32.127 55.645 103.279 74.71 158.924 42.584l37.363-21.571z" fill="#0182fc"/><path d="m288.523 161.892c-1.214 7.426 3.005 14.162 10.148 16.603 9.754 3.332 18.164 9.801 23.497 19.038 5.333 9.236 6.731 19.754 4.739 29.867-1.458 7.406 2.266 14.427 9.305 17.09 10.045 3.799 22.113-2.739 24.269-13.3 3.538-17.335 1.223-35.397-7.907-51.21s-23.615-26.848-40.397-32.453c-10.226-3.415-21.922 3.767-23.654 14.365z" fill="#f79595"/><path d="m299.438 95.864-.002.015c-1.35 8.262 3.995 15.525 12.348 17.163 29.654 5.817 55.881 22.862 71.293 49.555 15.412 26.694 17.061 57.928 7.271 86.517-2.757 8.052.86 16.312 8.691 19.274l.014.005c9.303 3.519 20.454-1.84 23.745-11.402 12.727-36.978 10.627-77.408-9.316-111.947-19.942-34.54-53.907-56.574-92.295-64.041-9.928-1.932-20.145 5.046-21.749 14.861z" fill="#fd8087"/><path d="m310.233 30.571-.003.02c-1.376 8.419 4.153 15.929 12.767 17.225 50.252 7.562 95.192 35.166 120.987 79.844 25.796 44.678 27.233 97.397 8.656 144.696-3.185 8.108.555 16.65 8.534 19.669l.019.007c9.006 3.406 19.87-1.491 23.462-10.643 21.978-55.993 20.269-118.396-10.266-171.283s-83.726-85.568-143.208-94.532c-9.722-1.465-19.395 5.495-20.948 14.997z" fill="#fe646f"/><g><path d="m350.645 442.183c-55.645 32.126-126.797 13.061-158.924-42.584l-149.061-258.182c-10.976-19.012-15.973-39.834-15.581-60.291-19.055 34.516-20.095 77.868 1.055 114.501l149.061 258.183c32.127 55.645 103.279 74.71 158.924 42.584l58.253-33.632c10.953-6.323 14.705-20.328 8.382-31.281l-8.393-14.537z" fill="#0172fb"/></g><path d="m325.725 336.991-23.865 13.778 71.622 124.053 20.89-12.061c10.953-6.323 14.705-20.328 8.382-31.281l-50.44-87.365c-5.375-9.31-17.279-12.499-26.589-7.124z" fill="#d8ecfe"/><path d="m353.64 440.454 19.843 34.368 20.89-12.061c10.953-6.323 14.705-20.328 8.382-31.281l-8.393-14.537z" fill="#c4e2ff"/><path d="m210.692 98.818-50.44-87.365c-6.323-10.953-20.328-14.705-31.281-8.382l-20.89 12.061 71.622 124.053 23.865-13.778c9.309-5.375 12.499-17.279 7.124-26.589z" fill="#d8ecfe"/></g></svg>