<svg id="Capa_1" enable-background="new 0 0 511.99 511.99" height="512" viewBox="0 0 511.99 511.99" width="512" xmlns="http://www.w3.org/2000/svg"><g><path d="m295.016 187.853c8.149 2.783 14.629 8.017 18.738 15.134 7.37 12.762 3.292 23.243 3.292 28.32 0 12.343 9.873 22.067 22.691 22.067 11.958 0 22.727-8.585 25.051-19.97 4.07-19.948.559-39.221-8.529-54.959-13.403-23.215-38.941-36.085-50.871-36.085-12.201 0-23.27 9.255-25.2 21.068-1.752 10.711 4.261 20.814 14.828 24.425zm-.025-22.004c.765-4.681 5.429-8.488 10.396-8.488 3.729 0 25.506 7.151 37.881 28.585 8.019 13.888 9.87 29.527 6.822 44.46-.912 4.469-5.46 7.969-10.354 7.969-5.028 0-8.507-3.72-7.529-8.698 2.388-12.114.34-24.139-5.464-34.19-5.865-10.158-15.411-17.91-26.878-21.827-3.412-1.168-5.467-4.182-4.874-7.811z"/><path d="m320.727 78.756c-13.781-2.681-27.654 6.735-29.936 20.534-.003.019-.006.038-.009.057-1.971 12.029 5.882 22.866 17.944 25.232 27.971 5.486 50.754 21.287 64.152 44.493 13.733 23.785 15.371 51.775 6.457 77.804-4.018 11.745 1.614 23.893 12.879 28.153.018.007.038.015.059.022 13.1 4.926 28.236-2.546 32.75-15.659 13.891-40.362 9.563-81.602-9.639-114.859-19.867-34.406-53.483-57.767-94.657-65.777zm90.111 175.755c-1.826 5.307-8.238 8.411-13.303 6.494-.015-.006-.031-.012-.048-.018-3.802-1.457-5.314-5.302-3.961-9.253 10.702-31.253 7.648-63.651-7.659-90.162-15.598-27.015-41.969-45.38-74.255-51.712-3.725-.731-6.132-3.416-6.132-6.841 0-.506.042-.827.106-1.266.761-4.659 5.45-8.449 10.453-8.449 4.583 0 57.684 9.075 86.353 58.729 18.355 31.792 20.055 68.75 8.446 102.478z"/><path d="m474.506 110.62c-29.608-51.28-82.237-86.063-144.391-95.428-13.459-2.036-26.66 7.462-28.848 20.729-.003.02-.007.04-.009.055-2.006 12.278 6.156 23.463 18.679 25.347 48.323 7.271 89.168 34.184 112.063 73.838 22.895 39.653 25.78 88.481 7.916 133.965-4.649 11.839 1.028 24.467 12.631 28.855 12.587 4.763 27.433-1.926 32.41-14.605 22.966-58.508 19.157-121.475-10.451-172.756zm-3.511 167.274c-1.972 5.024-8.235 7.909-13.159 6.05-3.985-1.508-5.461-5.508-3.957-9.336 19.543-49.758 16.304-103.318-8.888-146.948-25.191-43.631-69.958-73.217-122.822-81.172-4.224-.635-6.764-4.071-6.121-8.011l.003-.02c.005-.027.01-.056.014-.083.843-5.159 6.453-9.153 11.815-8.351 57.614 8.682 106.322 40.791 133.635 88.096s30.768 105.542 9.48 159.775z"/><path d="m390.538 397.583c-2.072-3.588-6.659-4.814-10.245-2.745-3.587 2.071-4.816 6.658-2.745 10.245l14.432 24.997c4.006 6.939 1.751 15.995-5.391 20.119l-13.783 7.957c-5.428-9.401-60.472-104.741-62.024-107.428l16.67-9.624c5.511-3.18 12.459-1.208 15.564 4.17l17.031 29.499c2.071 3.587 6.657 4.816 10.245 2.745 3.587-2.071 4.816-6.658 2.745-10.245l-17.031-29.499c-7.215-12.494-23.335-17.005-36.055-9.66-24.038 13.878-27.653 17.167-37.264 17.167-10.083 0-19.474-5.417-24.508-14.138l-82.816-143.443c-7.855-13.607-3.055-30.869 10.344-38.606.005-.003.009-.006.014-.009l23.151-13.366c12.634-7.295 16.956-23.42 9.661-36.055l-48.962-84.806c-8.196-14.196-26.414-19.076-40.61-10.882-25.004 14.437-13.245 7.648-56.546 32.647-37.154 21.45-60.235 61.455-60.235 104.401 0 11.295 1.591 22.513 4.729 33.34 1.152 3.978 5.31 6.263 9.291 5.116 3.979-1.153 6.269-5.313 5.116-9.292-2.744-9.47-4.136-19.282-4.136-29.164 0-37.604 20.207-72.632 52.735-91.411l29.773-17.189c2.659 4.606 59.973 103.876 62.354 108-15.93 13.394-20.267 36.418-9.669 54.775l82.816 143.442c7.705 13.347 22.074 21.638 37.499 21.638 5.044 0 10.049-.894 14.776-2.619 46.518 80.571 15.818 27.398 62.351 107.995-29.754 17.178-48.698 31.334-82.384 31.334-37.605 0-72.632-20.207-91.412-52.735l-140.878-244.008c-2.071-3.587-6.659-4.815-10.245-2.745-3.587 2.071-4.816 6.658-2.745 10.245l140.878 244.009c21.451 37.154 61.456 60.235 104.402 60.235 38.556 0 59.829-15.991 96.379-37.094.001-.001.003-.002.004-.003l20.274-11.704c9.62-5.555 14.869-15.598 14.868-25.767 0-5.193-1.379-10.326-3.987-14.843zm-267.859-372.659 13.782-7.958c7.032-4.061 16.059-1.643 20.12 5.392l48.962 84.806c3.155 5.465 1.272 12.422-4.171 15.564l-16.67 9.624z"/></g></svg>