<svg id="Capa_1" enable-background="new 0 0 512 512" height="512" viewBox="0 0 512 512" width="512" xmlns="http://www.w3.org/2000/svg"><g><path d="m256 241.23c51.514 0 93.424-41.91 93.424-93.424 0-51.515-41.91-93.425-93.424-93.425s-93.424 41.91-93.424 93.425c0 51.514 41.91 93.424 93.424 93.424zm0-171.848c43.243 0 78.424 35.182 78.424 78.425s-35.181 78.423-78.424 78.423-78.424-35.181-78.424-78.424 35.181-78.424 78.424-78.424z"/><path d="m393.011 179.082c-3.984-1.142-8.133 1.176-9.267 5.159-3.389 11.906 3.146-3.692-117.09 259.381-1.959 4.286-5.942 6.845-10.654 6.845s-8.695-2.558-10.654-6.845l-50.183-109.798c-1.722-3.769-6.173-5.427-9.939-3.704-3.767 1.722-5.425 6.172-3.704 9.939l30.624 67.003c-32.543 9.221-53.088 28.104-53.088 49.549 0 31.06 42.583 55.389 96.944 55.389s96.944-24.329 96.944-55.388c0-21.446-20.545-40.328-53.088-49.549 103.175-225.745 94.277-204.527 98.316-218.714 1.133-3.985-1.177-8.133-5.161-9.267zm-99.468 241.794c26.796 7.042 44.401 21.026 44.401 35.736 0 21.893-37.526 40.388-81.944 40.388s-81.944-18.495-81.944-40.388c0-14.71 17.605-28.694 44.401-35.736l13.246 28.982c4.401 9.628 13.71 15.608 24.297 15.608s19.896-5.98 24.297-15.609z"/><path d="m256 0c-81.5 0-147.806 66.306-147.806 147.807 0 21.182 5.143 43.065 10.53 54.855 6.144 13.444 41.045 89.806 48.248 105.564 1.723 3.769 6.174 5.425 9.939 3.703 3.768-1.722 5.425-6.172 3.704-9.939-7.924-17.335 1.356 2.97-48.167-105.389-6.14-15.53-9.253-31.946-9.253-48.795-.001-73.229 59.575-132.806 132.805-132.806 74.527 0 134.852 61.69 132.753 136.582-.116 4.141 3.146 7.591 7.287 7.707 4.143.093 7.592-3.146 7.707-7.287 2.335-83.309-64.771-152.002-147.747-152.002z"/></g></svg>