<svg id="Capa_1" enable-background="new 0 0 512 512" height="512" viewBox="0 0 512 512" width="512" xmlns="http://www.w3.org/2000/svg"><g id="_x34_7_placeholder"><ellipse cx="256" cy="462.656" fill="#60b7ff" rx="92.141" ry="49.332"/><path d="m256 413.324c-6.507 0-12.855.363-18.981 1.05 41.781 4.685 73.16 24.52 73.16 48.282s-31.379 43.597-73.16 48.282c56.875 6.379 111.122-16.759 111.122-48.282 0-27.246-41.253-49.332-92.141-49.332z" fill="#26a6fe"/><path d="m390.389 197.835c6.546-16.492 10.148-34.474 10.148-53.298 0-79.825-64.711-144.537-144.537-144.537s-144.537 64.712-144.537 144.537c0 18.824 3.602 36.805 10.148 53.298l.001.002s116.379 254.633 116.386 254.65c7.048 15.421 28.957 15.421 36.005 0 .008-.017 116.386-254.65 116.386-254.65z" fill="#fe646f"/><circle cx="256" cy="144.537" fill="#d8ecfe" r="88.515"/><path d="m400.537 144.537c0-79.825-64.711-144.537-144.537-144.537-6.434 0-12.769.426-18.981 1.241 70.855 9.295 125.557 69.905 125.557 143.296 0 18.824-3.602 36.805-10.148 53.298l-.001.002s-115.4 252.493-115.408 252.51l.978 2.14c7.048 15.421 28.957 15.421 36.005 0 .008-.017 116.386-254.65 116.386-254.65l.001-.002c6.547-16.492 10.148-34.474 10.148-53.298z" fill="#fd4755"/></g></svg>