<svg id="Capa_1" enable-background="new 0 0 511.999 511.999" height="512" viewBox="0 0 511.999 511.999" width="512" xmlns="http://www.w3.org/2000/svg"><g><path d="m510.98 252.224c-.772-1.325-19.382-32.833-60.193-64.968-23.906-18.823-50.528-33.955-79.128-44.976-37.729-14.538-80.566-21.783-115.479-21.826-.016 0-.031-.001-.047-.001-.019 0-.038 0-.056 0-.026 0-.051-.001-.077-.001s-.051.001-.077.001c-.019 0-.038 0-.056 0-.019 0-.037.001-.056.001-56.184.078-117.679 16.06-169.738 49.175-3.495 2.223-4.526 6.858-2.303 10.354 2.223 3.494 6.858 4.525 10.354 2.303 25.412-16.165 52.957-28.186 82.393-36.012-33.945 24.658-56.063 64.654-56.063 109.725 0 44.945 21.994 84.844 55.779 109.518-46.631-12.525-81.524-33.583-105.207-52.14-30.778-24.117-48.522-48.281-54.623-57.377 5.8-8.65 22.098-30.888 50.076-53.74 3.208-2.62 3.684-7.346 1.064-10.553-2.621-3.208-7.344-3.685-10.553-1.064-37.903 30.961-55.25 60.347-55.97 61.582-1.359 2.333-1.359 5.218 0 7.551.772 1.325 19.381 32.833 60.193 64.968 23.906 18.823 50.529 33.955 79.128 44.976 37.729 14.538 80.566 21.783 115.479 21.826.016 0 .031.001.047.001.044.001.089.001.133.001s.089 0 .133-.001c.014 0 .029-.001.043-.001 14.393-.018 34.071-2.178 34.071-2.178 62.083-6.929 117.12-29.487 163.582-67.05 3.222-2.604 3.722-7.326 1.117-10.547-2.603-3.222-7.325-3.721-10.547-1.117-32.147 25.988-68.65 44.422-108.938 55.09 33.958-24.656 56.086-64.661 56.086-109.742 0-44.945-21.994-84.844-55.779-109.518 46.63 12.525 81.523 33.583 105.206 52.14 30.781 24.119 48.525 48.285 54.625 57.381-3.881 5.796-12.451 17.671-26.017 31.661-2.884 2.974-2.811 7.722.163 10.604 2.971 2.884 7.722 2.812 10.604-.163 20.407-21.044 30.212-37.615 30.619-38.311 1.37-2.337 1.376-5.232.012-7.572zm-134.433 3.776c0 62.82-49.117 119.247-120.547 120.546-71.221-1.292-120.546-57.548-120.546-120.546 0-62.698 48.974-119.248 120.546-120.546 71.221 1.291 120.547 57.547 120.547 120.546z"/><path d="m256 176.959c-43.583 0-79.041 35.458-79.041 79.041s35.458 79.04 79.041 79.04 79.04-35.457 79.04-79.04c0-6.11-.726-12.202-2.14-18.166 4.988-6.92 7.939-15.401 7.939-24.564 0-23.22-18.891-42.11-42.11-42.11-9.162 0-17.643 2.95-24.563 7.938-5.962-1.413-12.054-2.139-18.166-2.139zm0 143.081c-35.312 0-64.041-28.729-64.041-64.04 0-35.313 28.729-64.041 64.041-64.041 2.089 0 4.176.104 6.253.309-.002.003-.004.007-.005.01-3.842 6.65-5.629 13.983-5.629 20.993 0 15.963 8.929 29.88 22.055 37.02 13.142 7.148 28.715 6.575 41.025-.526.011-.006.023-.012.034-.018.205 2.078.309 4.165.309 6.253-.002 35.311-28.73 64.04-64.042 64.04zm63.117-88.932c-.014.015-.03.028-.043.043-16.582 18.84-47.456 6.916-47.456-17.88 0-14.807 12.063-27.111 27.11-27.111 23.317 0 35.627 27.554 20.389 44.948z"/></g></svg>