<svg id="Capa_1" enable-background="new 0 0 512 512" height="512" viewBox="0 0 512 512" width="512" xmlns="http://www.w3.org/2000/svg"><g id="_x34_9_map"><path d="m490.672 175.743h-35.427v3.507h-50.969v-3.507h-296.552v3.507h-50.969v-3.507h-35.427c-11.729 0-21.237 9.508-21.237 21.237v46.184h3.507v50.969h-3.507v97.522h3.505v50.968h-3.505v48.139c0 11.73 9.508 21.238 21.237 21.238h382.948v-3.507h50.969v3.507h35.427c11.729 0 21.237-9.508 21.237-21.237v-293.783c0-11.729-9.508-21.237-21.237-21.237z" fill="#7a8c98"/><path d="m511.909 391.656v-194.676c0-11.729-9.508-21.237-21.237-21.237h-35.872c11.729 0 21.237 9.508 21.237 21.237v293.782c0 11.729-9.508 21.237-21.237 21.237h35.872c11.729 0 21.237-9.508 21.237-21.237v-48.138h-3.507v-50.969h3.507z" fill="#596c76"/><path d="m455.245 391.656v-215.913h-50.969v67.421h-296.552v-67.421h-50.969v67.421h-56.664v50.969h56.664v97.521h-56.664v50.969h404.185v69.377h50.969v-69.375h56.664v-50.969zm-50.969 0h-296.552v-97.521h296.552z" fill="#d8ecfe"/><path d="m369.423 166.971c5.525-13.919 8.565-29.096 8.565-44.983 0-67.372-54.616-121.988-121.988-121.988s-121.988 54.616-121.988 121.988c0 15.887 3.04 31.063 8.565 44.983v.001s98.221 214.905 98.229 214.922c5.949 13.015 24.44 13.015 30.388 0 .008-.017 98.229-214.922 98.229-214.922z" fill="#fe646f"/><circle cx="256" cy="121.988" fill="#f9b1b1" r="74.706"/><path d="m377.988 121.988c0-67.372-54.616-121.988-121.988-121.988-5.773 0-11.449.41-17.008 1.186 59.32 8.276 104.98 59.203 104.98 120.802 0 15.887-3.04 31.063-8.565 44.982v.001s-83.033 181.674-96.415 210.954c1.172 2.565 1.813 3.967 1.814 3.969 5.949 13.015 24.44 13.015 30.388 0 .008-.017 98.229-214.922 98.229-214.922v-.001c5.525-13.919 8.565-29.096 8.565-44.983z" fill="#fd4755"/><g><path d="m476.037 391.656h35.873v50.969h-35.873z" fill="#c4e2ff"/></g></g></svg>