<svg id="Capa_1" enable-background="new 0 0 512 512" height="512" viewBox="0 0 512 512" width="512" xmlns="http://www.w3.org/2000/svg"><g><path d="m256 205.932c44.122 0 80.018-35.896 80.018-80.018 0-44.121-35.896-80.017-80.018-80.017s-80.018 35.896-80.018 80.017c0 44.122 35.896 80.018 80.018 80.018zm0-145.035c35.851 0 65.018 29.166 65.018 65.017s-29.167 65.018-65.018 65.018-65.018-29.167-65.018-65.018 29.167-65.017 65.018-65.017z"/><path d="m504.412 274.503c4.143 0 7.5-3.357 7.5-7.5v-68.293c0-15.503-12.612-28.115-28.115-28.115-10.867 0-99.642 0-110.054 0 5.418-14.263 8.171-29.283 8.171-44.681 0-69.43-56.484-125.914-125.914-125.914-.003 0 0 0-.003 0-44.692 0-86.432 24.03-108.921 62.709-2.082 3.58-.867 8.171 2.714 10.253 3.577 2.083 8.171.867 10.253-2.714 19.815-34.079 56.584-55.249 95.957-55.248 61.158 0 110.914 49.756 110.914 110.914 0 14.063-2.596 27.762-7.716 40.724-4.157 9.095-22.233 48.635-88.576 193.802-6.789 14.855-7.218 18.034-12.178 19.407-3.963 1.106-8.42-.493-10.372-4.759-87.169-190.74-95.241-208.378-95.241-208.378-.003-.006-.005-.012-.008-.018-5.134-12.978-7.737-26.697-7.737-40.779 0-8.559.978-17.081 2.904-25.33.941-4.033-1.564-8.067-5.598-9.01-4.031-.941-8.066 1.563-9.01 5.598-2.188 9.367-3.297 19.037-3.297 28.742 0 15.397 2.754 30.418 8.171 44.681-13.107 0-98.723 0-110.055 0-15.487.002-28.114 12.557-28.114 28.115v285.175c.001 15.504 12.613 28.116 28.116 28.116h455.594c15.503 0 28.115-12.612 28.115-28.115 0-2.943 0-178.799 0-181.882 0-4.143-3.357-7.5-7.5-7.5s-7.5 3.357-7.5 7.5v78.179h-40.004v-194.587h26.889c7.231 0 13.115 5.884 13.115 13.115v68.293c0 4.143 3.358 7.5 7.5 7.5zm-137.368-88.908h25.388v50.446h-48.461c17.596-38.501 20.761-45.436 23.073-50.446zm-52.542 114.922h77.929v79.665h-114.34zm-117.005 0c20.346 44.514 27.108 59.309 36.41 79.665h-114.339v-79.665zm-77.929-114.922h25.388c1.639 3.553 1.429 3.101 23.07 50.446h-48.458zm-104.48 13.115c0-4.519 2.353-7.497 2.353-7.497 2.458-3.518 6.481-5.617 10.763-5.618h26.889v50.446h-40.005zm0 101.807h40.004v79.665h-40.004zm377.344 196.483h-364.229c-7.231 0-13.115-5.884-13.115-13.115v-39.228h377.344zm104.48-13.115c0 7.231-5.884 13.115-13.115 13.115h-26.889v-52.343h40.004zm0-88.703v34.476h-47.504c-4.143 0-7.5 3.357-7.5 7.5v59.842h-34.477v-59.843c0-4.143-3.357-7.5-7.5-7.5h-384.843v-34.476h47.504c4.143 0 7.5-3.357 7.5-7.5v-94.665c0-4.143-3.357-7.5-7.5-7.5h-47.504v-34.476h47.504c4.143 0 7.5-3.357 7.5-7.5v-57.946h34.477v57.946c0 4.143 3.357 7.5 7.5 7.5h62.814l15.758 34.476h-78.572c-4.143 0-7.5 3.357-7.5 7.5v94.665c0 4.143 3.357 7.5 7.5 7.5h287.863c4.143 0 7.5-3.357 7.5-7.5v-94.665c0-4.143-3.357-7.5-7.5-7.5h-78.573c11.48-25.118 9.566-20.93 15.757-34.476h62.816c4.143 0 7.5-3.357 7.5-7.5v-57.946h34.477v202.087c0 4.143 3.357 7.5 7.5 7.5h47.503z"/></g></svg>