<svg id="Capa_1" enable-background="new 0 0 512.003 512.003" height="512" viewBox="0 0 512.003 512.003" width="512" xmlns="http://www.w3.org/2000/svg"><g><g><path d="m329.135 345.54h-168.923c-39.254 0-71.076 31.822-71.076 71.076v87.886h311.075v-87.886c0-39.254-31.822-71.076-71.076-71.076z" fill="#60b7ff"/><path d="m400.211 416.616c0-39.254-31.822-71.076-71.076-71.076h-38.664c39.255 0 71.076 31.822 71.076 71.076v87.886h38.664z" fill="#26a6fe"/><path d="m363.811 77.735c-17.493-31.906-52.191-50.457-88.439-47.285l-36.284 3.176c-2.374.208-4.152-2.133-3.314-4.365l6.381-16.995c1.028-2.737-1.535-5.462-4.33-4.603l-74.744 22.964c-29.735 9.136-50.03 36.602-50.03 67.709 0 32.469-1.677 79.907 15.766 143.49h230.524c13.474-49.117 15.516-88.406 15.766-119.433.125-15.603-3.793-30.974-11.296-44.658z" fill="#596c76"/><g fill="#465a61"><path d="m363.811 77.735c-17.493-31.906-52.19-50.457-88.439-47.285l-9.466.828c27.526 4.441 52.032 21.288 65.831 46.456 7.502 13.684 11.421 29.054 11.296 44.659-.25 31.027-2.292 70.316-15.766 119.433h32.074c13.474-49.117 15.516-88.406 15.766-119.433.126-15.603-3.793-30.974-11.296-44.658z"/><path d="m203.7 29.262c-.838 2.231.94 4.572 3.314 4.365l28.637-2.507c-.136-.589-.114-1.227.123-1.858l6.381-16.995c1.028-2.737-1.535-5.462-4.33-4.603l-29.408 9.035z"/></g><path d="m244.059 411.382c-29.122 0-52.73-23.608-52.73-52.73v-96.742h105.46v96.741c0 29.122-23.608 52.731-52.73 52.731z" fill="#ffcebf"/><path d="m274.29 261.91v96.741c0 25.26-17.766 46.36-41.481 51.515 3.626.788 7.387 1.215 11.249 1.215 29.122 0 52.73-23.608 52.73-52.73v-96.741z" fill="#ffb09e"/><path d="m339.905 192.526v-7.723c0-52.923-42.903-95.826-95.826-95.826-52.923 0-95.826 42.903-95.826 95.826v7.723c-20.275 0-36.711 16.436-36.711 36.711 0 21.379 18.277 38.464 39.961 36.559 10.933 40.895 48.234 71.015 92.576 71.015 44.342 0 81.643-30.12 92.576-71.015 21.713 1.906 39.961-15.208 39.961-36.559 0-20.275-16.436-36.711-36.711-36.711z" fill="#ffcebf"/><path d="m339.905 192.526v-7.723c0-52.923-42.903-95.826-95.826-95.826-3.413 0-6.78.191-10.101.539 48.134 5.086 85.641 45.805 85.641 95.287v7.723c20.275 0 36.711 16.436 36.711 36.711 0 21.387-18.284 38.463-39.961 36.559-10.085 37.724-42.614 66.258-82.402 70.46 3.324.355 6.694.555 10.112.555 44.342 0 81.643-30.12 92.576-71.015 21.693 1.905 39.961-15.188 39.961-36.559 0-20.275-16.436-36.711-36.711-36.711z" fill="#ffb09e"/><path d="m363.811 77.735c-17.493-31.906-52.19-50.457-88.439-47.285l-36.284 3.176c-2.374.208-4.152-2.133-3.314-4.365l6.381-16.995c1.028-2.737-1.535-5.462-4.33-4.603l-74.744 22.964c-29.735 9.136-50.03 36.602-50.03 67.709 0 2.244-.008 4.56-.017 6.947-.153 40.512 32.649 73.44 73.161 73.44h185.591c2.554-21.236 3.188-39.938 3.32-56.33.126-15.603-3.792-30.974-11.295-44.658z" fill="#596c76"/><g><path d="m363.811 77.735c-17.493-31.906-52.191-50.457-88.439-47.284l-9.469.829c27.525 4.441 52.031 21.288 65.83 46.456 7.502 13.684 11.421 29.054 11.295 44.659-.132 16.393-.766 35.094-3.32 56.33h32.078c2.554-21.236 3.188-39.937 3.32-56.33.126-15.605-3.792-30.976-11.295-44.66z" fill="#465a61"/></g><circle cx="357.349" cy="78.502" fill="#d8ecfe" r="65.518"/></g><g><path d="m204.055 245.368v-25c0-4.143-3.357-7.5-7.5-7.5s-7.5 3.357-7.5 7.5v25c0 4.143 3.357 7.5 7.5 7.5s7.5-3.357 7.5-7.5z"/><path d="m295.233 245.368v-25c0-4.143-3.357-7.5-7.5-7.5s-7.5 3.357-7.5 7.5v25c0 4.143 3.357 7.5 7.5 7.5s7.5-3.357 7.5-7.5z"/><path d="m364.364 44.367c0-4.143-3.357-7.5-7.5-7.5s-7.5 3.357-7.5 7.5v27.75h-27.75c-4.143 0-7.5 3.357-7.5 7.5s3.357 7.5 7.5 7.5h27.75v27.75c0 4.143 3.357 7.5 7.5 7.5s7.5-3.357 7.5-7.5v-27.75h27.75c4.143 0 7.5-3.357 7.5-7.5s-3.357-7.5-7.5-7.5h-27.75z"/><path d="m430.367 78.502c0-17.583-6.339-34.571-17.85-47.836-2.717-3.131-7.454-3.464-10.58-.75-3.129 2.715-3.464 7.452-.75 10.58 9.144 10.538 14.18 24.035 14.18 38.006 0 32.166-26.234 58.018-58.018 58.018-31.991 0-58.018-26.026-58.018-58.018 0-31.917 25.947-58.018 58.018-58.018 6.295 0 12.483 1 18.393 2.974 3.929 1.311 8.178-.81 9.489-4.739 1.312-3.929-.811-8.177-4.739-9.489-7.443-2.485-15.229-3.745-23.143-3.745-19.414 0-37.068 7.63-50.16 20.031-10.603-2.623-21.599-3.489-32.471-2.536l-29.545 2.586c4.317-11.498 4.713-11.965 4.713-14.551 0-7.306-7.068-12.718-14.265-10.52l-71.284 21.901c-3.959 1.216-6.183 5.412-4.966 9.372 1.217 3.959 5.408 6.182 9.372 4.966l63.544-19.523c-3.79 10.093-4.225 10.679-4.225 13.195 0 5.918 4.814 10.733 10.731 10.733.319 0 .638-.014.948-.041l36.284-3.176c6.723-.588 13.528-.362 20.181.667-7.71 11.778-11.876 25.692-11.876 39.912 0 40.262 32.756 73.018 73.018 73.018 2.821 0 6.262-.201 9.367-.604-.811 13.846-2.204 27.183-4.216 40.327-4.633-2.759-9.746-4.655-15.095-5.575 0-1.397.016-3.745-.212-7.408-.245-3.953-3.524-7.034-7.485-7.034h-153.511c-11.536 0-22.898-3.052-32.859-8.825-4.504-2.611-10.291.058-11.158 5.253-1.081 6.468-1.426 12.021-1.426 18.011-5.41.928-10.577 2.889-15.099 5.581-5.925-38.501-5.103-69.042-5.103-92.907 0-17.721 7.501-34.752 20.579-46.728 3.056-2.797 3.265-7.541.467-10.596-2.798-3.057-7.543-3.266-10.596-.467-16.174 14.809-25.45 35.873-25.45 57.79 0 26.11-.981 60.443 6.912 104.982-5.292 7.288-8.421 16.243-8.421 25.918 0 17.763 10.561 33.735 26.904 40.692 3.812 1.626 8.217-.152 9.838-3.963 1.623-3.812-.151-8.216-3.963-9.838-10.801-4.599-17.779-15.154-17.779-26.893 0-16.095 13.113-29.21 29.211-29.21 4.143 0 7.5-3.357 7.5-7.5 0-8.256-.03-9.4.115-12.226 9.595 3.896 19.905 5.924 30.328 5.924h146.21c0 4.73-1.256 12.38 6.193 13.681 1.512.266 3.835-.11 8.242.968 11.367 2.802 20.331 12.314 21.996 24.296 0 .003 0 .005.001.008.185 1.334.278 2.7.278 4.061 0 16.889-14.431 30.604-31.805 29.088-3.646-.326-6.962 2.016-7.902 5.534-10.303 38.537-45.392 65.452-85.33 65.452-34.069 0-65.459-19.934-79.968-50.783-1.765-3.748-6.23-5.358-9.979-3.595-3.748 1.764-5.357 6.23-3.595 9.979 7.617 16.195 19.22 29.806 33.291 39.903v13.224h-23.616c-43.327 0-78.576 35.249-78.576 78.576v87.887c0 4.143 3.357 7.5 7.5 7.5h311.074c4.143 0 7.5-3.357 7.5-7.5v-34.94c0-4.143-3.357-7.5-7.5-7.5s-7.5 3.357-7.5 7.5v27.44h-296.074v-80.387c0-35.056 28.521-63.576 63.576-63.576h23.616v5.611c0 33.211 27.02 60.23 60.23 60.23s60.229-27.02 60.229-60.23v-5.611h24.846c35.056 0 63.576 28.521 63.576 63.576v17.946c0 4.143 3.357 7.5 7.5 7.5s7.5-3.357 7.5-7.5v-17.946c0-43.327-35.249-78.576-78.576-78.576h-24.846v-13.116c17.421-12.492 30.942-30.339 37.928-51.542 23.304-1.182 41.9-20.531 41.9-44.146 0-2.046-.142-4.104-.421-6.118 0-.005-.001-.011-.002-.016-1.021-7.344-3.856-14.073-8.004-19.768 3.223-18.219 5.272-36.656 6.228-56.08 28.211-10.11 48.451-37.107 48.451-68.751zm-141.078 280.149c0 24.94-20.29 45.23-45.23 45.23-24.939 0-45.229-20.29-45.229-45.23 0-13.771 0-10.803 0-24.757 14.218 6.94 29.753 10.417 45.251 10.417 14.84 0 30.436-3.189 45.209-10.394-.001 13.9-.001 10.935-.001 24.734z"/></g></g></svg>