<svg id="Capa_1" enable-background="new 0 0 512 512" height="512" viewBox="0 0 512 512" width="512" xmlns="http://www.w3.org/2000/svg"><g><path d="m331.34 348.24h-174.02c-40.439 0-73.222 32.782-73.222 73.222v90.538h320.464v-90.539c0-40.439-32.782-73.221-73.222-73.221z" fill="#60b7ff"/><path d="m404.562 421.461c0-40.439-32.782-73.221-73.222-73.221h-39.831c40.439 0 73.222 32.782 73.222 73.221v90.539h39.831z" fill="#26a6fe"/><path d="m367.064 72.352c-18.021-32.869-53.766-51.98-91.108-48.712l-37.379 3.272c-2.446.214-4.277-2.198-3.414-4.496l6.574-17.508c1.059-2.82-1.582-5.627-4.461-4.742l-77 23.657c-30.632 9.412-51.54 37.707-51.54 69.753 0 33.449-1.727 82.319 16.242 147.821h237.482c13.881-50.6 15.984-91.074 16.241-123.037.129-16.077-3.909-31.911-11.637-46.008z" fill="#596c76"/><g fill="#465a61"><path d="m367.064 72.352c-18.021-32.869-53.766-51.98-91.108-48.712l-9.751.853c28.356 4.575 53.602 21.931 67.818 47.858 7.729 14.097 11.766 29.931 11.637 46.007-.258 31.964-2.361 72.438-16.242 123.038h33.042c13.88-50.6 15.984-91.074 16.241-123.038.129-16.075-3.909-31.909-11.637-46.006z"/><path d="m202.12 22.416c-.863 2.298.968 4.71 3.414 4.496l29.501-2.582c-.14-.606-.118-1.264.126-1.914l6.574-17.508c1.059-2.82-1.582-5.627-4.461-4.742l-30.294 9.308z"/></g><path d="m243.697 416.068c-30.001 0-54.322-24.321-54.322-54.322v-99.661h108.643v99.661c0 30.002-24.32 54.322-54.321 54.322z" fill="#ffcebf"/><path d="m274.841 262.085v99.661c0 26.022-18.302 47.759-42.733 53.07 3.736.812 7.61 1.252 11.589 1.252 30.001 0 54.322-24.321 54.322-54.322v-99.661z" fill="#ffb09e"/><path d="m342.436 190.607v-7.956c0-54.521-44.198-98.718-98.718-98.718-54.521 0-98.719 44.198-98.719 98.718v7.956c-20.887 0-37.819 16.932-37.819 37.819 0 22.025 18.829 39.624 41.167 37.663 11.263 42.129 49.69 73.158 95.37 73.158 45.68 0 84.107-31.029 95.37-73.158 22.369 1.964 41.167-15.667 41.167-37.663.001-20.887-16.931-37.819-37.818-37.819z" fill="#ffcebf"/><path d="m342.436 190.607v-7.956c0-54.521-44.198-98.718-98.718-98.718-3.516 0-6.985.196-10.405.555 49.587 5.24 88.226 47.187 88.226 98.163v7.956c20.887 0 37.819 16.932 37.819 37.819 0 22.032-18.836 39.624-41.167 37.663-10.389 38.862-43.9 68.257-84.889 72.586 3.424.366 6.896.572 10.418.572 45.68 0 84.107-31.029 95.37-73.158 22.348 1.962 41.167-15.647 41.167-37.663-.002-20.887-16.934-37.819-37.821-37.819z" fill="#ffb09e"/><path d="m367.064 72.352c-18.021-32.869-53.766-51.98-91.108-48.712l-37.38 3.272c-2.446.214-4.277-2.198-3.414-4.496l6.574-17.508c1.059-2.82-1.582-5.627-4.461-4.742l-77 23.657c-30.632 9.412-51.54 37.707-51.54 69.753 0 2.312-.008 4.697-.017 7.157-.157 41.734 33.635 75.657 75.37 75.657h191.192c2.631-21.877 3.284-41.143 3.42-58.03.129-16.077-3.908-31.911-11.636-46.008z" fill="#596c76"/><g><path d="m367.064 72.352c-18.021-32.869-53.766-51.98-91.108-48.711l-9.754.854c28.356 4.575 53.601 21.931 67.816 47.858 7.729 14.097 11.766 29.931 11.636 46.007-.136 16.887-.789 36.153-3.42 58.03h33.046c2.631-21.877 3.284-41.143 3.42-58.03.129-16.077-3.908-31.911-11.636-46.008z" fill="#465a61"/></g><circle cx="360.406" cy="73.142" fill="#d8ecfe" r="67.495"/><g><path d="m194.759 252.167c-4.143 0-7.5-3.357-7.5-7.5v-25c0-4.143 3.357-7.5 7.5-7.5s7.5 3.357 7.5 7.5v25c0 4.143-3.357 7.5-7.5 7.5z" fill="#465a61"/></g><g><path d="m288.689 252.167c-4.143 0-7.5-3.357-7.5-7.5v-25c0-4.143 3.357-7.5 7.5-7.5s7.5 3.357 7.5 7.5v25c0 4.143-3.357 7.5-7.5 7.5z" fill="#465a61"/></g><path d="m395.156 66.791h-27.75v-27.75c0-4.143-3.357-7.5-7.5-7.5s-7.5 3.357-7.5 7.5v27.75h-27.75c-4.143 0-7.5 3.357-7.5 7.5s3.357 7.5 7.5 7.5h27.75v27.75c0 4.143 3.357 7.5 7.5 7.5s7.5-3.357 7.5-7.5v-27.75h27.75c4.143 0 7.5-3.357 7.5-7.5s-3.357-7.5-7.5-7.5z" fill="#465a61"/></g></svg>