<?xml version="1.0" ?><svg height="48px" version="1.1" viewBox="0 0 48 48" width="48px" xmlns="http://www.w3.org/2000/svg" xmlns:xlink="http://www.w3.org/1999/xlink"><title/><desc/><g fill="none" fill-rule="evenodd" id="Page-1" stroke="none" stroke-width="1"><g id="Artboard-Copy" transform="translate(-347.000000, -309.000000)"><path d="M358.2891,315 C356.4731,315 354.9981,316.474 354.9981,318.291 L354.9981,332.479 L370.9201,348.039 C372.2091,349.32 374.2991,349.32 375.5861,348.039 L388.0331,335.66 C389.3221,334.38 389.3221,332.301 388.0331,331.018 L371.5371,315.016 L371.5191,315 L371.5061,315.016 L358.2891,315 Z M363.5681,323.567 C362.4961,324.639 360.7601,324.639 359.6911,323.567 C358.6191,322.498 358.6191,320.761 359.6911,319.689 C360.7601,318.62 362.4961,318.62 363.5681,319.689 C364.6391,320.761 364.6391,322.498 363.5681,323.567 L363.5681,323.567 Z M374.9901,341.611 L364.1331,330.753 L364.9081,329.978 L375.7661,340.834 L374.9901,341.611 Z M377.6391,338.963 L366.7811,328.105 L367.5571,327.329 L378.4141,338.186 L377.6391,338.963 Z M380.2871,336.314 L369.4301,325.457 L370.2031,324.681 L381.0621,335.539 L380.2871,336.314 Z" fill="#000000" id="tag"/><g id="slices" transform="translate(47.000000, 9.000000)"/></g></g></svg>